<svg width="130" height="44" viewBox="0 0 130 44" fill="none" xmlns="http://www.w3.org/2000/svg">
<rect x="0.5" width="129" height="44" rx="10" fill="#40894B" fill-opacity="0.1"/>
<path d="M34.5 18H20.5M20.5 22H29.5M26.5 26H20.5M30.5 26H36.5M33.5 23V29" stroke="#329141" stroke-width="2" stroke-linecap="round" stroke-linejoin="round"/>
<path d="M55.1094 17.8516L51.8672 27.5H49.5938L53.8438 16.125H55.2969L55.1094 17.8516ZM57.8203 27.5L54.5625 17.8516L54.3672 16.125H55.8281L60.1016 27.5H57.8203ZM57.6719 23.2734V24.9688H51.5703V23.2734H57.6719ZM66.1875 25.7031V15.5H68.2656V27.5H66.3906L66.1875 25.7031ZM60.7578 23.375V23.2109C60.7578 22.5651 60.8307 21.9792 60.9766 21.4531C61.1276 20.9219 61.3464 20.4661 61.6328 20.0859C61.9193 19.7057 62.2656 19.4115 62.6719 19.2031C63.0833 18.9948 63.5495 18.8906 64.0703 18.8906C64.5755 18.8906 65.0156 18.9922 65.3906 19.1953C65.7708 19.3984 66.0938 19.6875 66.3594 20.0625C66.6302 20.4375 66.8464 20.8828 67.0078 21.3984C67.1693 21.9089 67.2865 22.4714 67.3594 23.0859V23.5312C67.2865 24.1302 67.1693 24.6797 67.0078 25.1797C66.8464 25.6797 66.6302 26.1172 66.3594 26.4922C66.0938 26.862 65.7708 27.1484 65.3906 27.3516C65.0104 27.5547 64.5651 27.6562 64.0547 27.6562C63.5391 27.6562 63.0755 27.5495 62.6641 27.3359C62.2578 27.1224 61.9115 26.8229 61.625 26.4375C61.3438 26.0521 61.1276 25.599 60.9766 25.0781C60.8307 24.5573 60.7578 23.9896 60.7578 23.375ZM62.8281 23.2109V23.375C62.8281 23.7396 62.8594 24.0807 62.9219 24.3984C62.9844 24.7161 63.0859 24.9974 63.2266 25.2422C63.3672 25.4818 63.5469 25.6693 63.7656 25.8047C63.9896 25.9401 64.2604 26.0078 64.5781 26.0078C64.9844 26.0078 65.3177 25.9193 65.5781 25.7422C65.8438 25.5599 66.0495 25.3125 66.1953 25C66.3411 24.6823 66.4349 24.3255 66.4766 23.9297V22.7031C66.4557 22.3906 66.401 22.1016 66.3125 21.8359C66.2292 21.5703 66.1094 21.3411 65.9531 21.1484C65.8021 20.9557 65.6146 20.8047 65.3906 20.6953C65.1667 20.5859 64.901 20.5312 64.5938 20.5312C64.276 20.5312 64.0052 20.6016 63.7812 20.7422C63.5573 20.8776 63.375 21.0677 63.2344 21.3125C63.0938 21.5573 62.9896 21.8411 62.9219 22.1641C62.8594 22.487 62.8281 22.8359 62.8281 23.2109ZM75.2031 25.7031V15.5H77.2812V27.5H75.4062L75.2031 25.7031ZM69.7734 23.375V23.2109C69.7734 22.5651 69.8464 21.9792 69.9922 21.4531C70.1432 20.9219 70.362 20.4661 70.6484 20.0859C70.9349 19.7057 71.2812 19.4115 71.6875 19.2031C72.099 18.9948 72.5651 18.8906 73.0859 18.8906C73.5911 18.8906 74.0312 18.9922 74.4062 19.1953C74.7865 19.3984 75.1094 19.6875 75.375 20.0625C75.6458 20.4375 75.862 20.8828 76.0234 21.3984C76.1849 21.9089 76.3021 22.4714 76.375 23.0859V23.5312C76.3021 24.1302 76.1849 24.6797 76.0234 25.1797C75.862 25.6797 75.6458 26.1172 75.375 26.4922C75.1094 26.862 74.7865 27.1484 74.4062 27.3516C74.026 27.5547 73.5807 27.6562 73.0703 27.6562C72.5547 27.6562 72.0911 27.5495 71.6797 27.3359C71.2734 27.1224 70.9271 26.8229 70.6406 26.4375C70.3594 26.0521 70.1432 25.599 69.9922 25.0781C69.8464 24.5573 69.7734 23.9896 69.7734 23.375ZM71.8438 23.2109V23.375C71.8438 23.7396 71.875 24.0807 71.9375 24.3984C72 24.7161 72.1016 24.9974 72.2422 25.2422C72.3828 25.4818 72.5625 25.6693 72.7812 25.8047C73.0052 25.9401 73.276 26.0078 73.5938 26.0078C74 26.0078 74.3333 25.9193 74.5938 25.7422C74.8594 25.5599 75.0651 25.3125 75.2109 25C75.3568 24.6823 75.4505 24.3255 75.4922 23.9297V22.7031C75.4714 22.3906 75.4167 22.1016 75.3281 21.8359C75.2448 21.5703 75.125 21.3411 74.9688 21.1484C74.8177 20.9557 74.6302 20.8047 74.4062 20.6953C74.1823 20.5859 73.9167 20.5312 73.6094 20.5312C73.2917 20.5312 73.0208 20.6016 72.7969 20.7422C72.5729 20.8776 72.3906 21.0677 72.25 21.3125C72.1094 21.5573 72.0052 21.8411 71.9375 22.1641C71.875 22.487 71.8438 22.8359 71.8438 23.2109ZM85.3203 19.0469V27.5H83.25V19.0469H85.3203ZM83.1094 16.8359C83.1094 16.5286 83.2135 16.2734 83.4219 16.0703C83.6354 15.8672 83.9219 15.7656 84.2812 15.7656C84.6406 15.7656 84.9245 15.8672 85.1328 16.0703C85.3464 16.2734 85.4531 16.5286 85.4531 16.8359C85.4531 17.138 85.3464 17.3906 85.1328 17.5938C84.9245 17.7969 84.6406 17.8984 84.2812 17.8984C83.9219 17.8984 83.6354 17.7969 83.4219 17.5938C83.2135 17.3906 83.1094 17.138 83.1094 16.8359ZM91.2891 19.0469V20.5312H86.4453V19.0469H91.2891ZM87.7422 16.9688H89.8125V25.0625C89.8125 25.3125 89.8464 25.5052 89.9141 25.6406C89.9818 25.776 90.0833 25.8672 90.2188 25.9141C90.3542 25.9609 90.5156 25.9844 90.7031 25.9844C90.8385 25.9844 90.9635 25.9766 91.0781 25.9609C91.1927 25.9453 91.2891 25.9297 91.3672 25.9141L91.375 27.4609C91.2031 27.5182 91.0078 27.5651 90.7891 27.6016C90.5755 27.638 90.3333 27.6562 90.0625 27.6562C89.599 27.6562 89.1927 27.5781 88.8438 27.4219C88.4948 27.2604 88.224 27.0026 88.0312 26.6484C87.8385 26.2891 87.7422 25.8151 87.7422 25.2266V16.9688ZM96.4609 27.6562C95.8203 27.6562 95.2448 27.5521 94.7344 27.3438C94.224 27.1354 93.7891 26.8464 93.4297 26.4766C93.0755 26.1016 92.8021 25.6667 92.6094 25.1719C92.4219 24.6719 92.3281 24.1354 92.3281 23.5625V23.25C92.3281 22.599 92.4219 22.0078 92.6094 21.4766C92.7969 20.9401 93.0625 20.4792 93.4062 20.0938C93.75 19.7083 94.1615 19.4115 94.6406 19.2031C95.1198 18.9948 95.6484 18.8906 96.2266 18.8906C96.8255 18.8906 97.3542 18.9922 97.8125 19.1953C98.2708 19.3932 98.6536 19.6745 98.9609 20.0391C99.2682 20.4036 99.5 20.8411 99.6562 21.3516C99.8125 21.8568 99.8906 22.4167 99.8906 23.0312V23.8984H93.2656V22.4766H97.8594V22.3203C97.849 21.9922 97.7865 21.6927 97.6719 21.4219C97.5573 21.1458 97.3802 20.9271 97.1406 20.7656C96.901 20.599 96.5911 20.5156 96.2109 20.5156C95.9036 20.5156 95.6354 20.5833 95.4062 20.7188C95.1823 20.849 94.9948 21.0365 94.8438 21.2812C94.6979 21.5208 94.5885 21.8073 94.5156 22.1406C94.4427 22.474 94.4062 22.8438 94.4062 23.25V23.5625C94.4062 23.9167 94.4531 24.2448 94.5469 24.5469C94.6458 24.849 94.7891 25.112 94.9766 25.3359C95.1693 25.5547 95.3984 25.7266 95.6641 25.8516C95.9349 25.9714 96.2422 26.0312 96.5859 26.0312C97.0182 26.0312 97.4089 25.9479 97.7578 25.7812C98.112 25.6094 98.4193 25.3568 98.6797 25.0234L99.7188 26.1016C99.5417 26.362 99.3021 26.612 99 26.8516C98.7031 27.0911 98.3438 27.2865 97.9219 27.4375C97.5 27.5833 97.013 27.6562 96.4609 27.6562ZM103.328 20.7812V27.5H101.266V19.0469H103.211L103.328 20.7812ZM103.023 22.9688H102.391C102.391 22.3802 102.461 21.8385 102.602 21.3438C102.747 20.849 102.961 20.4193 103.242 20.0547C103.523 19.6849 103.87 19.3984 104.281 19.1953C104.698 18.9922 105.18 18.8906 105.727 18.8906C106.107 18.8906 106.456 18.9479 106.773 19.0625C107.091 19.1719 107.365 19.3464 107.594 19.5859C107.828 19.8203 108.008 20.1276 108.133 20.5078C108.258 20.8828 108.32 21.3333 108.32 21.8594V27.5H106.258V22.0703C106.258 21.6745 106.201 21.3646 106.086 21.1406C105.977 20.9167 105.818 20.7604 105.609 20.6719C105.401 20.5781 105.151 20.5312 104.859 20.5312C104.536 20.5312 104.258 20.5964 104.023 20.7266C103.794 20.8516 103.604 21.026 103.453 21.25C103.307 21.474 103.198 21.7318 103.125 22.0234C103.057 22.3151 103.023 22.6302 103.023 22.9688ZM108.164 22.5859L107.312 22.7422C107.318 22.2109 107.391 21.7135 107.531 21.25C107.672 20.7812 107.878 20.3724 108.148 20.0234C108.424 19.6693 108.766 19.3932 109.172 19.1953C109.583 18.9922 110.057 18.8906 110.594 18.8906C111.01 18.8906 111.385 18.9505 111.719 19.0703C112.057 19.1849 112.346 19.3698 112.586 19.625C112.826 19.875 113.008 20.2005 113.133 20.6016C113.263 21.0026 113.328 21.4922 113.328 22.0703V27.5H111.25V22.0625C111.25 21.651 111.193 21.3359 111.078 21.1172C110.969 20.8984 110.81 20.7474 110.602 20.6641C110.393 20.5755 110.148 20.5312 109.867 20.5312C109.581 20.5312 109.331 20.5859 109.117 20.6953C108.909 20.7995 108.732 20.9453 108.586 21.1328C108.445 21.3203 108.339 21.5391 108.266 21.7891C108.198 22.0339 108.164 22.2995 108.164 22.5859Z" fill="#329141"/>
</svg>
