<svg width="154" height="44" viewBox="0 0 154 44" fill="none" xmlns="http://www.w3.org/2000/svg">
<rect x="0.5" y="0.5" width="153" height="43" rx="9.5" stroke="#329141"/>
<path d="M34 18H20M20 22H29M26 26H20M30 26H36M33 23V29" stroke="#329141" stroke-width="2" stroke-linecap="round" stroke-linejoin="round"/>
<path d="M54.6094 17.8516L51.3672 27.5H49.0938L53.3438 16.125H54.7969L54.6094 17.8516ZM57.3203 27.5L54.0625 17.8516L53.8672 16.125H55.3281L59.6016 27.5H57.3203ZM57.1719 23.2734V24.9688H51.0703V23.2734H57.1719ZM65.6875 25.7031V15.5H67.7656V27.5H65.8906L65.6875 25.7031ZM60.2578 23.375V23.2109C60.2578 22.5651 60.3307 21.9792 60.4766 21.4531C60.6276 20.9219 60.8464 20.4661 61.1328 20.0859C61.4193 19.7057 61.7656 19.4115 62.1719 19.2031C62.5833 18.9948 63.0495 18.8906 63.5703 18.8906C64.0755 18.8906 64.5156 18.9922 64.8906 19.1953C65.2708 19.3984 65.5938 19.6875 65.8594 20.0625C66.1302 20.4375 66.3464 20.8828 66.5078 21.3984C66.6693 21.9089 66.7865 22.4714 66.8594 23.0859V23.5312C66.7865 24.1302 66.6693 24.6797 66.5078 25.1797C66.3464 25.6797 66.1302 26.1172 65.8594 26.4922C65.5938 26.862 65.2708 27.1484 64.8906 27.3516C64.5104 27.5547 64.0651 27.6562 63.5547 27.6562C63.0391 27.6562 62.5755 27.5495 62.1641 27.3359C61.7578 27.1224 61.4115 26.8229 61.125 26.4375C60.8438 26.0521 60.6276 25.599 60.4766 25.0781C60.3307 24.5573 60.2578 23.9896 60.2578 23.375ZM62.3281 23.2109V23.375C62.3281 23.7396 62.3594 24.0807 62.4219 24.3984C62.4844 24.7161 62.5859 24.9974 62.7266 25.2422C62.8672 25.4818 63.0469 25.6693 63.2656 25.8047C63.4896 25.9401 63.7604 26.0078 64.0781 26.0078C64.4844 26.0078 64.8177 25.9193 65.0781 25.7422C65.3438 25.5599 65.5495 25.3125 65.6953 25C65.8411 24.6823 65.9349 24.3255 65.9766 23.9297V22.7031C65.9557 22.3906 65.901 22.1016 65.8125 21.8359C65.7292 21.5703 65.6094 21.3411 65.4531 21.1484C65.3021 20.9557 65.1146 20.8047 64.8906 20.6953C64.6667 20.5859 64.401 20.5312 64.0938 20.5312C63.776 20.5312 63.5052 20.6016 63.2812 20.7422C63.0573 20.8776 62.875 21.0677 62.7344 21.3125C62.5938 21.5573 62.4896 21.8411 62.4219 22.1641C62.3594 22.487 62.3281 22.8359 62.3281 23.2109ZM74.7031 25.7031V15.5H76.7812V27.5H74.9062L74.7031 25.7031ZM69.2734 23.375V23.2109C69.2734 22.5651 69.3464 21.9792 69.4922 21.4531C69.6432 20.9219 69.862 20.4661 70.1484 20.0859C70.4349 19.7057 70.7812 19.4115 71.1875 19.2031C71.599 18.9948 72.0651 18.8906 72.5859 18.8906C73.0911 18.8906 73.5312 18.9922 73.9062 19.1953C74.2865 19.3984 74.6094 19.6875 74.875 20.0625C75.1458 20.4375 75.362 20.8828 75.5234 21.3984C75.6849 21.9089 75.8021 22.4714 75.875 23.0859V23.5312C75.8021 24.1302 75.6849 24.6797 75.5234 25.1797C75.362 25.6797 75.1458 26.1172 74.875 26.4922C74.6094 26.862 74.2865 27.1484 73.9062 27.3516C73.526 27.5547 73.0807 27.6562 72.5703 27.6562C72.0547 27.6562 71.5911 27.5495 71.1797 27.3359C70.7734 27.1224 70.4271 26.8229 70.1406 26.4375C69.8594 26.0521 69.6432 25.599 69.4922 25.0781C69.3464 24.5573 69.2734 23.9896 69.2734 23.375ZM71.3438 23.2109V23.375C71.3438 23.7396 71.375 24.0807 71.4375 24.3984C71.5 24.7161 71.6016 24.9974 71.7422 25.2422C71.8828 25.4818 72.0625 25.6693 72.2812 25.8047C72.5052 25.9401 72.776 26.0078 73.0938 26.0078C73.5 26.0078 73.8333 25.9193 74.0938 25.7422C74.3594 25.5599 74.5651 25.3125 74.7109 25C74.8568 24.6823 74.9505 24.3255 74.9922 23.9297V22.7031C74.9714 22.3906 74.9167 22.1016 74.8281 21.8359C74.7448 21.5703 74.625 21.3411 74.4688 21.1484C74.3177 20.9557 74.1302 20.8047 73.9062 20.6953C73.6823 20.5859 73.4167 20.5312 73.1094 20.5312C72.7917 20.5312 72.5208 20.6016 72.2969 20.7422C72.0729 20.8776 71.8906 21.0677 71.75 21.3125C71.6094 21.5573 71.5052 21.8411 71.4375 22.1641C71.375 22.487 71.3438 22.8359 71.3438 23.2109ZM87.1641 23.3516H84.2344V21.6641H87.1641C87.6432 21.6641 88.0312 21.5859 88.3281 21.4297C88.6302 21.2682 88.8516 21.0495 88.9922 20.7734C89.1328 20.4922 89.2031 20.1719 89.2031 19.8125C89.2031 19.4635 89.1328 19.138 88.9922 18.8359C88.8516 18.5339 88.6302 18.2891 88.3281 18.1016C88.0312 17.9141 87.6432 17.8203 87.1641 17.8203H84.9375V27.5H82.7891V16.125H87.1641C88.0495 16.125 88.8047 16.2839 89.4297 16.6016C90.0599 16.9141 90.5391 17.349 90.8672 17.9062C91.2005 18.4583 91.3672 19.0885 91.3672 19.7969C91.3672 20.5312 91.2005 21.1641 90.8672 21.6953C90.5391 22.2266 90.0599 22.6354 89.4297 22.9219C88.8047 23.2083 88.0495 23.3516 87.1641 23.3516ZM94.9609 20.7734V27.5H92.8984V19.0469H94.8516L94.9609 20.7734ZM97.5312 18.9922L97.5 20.9141C97.3854 20.8932 97.2552 20.8776 97.1094 20.8672C96.9688 20.8568 96.8359 20.8516 96.7109 20.8516C96.3932 20.8516 96.1146 20.8958 95.875 20.9844C95.6354 21.0677 95.4349 21.1901 95.2734 21.3516C95.1172 21.513 94.9974 21.7109 94.9141 21.9453C94.8307 22.1745 94.7839 22.4349 94.7734 22.7266L94.3281 22.6719C94.3281 22.1354 94.3828 21.638 94.4922 21.1797C94.6016 20.7214 94.7604 20.3203 94.9688 19.9766C95.1771 19.6328 95.4375 19.3672 95.75 19.1797C96.0677 18.987 96.4323 18.8906 96.8438 18.8906C96.9583 18.8906 97.0807 18.901 97.2109 18.9219C97.3464 18.9375 97.4531 18.9609 97.5312 18.9922ZM98.0781 23.3594V23.1953C98.0781 22.5755 98.1667 22.0052 98.3438 21.4844C98.5208 20.9583 98.7786 20.5026 99.1172 20.1172C99.4557 19.7318 99.8698 19.4323 100.359 19.2188C100.849 19 101.406 18.8906 102.031 18.8906C102.667 18.8906 103.229 19 103.719 19.2188C104.214 19.4323 104.63 19.7318 104.969 20.1172C105.307 20.5026 105.565 20.9583 105.742 21.4844C105.919 22.0052 106.008 22.5755 106.008 23.1953V23.3594C106.008 23.974 105.919 24.5443 105.742 25.0703C105.565 25.5911 105.307 26.0469 104.969 26.4375C104.63 26.8229 104.216 27.1224 103.727 27.3359C103.237 27.5495 102.677 27.6562 102.047 27.6562C101.422 27.6562 100.862 27.5495 100.367 27.3359C99.8724 27.1224 99.4557 26.8229 99.1172 26.4375C98.7786 26.0469 98.5208 25.5911 98.3438 25.0703C98.1667 24.5443 98.0781 23.974 98.0781 23.3594ZM100.141 23.1953V23.3594C100.141 23.7292 100.177 24.0755 100.25 24.3984C100.323 24.7214 100.435 25.0052 100.586 25.25C100.737 25.4948 100.932 25.6875 101.172 25.8281C101.417 25.9635 101.708 26.0312 102.047 26.0312C102.38 26.0312 102.667 25.9635 102.906 25.8281C103.146 25.6875 103.341 25.4948 103.492 25.25C103.648 25.0052 103.763 24.7214 103.836 24.3984C103.909 24.0755 103.945 23.7292 103.945 23.3594V23.1953C103.945 22.8307 103.909 22.4896 103.836 22.1719C103.763 21.849 103.648 21.5651 103.492 21.3203C103.341 21.0703 103.143 20.875 102.898 20.7344C102.659 20.5885 102.37 20.5156 102.031 20.5156C101.698 20.5156 101.411 20.5885 101.172 20.7344C100.932 20.875 100.737 21.0703 100.586 21.3203C100.435 21.5651 100.323 21.849 100.25 22.1719C100.177 22.4896 100.141 22.8307 100.141 23.1953ZM112.578 25.7031V15.5H114.656V27.5H112.781L112.578 25.7031ZM107.148 23.375V23.2109C107.148 22.5651 107.221 21.9792 107.367 21.4531C107.518 20.9219 107.737 20.4661 108.023 20.0859C108.31 19.7057 108.656 19.4115 109.062 19.2031C109.474 18.9948 109.94 18.8906 110.461 18.8906C110.966 18.8906 111.406 18.9922 111.781 19.1953C112.161 19.3984 112.484 19.6875 112.75 20.0625C113.021 20.4375 113.237 20.8828 113.398 21.3984C113.56 21.9089 113.677 22.4714 113.75 23.0859V23.5312C113.677 24.1302 113.56 24.6797 113.398 25.1797C113.237 25.6797 113.021 26.1172 112.75 26.4922C112.484 26.862 112.161 27.1484 111.781 27.3516C111.401 27.5547 110.956 27.6562 110.445 27.6562C109.93 27.6562 109.466 27.5495 109.055 27.3359C108.648 27.1224 108.302 26.8229 108.016 26.4375C107.734 26.0521 107.518 25.599 107.367 25.0781C107.221 24.5573 107.148 23.9896 107.148 23.375ZM109.219 23.2109V23.375C109.219 23.7396 109.25 24.0807 109.312 24.3984C109.375 24.7161 109.477 24.9974 109.617 25.2422C109.758 25.4818 109.938 25.6693 110.156 25.8047C110.38 25.9401 110.651 26.0078 110.969 26.0078C111.375 26.0078 111.708 25.9193 111.969 25.7422C112.234 25.5599 112.44 25.3125 112.586 25C112.732 24.6823 112.826 24.3255 112.867 23.9297V22.7031C112.846 22.3906 112.792 22.1016 112.703 21.8359C112.62 21.5703 112.5 21.3411 112.344 21.1484C112.193 20.9557 112.005 20.8047 111.781 20.6953C111.557 20.5859 111.292 20.5312 110.984 20.5312C110.667 20.5312 110.396 20.6016 110.172 20.7422C109.948 20.8776 109.766 21.0677 109.625 21.3125C109.484 21.5573 109.38 21.8411 109.312 22.1641C109.25 22.487 109.219 22.8359 109.219 23.2109ZM121.555 25.4922V19.0469H123.633V27.5H121.68L121.555 25.4922ZM121.82 23.7422L122.461 23.7266C122.461 24.2943 122.398 24.8177 122.273 25.2969C122.148 25.776 121.953 26.1927 121.688 26.5469C121.427 26.8958 121.096 27.1693 120.695 27.3672C120.294 27.5599 119.82 27.6562 119.273 27.6562C118.857 27.6562 118.477 27.599 118.133 27.4844C117.789 27.3646 117.492 27.1797 117.242 26.9297C116.997 26.6745 116.807 26.349 116.672 25.9531C116.536 25.5521 116.469 25.0703 116.469 24.5078V19.0469H118.531V24.5234C118.531 24.8047 118.562 25.0391 118.625 25.2266C118.693 25.4141 118.784 25.5677 118.898 25.6875C119.018 25.8021 119.156 25.8854 119.312 25.9375C119.474 25.9844 119.646 26.0078 119.828 26.0078C120.328 26.0078 120.721 25.9089 121.008 25.7109C121.299 25.5078 121.508 25.237 121.633 24.8984C121.758 24.5547 121.82 24.1693 121.82 23.7422ZM128.93 26.0312C129.221 26.0312 129.482 25.974 129.711 25.8594C129.94 25.7448 130.122 25.5833 130.258 25.375C130.398 25.1667 130.474 24.9245 130.484 24.6484H132.43C132.419 25.2214 132.258 25.7344 131.945 26.1875C131.633 26.6406 131.216 27 130.695 27.2656C130.18 27.526 129.602 27.6562 128.961 27.6562C128.31 27.6562 127.742 27.5469 127.258 27.3281C126.773 27.1094 126.37 26.8047 126.047 26.4141C125.729 26.0234 125.49 25.5703 125.328 25.0547C125.172 24.5391 125.094 23.987 125.094 23.3984V23.1484C125.094 22.5599 125.172 22.0078 125.328 21.4922C125.49 20.9766 125.729 20.5234 126.047 20.1328C126.37 19.7422 126.773 19.4375 127.258 19.2188C127.742 19 128.307 18.8906 128.953 18.8906C129.635 18.8906 130.234 19.0234 130.75 19.2891C131.271 19.5547 131.677 19.9297 131.969 20.4141C132.266 20.8984 132.419 21.4688 132.43 22.125H130.484C130.474 21.8229 130.406 21.5521 130.281 21.3125C130.156 21.0729 129.979 20.8802 129.75 20.7344C129.521 20.5885 129.242 20.5156 128.914 20.5156C128.565 20.5156 128.273 20.5885 128.039 20.7344C127.81 20.8802 127.63 21.0807 127.5 21.3359C127.375 21.5859 127.286 21.8672 127.234 22.1797C127.188 22.487 127.164 22.8099 127.164 23.1484V23.3984C127.164 23.7422 127.188 24.0703 127.234 24.3828C127.286 24.6953 127.375 24.9766 127.5 25.2266C127.63 25.4714 127.81 25.6667 128.039 25.8125C128.273 25.9583 128.57 26.0312 128.93 26.0312ZM137.805 19.0469V20.5312H132.961V19.0469H137.805ZM134.258 16.9688H136.328V25.0625C136.328 25.3125 136.362 25.5052 136.43 25.6406C136.497 25.776 136.599 25.8672 136.734 25.9141C136.87 25.9609 137.031 25.9844 137.219 25.9844C137.354 25.9844 137.479 25.9766 137.594 25.9609C137.708 25.9453 137.805 25.9297 137.883 25.9141L137.891 27.4609C137.719 27.5182 137.523 27.5651 137.305 27.6016C137.091 27.638 136.849 27.6562 136.578 27.6562C136.115 27.6562 135.708 27.5781 135.359 27.4219C135.01 27.2604 134.74 27.0026 134.547 26.6484C134.354 26.2891 134.258 25.8151 134.258 25.2266V16.9688Z" fill="#329141"/>
</svg>
