<svg width="188" height="44" viewBox="0 0 188 44" fill="none" xmlns="http://www.w3.org/2000/svg">
<rect width="188" height="44" rx="10" fill="#40894B" fill-opacity="0.1"/>
<path d="M34 18H20M20 22H29M26 26H20M30 26H36M33 23V29" stroke="#329141" stroke-width="2" stroke-linecap="round" stroke-linejoin="round"/>
<path d="M54.6094 17.8516L51.3672 27.5H49.0938L53.3438 16.125H54.7969L54.6094 17.8516ZM57.3203 27.5L54.0625 17.8516L53.8672 16.125H55.3281L59.6016 27.5H57.3203ZM57.1719 23.2734V24.9688H51.0703V23.2734H57.1719ZM65.6875 25.7031V15.5H67.7656V27.5H65.8906L65.6875 25.7031ZM60.2578 23.375V23.2109C60.2578 22.5651 60.3307 21.9792 60.4766 21.4531C60.6276 20.9219 60.8464 20.4661 61.1328 20.0859C61.4193 19.7057 61.7656 19.4115 62.1719 19.2031C62.5833 18.9948 63.0495 18.8906 63.5703 18.8906C64.0755 18.8906 64.5156 18.9922 64.8906 19.1953C65.2708 19.3984 65.5938 19.6875 65.8594 20.0625C66.1302 20.4375 66.3464 20.8828 66.5078 21.3984C66.6693 21.9089 66.7865 22.4714 66.8594 23.0859V23.5312C66.7865 24.1302 66.6693 24.6797 66.5078 25.1797C66.3464 25.6797 66.1302 26.1172 65.8594 26.4922C65.5938 26.862 65.2708 27.1484 64.8906 27.3516C64.5104 27.5547 64.0651 27.6562 63.5547 27.6562C63.0391 27.6562 62.5755 27.5495 62.1641 27.3359C61.7578 27.1224 61.4115 26.8229 61.125 26.4375C60.8438 26.0521 60.6276 25.599 60.4766 25.0781C60.3307 24.5573 60.2578 23.9896 60.2578 23.375ZM62.3281 23.2109V23.375C62.3281 23.7396 62.3594 24.0807 62.4219 24.3984C62.4844 24.7161 62.5859 24.9974 62.7266 25.2422C62.8672 25.4818 63.0469 25.6693 63.2656 25.8047C63.4896 25.9401 63.7604 26.0078 64.0781 26.0078C64.4844 26.0078 64.8177 25.9193 65.0781 25.7422C65.3438 25.5599 65.5495 25.3125 65.6953 25C65.8411 24.6823 65.9349 24.3255 65.9766 23.9297V22.7031C65.9557 22.3906 65.901 22.1016 65.8125 21.8359C65.7292 21.5703 65.6094 21.3411 65.4531 21.1484C65.3021 20.9557 65.1146 20.8047 64.8906 20.6953C64.6667 20.5859 64.401 20.5312 64.0938 20.5312C63.776 20.5312 63.5052 20.6016 63.2812 20.7422C63.0573 20.8776 62.875 21.0677 62.7344 21.3125C62.5938 21.5573 62.4896 21.8411 62.4219 22.1641C62.3594 22.487 62.3281 22.8359 62.3281 23.2109ZM74.7031 25.7031V15.5H76.7812V27.5H74.9062L74.7031 25.7031ZM69.2734 23.375V23.2109C69.2734 22.5651 69.3464 21.9792 69.4922 21.4531C69.6432 20.9219 69.862 20.4661 70.1484 20.0859C70.4349 19.7057 70.7812 19.4115 71.1875 19.2031C71.599 18.9948 72.0651 18.8906 72.5859 18.8906C73.0911 18.8906 73.5312 18.9922 73.9062 19.1953C74.2865 19.3984 74.6094 19.6875 74.875 20.0625C75.1458 20.4375 75.362 20.8828 75.5234 21.3984C75.6849 21.9089 75.8021 22.4714 75.875 23.0859V23.5312C75.8021 24.1302 75.6849 24.6797 75.5234 25.1797C75.362 25.6797 75.1458 26.1172 74.875 26.4922C74.6094 26.862 74.2865 27.1484 73.9062 27.3516C73.526 27.5547 73.0807 27.6562 72.5703 27.6562C72.0547 27.6562 71.5911 27.5495 71.1797 27.3359C70.7734 27.1224 70.4271 26.8229 70.1406 26.4375C69.8594 26.0521 69.6432 25.599 69.4922 25.0781C69.3464 24.5573 69.2734 23.9896 69.2734 23.375ZM71.3438 23.2109V23.375C71.3438 23.7396 71.375 24.0807 71.4375 24.3984C71.5 24.7161 71.6016 24.9974 71.7422 25.2422C71.8828 25.4818 72.0625 25.6693 72.2812 25.8047C72.5052 25.9401 72.776 26.0078 73.0938 26.0078C73.5 26.0078 73.8333 25.9193 74.0938 25.7422C74.3594 25.5599 74.5651 25.3125 74.7109 25C74.8568 24.6823 74.9505 24.3255 74.9922 23.9297V22.7031C74.9714 22.3906 74.9167 22.1016 74.8281 21.8359C74.7448 21.5703 74.625 21.3411 74.4688 21.1484C74.3177 20.9557 74.1302 20.8047 73.9062 20.6953C73.6823 20.5859 73.4167 20.5312 73.1094 20.5312C72.7917 20.5312 72.5208 20.6016 72.2969 20.7422C72.0729 20.8776 71.8906 21.0677 71.75 21.3125C71.6094 21.5573 71.5052 21.8411 71.4375 22.1641C71.375 22.487 71.3438 22.8359 71.3438 23.2109ZM84.6562 20.8516V27.5H82.5938V19.0469H84.5312L84.6562 20.8516ZM84.3281 22.9688H83.7188C83.724 22.3542 83.8073 21.7969 83.9688 21.2969C84.1302 20.7969 84.3568 20.3672 84.6484 20.0078C84.9453 19.6484 85.2969 19.3724 85.7031 19.1797C86.1094 18.987 86.5625 18.8906 87.0625 18.8906C87.4688 18.8906 87.8359 18.9479 88.1641 19.0625C88.4922 19.1771 88.7734 19.3594 89.0078 19.6094C89.2474 19.8594 89.4297 20.1875 89.5547 20.5938C89.6849 20.9948 89.75 21.4896 89.75 22.0781V27.5H87.6719V22.0625C87.6719 21.6771 87.6146 21.3724 87.5 21.1484C87.3906 20.9245 87.2292 20.7656 87.0156 20.6719C86.8073 20.5781 86.5495 20.5312 86.2422 20.5312C85.9245 20.5312 85.6458 20.5964 85.4062 20.7266C85.1719 20.8516 84.974 21.026 84.8125 21.25C84.6562 21.474 84.5365 21.7318 84.4531 22.0234C84.3698 22.3151 84.3281 22.6302 84.3281 22.9688ZM95.3672 27.6562C94.7266 27.6562 94.151 27.5521 93.6406 27.3438C93.1302 27.1354 92.6953 26.8464 92.3359 26.4766C91.9818 26.1016 91.7083 25.6667 91.5156 25.1719C91.3281 24.6719 91.2344 24.1354 91.2344 23.5625V23.25C91.2344 22.599 91.3281 22.0078 91.5156 21.4766C91.7031 20.9401 91.9688 20.4792 92.3125 20.0938C92.6562 19.7083 93.0677 19.4115 93.5469 19.2031C94.026 18.9948 94.5547 18.8906 95.1328 18.8906C95.7318 18.8906 96.2604 18.9922 96.7188 19.1953C97.1771 19.3932 97.5599 19.6745 97.8672 20.0391C98.1745 20.4036 98.4062 20.8411 98.5625 21.3516C98.7188 21.8568 98.7969 22.4167 98.7969 23.0312V23.8984H92.1719V22.4766H96.7656V22.3203C96.7552 21.9922 96.6927 21.6927 96.5781 21.4219C96.4635 21.1458 96.2865 20.9271 96.0469 20.7656C95.8073 20.599 95.4974 20.5156 95.1172 20.5156C94.8099 20.5156 94.5417 20.5833 94.3125 20.7188C94.0885 20.849 93.901 21.0365 93.75 21.2812C93.6042 21.5208 93.4948 21.8073 93.4219 22.1406C93.349 22.474 93.3125 22.8438 93.3125 23.25V23.5625C93.3125 23.9167 93.3594 24.2448 93.4531 24.5469C93.5521 24.849 93.6953 25.112 93.8828 25.3359C94.0755 25.5547 94.3047 25.7266 94.5703 25.8516C94.8411 25.9714 95.1484 26.0312 95.4922 26.0312C95.9245 26.0312 96.3151 25.9479 96.6641 25.7812C97.0182 25.6094 97.3255 25.3568 97.5859 25.0234L98.625 26.1016C98.4479 26.362 98.2083 26.612 97.9062 26.8516C97.6094 27.0911 97.25 27.2865 96.8281 27.4375C96.4062 27.5833 95.9193 27.6562 95.3672 27.6562ZM102.531 25.4688L104.383 19.0469H105.695L105.305 21.2656L103.438 27.5H102.305L102.531 25.4688ZM101.508 19.0469L102.898 25.4844L103.023 27.5H101.719L99.5 19.0469H101.508ZM107.414 25.3906L108.773 19.0469H110.773L108.57 27.5H107.266L107.414 25.3906ZM105.898 19.0469L107.734 25.4062L107.977 27.5H106.844L104.961 21.2656L104.578 19.0469H105.898ZM120.625 25.1875C120.625 25.0104 120.578 24.8516 120.484 24.7109C120.391 24.5703 120.214 24.4427 119.953 24.3281C119.698 24.2083 119.323 24.0964 118.828 23.9922C118.391 23.8984 117.987 23.7812 117.617 23.6406C117.247 23.5 116.93 23.3307 116.664 23.1328C116.398 22.9297 116.19 22.6927 116.039 22.4219C115.893 22.1458 115.82 21.8281 115.82 21.4688C115.82 21.1198 115.896 20.7917 116.047 20.4844C116.198 20.1719 116.417 19.8984 116.703 19.6641C116.99 19.4245 117.339 19.237 117.75 19.1016C118.161 18.9609 118.625 18.8906 119.141 18.8906C119.859 18.8906 120.477 19.0078 120.992 19.2422C121.513 19.4766 121.911 19.7995 122.188 20.2109C122.464 20.6172 122.602 21.0755 122.602 21.5859H120.539C120.539 21.362 120.487 21.1589 120.383 20.9766C120.284 20.7943 120.13 20.6484 119.922 20.5391C119.714 20.4245 119.451 20.3672 119.133 20.3672C118.846 20.3672 118.604 20.4141 118.406 20.5078C118.214 20.6016 118.068 20.724 117.969 20.875C117.87 21.026 117.82 21.1927 117.82 21.375C117.82 21.5104 117.846 21.6328 117.898 21.7422C117.956 21.8464 118.047 21.9427 118.172 22.0312C118.297 22.1198 118.466 22.2005 118.68 22.2734C118.898 22.3464 119.167 22.4167 119.484 22.4844C120.115 22.6094 120.664 22.776 121.133 22.9844C121.607 23.1875 121.977 23.4583 122.242 23.7969C122.508 24.1354 122.641 24.5677 122.641 25.0938C122.641 25.4688 122.56 25.8125 122.398 26.125C122.237 26.4323 122.003 26.7005 121.695 26.9297C121.388 27.1589 121.021 27.3385 120.594 27.4688C120.167 27.5938 119.685 27.6562 119.148 27.6562C118.372 27.6562 117.716 27.5182 117.18 27.2422C116.643 26.9609 116.237 26.6068 115.961 26.1797C115.685 25.7474 115.547 25.2995 115.547 24.8359H117.523C117.539 25.1641 117.628 25.4271 117.789 25.625C117.951 25.8229 118.154 25.9661 118.398 26.0547C118.648 26.138 118.911 26.1797 119.188 26.1797C119.5 26.1797 119.763 26.138 119.977 26.0547C120.19 25.9661 120.352 25.849 120.461 25.7031C120.57 25.5521 120.625 25.3802 120.625 25.1875ZM129.242 25.4922V19.0469H131.32V27.5H129.367L129.242 25.4922ZM129.508 23.7422L130.148 23.7266C130.148 24.2943 130.086 24.8177 129.961 25.2969C129.836 25.776 129.641 26.1927 129.375 26.5469C129.115 26.8958 128.784 27.1693 128.383 27.3672C127.982 27.5599 127.508 27.6562 126.961 27.6562C126.544 27.6562 126.164 27.599 125.82 27.4844C125.477 27.3646 125.18 27.1797 124.93 26.9297C124.685 26.6745 124.495 26.349 124.359 25.9531C124.224 25.5521 124.156 25.0703 124.156 24.5078V19.0469H126.219V24.5234C126.219 24.8047 126.25 25.0391 126.312 25.2266C126.38 25.4141 126.471 25.5677 126.586 25.6875C126.706 25.8021 126.844 25.8854 127 25.9375C127.161 25.9844 127.333 26.0078 127.516 26.0078C128.016 26.0078 128.409 25.9089 128.695 25.7109C128.987 25.5078 129.195 25.237 129.32 24.8984C129.445 24.5547 129.508 24.1693 129.508 23.7422ZM135.211 20.6719V30.75H133.141V19.0469H135.055L135.211 20.6719ZM140.641 23.1875V23.3516C140.641 23.9661 140.568 24.5365 140.422 25.0625C140.281 25.5833 140.073 26.0391 139.797 26.4297C139.521 26.8151 139.177 27.1172 138.766 27.3359C138.359 27.5495 137.891 27.6562 137.359 27.6562C136.839 27.6562 136.385 27.5573 136 27.3594C135.615 27.1562 135.289 26.8698 135.023 26.5C134.758 26.1302 134.544 25.7005 134.383 25.2109C134.227 24.7161 134.109 24.1771 134.031 23.5938V23.0703C134.109 22.4505 134.227 21.888 134.383 21.3828C134.544 20.8724 134.758 20.4323 135.023 20.0625C135.289 19.6875 135.612 19.3984 135.992 19.1953C136.378 18.9922 136.828 18.8906 137.344 18.8906C137.88 18.8906 138.352 18.9922 138.758 19.1953C139.169 19.3984 139.516 19.6901 139.797 20.0703C140.078 20.4505 140.289 20.9036 140.43 21.4297C140.57 21.9557 140.641 22.5417 140.641 23.1875ZM138.57 23.3516V23.1875C138.57 22.8125 138.536 22.4661 138.469 22.1484C138.401 21.8255 138.297 21.5443 138.156 21.3047C138.016 21.0599 137.833 20.8698 137.609 20.7344C137.385 20.599 137.115 20.5312 136.797 20.5312C136.479 20.5312 136.206 20.5833 135.977 20.6875C135.747 20.7917 135.56 20.9401 135.414 21.1328C135.268 21.3255 135.154 21.5547 135.07 21.8203C134.992 22.0807 134.94 22.3698 134.914 22.6875V23.9844C134.961 24.3698 135.052 24.7161 135.188 25.0234C135.323 25.3307 135.521 25.5755 135.781 25.7578C136.047 25.9401 136.391 26.0312 136.812 26.0312C137.13 26.0312 137.401 25.9609 137.625 25.8203C137.849 25.6797 138.031 25.487 138.172 25.2422C138.312 24.9922 138.414 24.7057 138.477 24.3828C138.539 24.0599 138.57 23.7161 138.57 23.3516ZM144.211 20.6719V30.75H142.141V19.0469H144.055L144.211 20.6719ZM149.641 23.1875V23.3516C149.641 23.9661 149.568 24.5365 149.422 25.0625C149.281 25.5833 149.073 26.0391 148.797 26.4297C148.521 26.8151 148.177 27.1172 147.766 27.3359C147.359 27.5495 146.891 27.6562 146.359 27.6562C145.839 27.6562 145.385 27.5573 145 27.3594C144.615 27.1562 144.289 26.8698 144.023 26.5C143.758 26.1302 143.544 25.7005 143.383 25.2109C143.227 24.7161 143.109 24.1771 143.031 23.5938V23.0703C143.109 22.4505 143.227 21.888 143.383 21.3828C143.544 20.8724 143.758 20.4323 144.023 20.0625C144.289 19.6875 144.612 19.3984 144.992 19.1953C145.378 18.9922 145.828 18.8906 146.344 18.8906C146.88 18.8906 147.352 18.9922 147.758 19.1953C148.169 19.3984 148.516 19.6901 148.797 20.0703C149.078 20.4505 149.289 20.9036 149.43 21.4297C149.57 21.9557 149.641 22.5417 149.641 23.1875ZM147.57 23.3516V23.1875C147.57 22.8125 147.536 22.4661 147.469 22.1484C147.401 21.8255 147.297 21.5443 147.156 21.3047C147.016 21.0599 146.833 20.8698 146.609 20.7344C146.385 20.599 146.115 20.5312 145.797 20.5312C145.479 20.5312 145.206 20.5833 144.977 20.6875C144.747 20.7917 144.56 20.9401 144.414 21.1328C144.268 21.3255 144.154 21.5547 144.07 21.8203C143.992 22.0807 143.94 22.3698 143.914 22.6875V23.9844C143.961 24.3698 144.052 24.7161 144.188 25.0234C144.323 25.3307 144.521 25.5755 144.781 25.7578C145.047 25.9401 145.391 26.0312 145.812 26.0312C146.13 26.0312 146.401 25.9609 146.625 25.8203C146.849 25.6797 147.031 25.487 147.172 25.2422C147.312 24.9922 147.414 24.7057 147.477 24.3828C147.539 24.0599 147.57 23.7161 147.57 23.3516ZM153.336 15.5V27.5H151.266V15.5H153.336ZM157.492 19.0469V27.5H155.422V19.0469H157.492ZM155.281 16.8359C155.281 16.5286 155.385 16.2734 155.594 16.0703C155.807 15.8672 156.094 15.7656 156.453 15.7656C156.812 15.7656 157.096 15.8672 157.305 16.0703C157.518 16.2734 157.625 16.5286 157.625 16.8359C157.625 17.138 157.518 17.3906 157.305 17.5938C157.096 17.7969 156.812 17.8984 156.453 17.8984C156.094 17.8984 155.807 17.7969 155.594 17.5938C155.385 17.3906 155.281 17.138 155.281 16.8359ZM163.258 27.6562C162.617 27.6562 162.042 27.5521 161.531 27.3438C161.021 27.1354 160.586 26.8464 160.227 26.4766C159.872 26.1016 159.599 25.6667 159.406 25.1719C159.219 24.6719 159.125 24.1354 159.125 23.5625V23.25C159.125 22.599 159.219 22.0078 159.406 21.4766C159.594 20.9401 159.859 20.4792 160.203 20.0938C160.547 19.7083 160.958 19.4115 161.438 19.2031C161.917 18.9948 162.445 18.8906 163.023 18.8906C163.622 18.8906 164.151 18.9922 164.609 19.1953C165.068 19.3932 165.451 19.6745 165.758 20.0391C166.065 20.4036 166.297 20.8411 166.453 21.3516C166.609 21.8568 166.688 22.4167 166.688 23.0312V23.8984H160.062V22.4766H164.656V22.3203C164.646 21.9922 164.583 21.6927 164.469 21.4219C164.354 21.1458 164.177 20.9271 163.938 20.7656C163.698 20.599 163.388 20.5156 163.008 20.5156C162.701 20.5156 162.432 20.5833 162.203 20.7188C161.979 20.849 161.792 21.0365 161.641 21.2812C161.495 21.5208 161.385 21.8073 161.312 22.1406C161.24 22.474 161.203 22.8438 161.203 23.25V23.5625C161.203 23.9167 161.25 24.2448 161.344 24.5469C161.443 24.849 161.586 25.112 161.773 25.3359C161.966 25.5547 162.195 25.7266 162.461 25.8516C162.732 25.9714 163.039 26.0312 163.383 26.0312C163.815 26.0312 164.206 25.9479 164.555 25.7812C164.909 25.6094 165.216 25.3568 165.477 25.0234L166.516 26.1016C166.339 26.362 166.099 26.612 165.797 26.8516C165.5 27.0911 165.141 27.2865 164.719 27.4375C164.297 27.5833 163.81 27.6562 163.258 27.6562ZM170.133 20.7734V27.5H168.07V19.0469H170.023L170.133 20.7734ZM172.703 18.9922L172.672 20.9141C172.557 20.8932 172.427 20.8776 172.281 20.8672C172.141 20.8568 172.008 20.8516 171.883 20.8516C171.565 20.8516 171.286 20.8958 171.047 20.9844C170.807 21.0677 170.607 21.1901 170.445 21.3516C170.289 21.513 170.169 21.7109 170.086 21.9453C170.003 22.1745 169.956 22.4349 169.945 22.7266L169.5 22.6719C169.5 22.1354 169.555 21.638 169.664 21.1797C169.773 20.7214 169.932 20.3203 170.141 19.9766C170.349 19.6328 170.609 19.3672 170.922 19.1797C171.24 18.987 171.604 18.8906 172.016 18.8906C172.13 18.8906 172.253 18.901 172.383 18.9219C172.518 18.9375 172.625 18.9609 172.703 18.9922Z" fill="#329141"/>
</svg>
