<svg width="204" height="47" viewBox="0 0 204 47" fill="none" xmlns="http://www.w3.org/2000/svg">
<rect width="204" height="47" rx="12" fill="#D72000" fill-opacity="0.1"/>
<path d="M33.4994 26.5L27.5 20.5M27.5006 26.5L33.5 20.5" stroke="#D72000" stroke-width="1.5" stroke-linecap="round" stroke-linejoin="round"/>
<path d="M40.5 23.5C40.5 17.9771 36.0228 13.5 30.5 13.5C24.9771 13.5 20.5 17.9771 20.5 23.5C20.5 29.0228 24.9771 33.5 30.5 33.5C36.0228 33.5 40.5 29.0228 40.5 23.5Z" stroke="#D72000" stroke-width="1.5"/>
<path d="M58.3594 29.6875C55.1641 29.6875 53.1328 27.4375 53.1328 23.8594V23.8516C53.1328 20.2734 55.1641 18.0391 58.3594 18.0391C60.8438 18.0391 62.7109 19.5703 63.0625 21.7969L63.0781 21.8672H61.3438L61.2969 21.7109C60.9219 20.3906 59.875 19.5859 58.3594 19.5859C56.2656 19.5859 54.9219 21.2422 54.9219 23.8516V23.8594C54.9219 26.4688 56.2734 28.1406 58.3594 28.1406C59.8594 28.1406 60.8984 27.3594 61.3203 25.9297L61.3438 25.8594H63.0781L63.0703 25.9375C62.7188 28.1797 60.8516 29.6875 58.3594 29.6875ZM67.0594 29.6484C65.4187 29.6484 64.3172 28.6406 64.3172 27.1641V27.1484C64.3172 25.7188 65.4266 24.8438 67.3719 24.7266L69.6062 24.5938V23.9766C69.6062 23.0703 69.0203 22.5234 67.9734 22.5234C66.9969 22.5234 66.3953 22.9844 66.2547 23.6406L66.2391 23.7109H64.6453L64.6531 23.625C64.7703 22.2109 65.9969 21.125 68.0203 21.125C70.0281 21.125 71.3016 22.1875 71.3016 23.8359V29.5H69.6062V28.2031H69.575C69.0984 29.0859 68.1453 29.6484 67.0594 29.6484ZM66.0203 27.125C66.0203 27.8438 66.6141 28.2969 67.5203 28.2969C68.7078 28.2969 69.6062 27.4922 69.6062 26.4219V25.7812L67.5984 25.9062C66.5828 25.9688 66.0203 26.4141 66.0203 27.1094V27.125ZM73.1422 29.5V21.2812H74.8297V22.5234H74.8687C75.2984 21.6875 76.1422 21.125 77.3844 21.125C79.1891 21.125 80.2281 22.2891 80.2281 24.1797V29.5H78.5328V24.5C78.5328 23.2656 77.9547 22.5703 76.7828 22.5703C75.5953 22.5703 74.8297 23.4297 74.8297 24.7109V29.5H73.1422ZM85.5922 29.6641C83.1938 29.6641 81.6938 28.0156 81.6938 25.3828V25.375C81.6938 22.7734 83.225 21.125 85.5688 21.125C87.6859 21.125 88.9672 22.4844 89.1078 24.0312L89.1156 24.0859H87.5063L87.4906 24.0234C87.3109 23.2188 86.6859 22.5391 85.5844 22.5391C84.2719 22.5391 83.4203 23.6328 83.4203 25.3906V25.3984C83.4203 27.1953 84.2875 28.25 85.5922 28.25C86.6313 28.25 87.2953 27.6484 87.4984 26.7578L87.5063 26.6953H89.1313L89.1234 26.75C88.9438 28.3984 87.5688 29.6641 85.5922 29.6641ZM94.0344 29.6641C91.6203 29.6641 90.1594 28.0156 90.1594 25.4219V25.4141C90.1594 22.8438 91.6437 21.125 93.9484 21.125C96.2531 21.125 97.6672 22.7812 97.6672 25.25V25.8203H91.8469C91.8781 27.375 92.7297 28.2812 94.0734 28.2812C95.0734 28.2812 95.7375 27.7656 95.9484 27.1484L95.9719 27.0859H97.5734L97.5578 27.1719C97.2922 28.4766 96.0266 29.6641 94.0344 29.6641ZM93.9562 22.5078C92.8625 22.5078 92.0187 23.25 91.8703 24.625H95.9953C95.8547 23.2031 95.0578 22.5078 93.9562 22.5078ZM99.2422 29.5V18.2266H100.93V29.5H99.2422ZM109.197 29.6641C107.572 29.6641 106.791 28.9766 106.791 27.3359V22.625H105.611V21.2812H106.791V19.1406H108.517V21.2812H110.056V22.625H108.517V27.2344C108.517 28.0703 108.892 28.3203 109.603 28.3203C109.783 28.3203 109.931 28.3047 110.056 28.2891V29.5938C109.861 29.625 109.541 29.6641 109.197 29.6641ZM111.655 29.5V21.2812H113.342V22.6875H113.381C113.647 21.7266 114.334 21.125 115.272 21.125C115.514 21.125 115.725 21.1641 115.858 21.1875V22.7578C115.725 22.7031 115.428 22.6641 115.1 22.6641C114.014 22.6641 113.342 23.375 113.342 24.6016V29.5H111.655ZM119.347 29.6484C117.706 29.6484 116.605 28.6406 116.605 27.1641V27.1484C116.605 25.7188 117.714 24.8438 119.659 24.7266L121.894 24.5938V23.9766C121.894 23.0703 121.308 22.5234 120.261 22.5234C119.284 22.5234 118.683 22.9844 118.542 23.6406L118.527 23.7109H116.933L116.941 23.625C117.058 22.2109 118.284 21.125 120.308 21.125C122.316 21.125 123.589 22.1875 123.589 23.8359V29.5H121.894V28.2031H121.862C121.386 29.0859 120.433 29.6484 119.347 29.6484ZM118.308 27.125C118.308 27.8438 118.902 28.2969 119.808 28.2969C120.995 28.2969 121.894 27.4922 121.894 26.4219V25.7812L119.886 25.9062C118.87 25.9688 118.308 26.4141 118.308 27.1094V27.125ZM125.43 29.5V21.2812H127.117V22.5234H127.156C127.586 21.6875 128.43 21.125 129.672 21.125C131.477 21.125 132.516 22.2891 132.516 24.1797V29.5H130.82V24.5C130.82 23.2656 130.242 22.5703 129.07 22.5703C127.883 22.5703 127.117 23.4297 127.117 24.7109V29.5H125.43ZM137.427 29.6641C135.372 29.6641 134.169 28.6484 133.997 27.1484L133.989 27.0781H135.661L135.677 27.1562C135.833 27.9141 136.395 28.3594 137.434 28.3594C138.45 28.3594 139.059 27.9375 139.059 27.2734V27.2656C139.059 26.7344 138.762 26.4297 137.88 26.2188L136.536 25.9141C134.973 25.5547 134.2 24.8047 134.2 23.6094V23.6016C134.2 22.1328 135.481 21.125 137.372 21.125C139.317 21.125 140.489 22.2109 140.575 23.6094L140.583 23.7031H138.997L138.989 23.6484C138.887 22.9297 138.325 22.4297 137.372 22.4297C136.466 22.4297 135.895 22.8594 135.895 23.5156V23.5234C135.895 24.0312 136.231 24.375 137.114 24.5859L138.45 24.8906C140.13 25.2812 140.77 25.9453 140.77 27.125V27.1328C140.77 28.6328 139.364 29.6641 137.427 29.6641ZM144.697 29.6484C143.056 29.6484 141.955 28.6406 141.955 27.1641V27.1484C141.955 25.7188 143.064 24.8438 145.009 24.7266L147.244 24.5938V23.9766C147.244 23.0703 146.658 22.5234 145.611 22.5234C144.634 22.5234 144.033 22.9844 143.892 23.6406L143.877 23.7109H142.283L142.291 23.625C142.408 22.2109 143.634 21.125 145.658 21.125C147.666 21.125 148.939 22.1875 148.939 23.8359V29.5H147.244V28.2031H147.213C146.736 29.0859 145.783 29.6484 144.697 29.6484ZM143.658 27.125C143.658 27.8438 144.252 28.2969 145.158 28.2969C146.345 28.2969 147.244 27.4922 147.244 26.4219V25.7812L145.236 25.9062C144.22 25.9688 143.658 26.4141 143.658 27.1094V27.125ZM154.311 29.6641C151.912 29.6641 150.412 28.0156 150.412 25.3828V25.375C150.412 22.7734 151.944 21.125 154.287 21.125C156.405 21.125 157.686 22.4844 157.827 24.0312L157.834 24.0859H156.225L156.209 24.0234C156.03 23.2188 155.405 22.5391 154.303 22.5391C152.991 22.5391 152.139 23.6328 152.139 25.3906V25.3984C152.139 27.1953 153.006 28.25 154.311 28.25C155.35 28.25 156.014 27.6484 156.217 26.7578L156.225 26.6953H157.85L157.842 26.75C157.662 28.3984 156.287 29.6641 154.311 29.6641ZM162.128 29.6641C160.503 29.6641 159.722 28.9766 159.722 27.3359V22.625H158.542V21.2812H159.722V19.1406H161.448V21.2812H162.988V22.625H161.448V27.2344C161.448 28.0703 161.823 28.3203 162.534 28.3203C162.714 28.3203 162.863 28.3047 162.988 28.2891V29.5938C162.792 29.625 162.472 29.6641 162.128 29.6641ZM165.5 20.0156C164.953 20.0156 164.516 19.5781 164.516 19.0469C164.516 18.5078 164.953 18.0703 165.5 18.0703C166.055 18.0703 166.484 18.5078 166.484 19.0469C166.484 19.5781 166.055 20.0156 165.5 20.0156ZM164.656 29.5V21.2812H166.344V29.5H164.656ZM171.817 29.6641C169.458 29.6641 167.919 28.0312 167.919 25.3906V25.375C167.919 22.75 169.473 21.125 171.809 21.125C174.153 21.125 175.716 22.7422 175.716 25.375V25.3906C175.716 28.0391 174.169 29.6641 171.817 29.6641ZM171.825 28.25C173.145 28.25 173.989 27.2031 173.989 25.3906V25.375C173.989 23.5781 173.13 22.5391 171.809 22.5391C170.512 22.5391 169.645 23.5781 169.645 25.375V25.3906C169.645 27.2109 170.505 28.25 171.825 28.25ZM177.22 29.5V21.2812H178.908V22.5234H178.947C179.377 21.6875 180.22 21.125 181.463 21.125C183.267 21.125 184.306 22.2891 184.306 24.1797V29.5H182.611V24.5C182.611 23.2656 182.033 22.5703 180.861 22.5703C179.673 22.5703 178.908 23.4297 178.908 24.7109V29.5H177.22Z" fill="#D72000"/>
</svg>
