<svg width="114" height="34" viewBox="0 0 114 34" fill="none" xmlns="http://www.w3.org/2000/svg">
<rect width="114" height="34" rx="10" fill="#D72000" fill-opacity="0.1"/>
<rect x="0.5" y="0.5" width="113" height="33" rx="9.5" stroke="#D72000" stroke-opacity="0.1"/>
<circle cx="18.5" cy="17" r="3.5" fill="#D72000"/>
<path d="M37.8066 18.1934H39.418C39.375 18.7637 39.2168 19.2695 38.9434 19.7109C38.6699 20.1484 38.2891 20.4922 37.8008 20.7422C37.3125 20.9922 36.7207 21.1172 36.0254 21.1172C35.4902 21.1172 35.0078 21.0234 34.5781 20.8359C34.1523 20.6445 33.7871 20.373 33.4824 20.0215C33.1816 19.666 32.9512 19.2402 32.791 18.7441C32.6309 18.2441 32.5508 17.6836 32.5508 17.0625V16.4121C32.5508 15.791 32.6328 15.2305 32.7969 14.7305C32.9609 14.2305 33.1953 13.8047 33.5 13.4531C33.8086 13.0977 34.1777 12.8242 34.6074 12.6328C35.041 12.4414 35.5254 12.3457 36.0605 12.3457C36.7559 12.3457 37.3438 12.4746 37.8242 12.7324C38.3047 12.9863 38.6777 13.3359 38.9434 13.7812C39.209 14.2266 39.3691 14.7383 39.4238 15.3164H37.8125C37.7812 14.957 37.7031 14.6523 37.5781 14.4023C37.457 14.1523 37.2734 13.9629 37.0273 13.834C36.7852 13.7012 36.4629 13.6348 36.0605 13.6348C35.748 13.6348 35.4727 13.6934 35.2344 13.8105C35 13.9277 34.8047 14.1035 34.6484 14.3379C34.4922 14.5684 34.375 14.8574 34.2969 15.2051C34.2188 15.5488 34.1797 15.9473 34.1797 16.4004V17.0625C34.1797 17.4961 34.2148 17.8848 34.2852 18.2285C34.3555 18.5723 34.4648 18.8633 34.6133 19.1016C34.7617 19.3398 34.9531 19.5215 35.1875 19.6465C35.4219 19.7715 35.7012 19.834 36.0254 19.834C36.4199 19.834 36.7402 19.7715 36.9863 19.6465C37.2363 19.5215 37.4258 19.3379 37.5547 19.0957C37.6875 18.8535 37.7715 18.5527 37.8066 18.1934ZM44.0586 13.7637L41.627 21H39.9219L43.1094 12.4688H44.1992L44.0586 13.7637ZM46.0918 21L43.6484 13.7637L43.502 12.4688H44.5977L47.8027 21H46.0918ZM45.9805 17.8301V19.1016H41.4043V17.8301H45.9805ZM55.5371 12.4688V21H53.9199L50.293 15.082V21H48.6816V12.4688H50.293L53.9316 18.3926V12.4688H55.5371ZM62.1699 18.1934H63.7812C63.7383 18.7637 63.5801 19.2695 63.3066 19.7109C63.0332 20.1484 62.6523 20.4922 62.1641 20.7422C61.6758 20.9922 61.084 21.1172 60.3887 21.1172C59.8535 21.1172 59.3711 21.0234 58.9414 20.8359C58.5156 20.6445 58.1504 20.373 57.8457 20.0215C57.5449 19.666 57.3145 19.2402 57.1543 18.7441C56.9941 18.2441 56.9141 17.6836 56.9141 17.0625V16.4121C56.9141 15.791 56.9961 15.2305 57.1602 14.7305C57.3242 14.2305 57.5586 13.8047 57.8633 13.4531C58.1719 13.0977 58.541 12.8242 58.9707 12.6328C59.4043 12.4414 59.8887 12.3457 60.4238 12.3457C61.1191 12.3457 61.707 12.4746 62.1875 12.7324C62.668 12.9863 63.041 13.3359 63.3066 13.7812C63.5723 14.2266 63.7324 14.7383 63.7871 15.3164H62.1758C62.1445 14.957 62.0664 14.6523 61.9414 14.4023C61.8203 14.1523 61.6367 13.9629 61.3906 13.834C61.1484 13.7012 60.8262 13.6348 60.4238 13.6348C60.1113 13.6348 59.8359 13.6934 59.5977 13.8105C59.3633 13.9277 59.168 14.1035 59.0117 14.3379C58.8555 14.5684 58.7383 14.8574 58.6602 15.2051C58.582 15.5488 58.543 15.9473 58.543 16.4004V17.0625C58.543 17.4961 58.5781 17.8848 58.6484 18.2285C58.7188 18.5723 58.8281 18.8633 58.9766 19.1016C59.125 19.3398 59.3164 19.5215 59.5508 19.6465C59.7852 19.7715 60.0645 19.834 60.3887 19.834C60.7832 19.834 61.1035 19.7715 61.3496 19.6465C61.5996 19.5215 61.7891 19.3379 61.918 19.0957C62.0508 18.8535 62.1348 18.5527 62.1699 18.1934ZM70.6836 19.7344V21H66.1484V19.7344H70.6836ZM66.6406 12.4688V21H65.0293V12.4688H66.6406ZM70.0918 15.9902V17.2266H66.1484V15.9902H70.0918ZM70.666 12.4688V13.7402H66.1484V12.4688H70.666ZM77.2168 19.7344V21H72.9277V19.7344H77.2168ZM73.4141 12.4688V21H71.8027V12.4688H73.4141ZM83.709 19.7344V21H79.4199V19.7344H83.709ZM79.9062 12.4688V21H78.2949V12.4688H79.9062ZM90.4414 19.7344V21H85.9062V19.7344H90.4414ZM86.3984 12.4688V21H84.7871V12.4688H86.3984ZM89.8496 15.9902V17.2266H85.9062V15.9902H89.8496ZM90.4238 12.4688V13.7402H85.9062V12.4688H90.4238ZM94.1094 21H92.2695L92.2812 19.7344H94.1094C94.6055 19.7344 95.0215 19.625 95.3574 19.4062C95.6934 19.1836 95.9473 18.8652 96.1191 18.4512C96.291 18.0332 96.377 17.5332 96.377 16.9512V16.5117C96.377 16.0625 96.3281 15.666 96.2305 15.3223C96.1328 14.9785 95.9883 14.6895 95.7969 14.4551C95.6094 14.2207 95.377 14.043 95.0996 13.9219C94.8223 13.8008 94.5039 13.7402 94.1445 13.7402H92.2344V12.4688H94.1445C94.7148 12.4688 95.2344 12.5645 95.7031 12.7559C96.1758 12.9473 96.584 13.2227 96.9277 13.582C97.2754 13.9375 97.541 14.3633 97.7246 14.8594C97.9121 15.3555 98.0059 15.9102 98.0059 16.5234V16.9512C98.0059 17.5605 97.9121 18.1152 97.7246 18.6152C97.541 19.1113 97.2754 19.5371 96.9277 19.8926C96.584 20.248 96.1738 20.5215 95.6973 20.7129C95.2207 20.9043 94.6914 21 94.1094 21ZM93.1719 12.4688V21H91.5605V12.4688H93.1719Z" fill="#D72000"/>
</svg>
