<svg width="130" height="50" viewBox="0 0 130 50" fill="none" xmlns="http://www.w3.org/2000/svg">
<g filter="url(#filter0_d_10_1639)">
<rect x="5" y="5" width="120" height="40" rx="10" fill="white" shape-rendering="crispEdges"/>
<rect x="5.5" y="5.5" width="119" height="39" rx="9.5" stroke="#304C57" stroke-opacity="0.2" shape-rendering="crispEdges"/>
<path d="M28.1875 26.8828H29.6875C29.6094 27.6016 29.4036 28.2448 29.0703 28.8125C28.737 29.3802 28.2656 29.8307 27.6562 30.1641C27.0469 30.4922 26.2865 30.6562 25.375 30.6562C24.7083 30.6562 24.1016 30.5312 23.5547 30.2812C23.013 30.0312 22.5469 29.6771 22.1562 29.2188C21.7656 28.7552 21.4635 28.2005 21.25 27.5547C21.0417 26.9036 20.9375 26.1797 20.9375 25.3828V24.25C20.9375 23.4531 21.0417 22.7318 21.25 22.0859C21.4635 21.4349 21.7682 20.8776 22.1641 20.4141C22.5651 19.9505 23.0469 19.5938 23.6094 19.3438C24.1719 19.0938 24.8047 18.9688 25.5078 18.9688C26.3672 18.9688 27.0938 19.1302 27.6875 19.4531C28.2812 19.776 28.7422 20.224 29.0703 20.7969C29.4036 21.3646 29.6094 22.0234 29.6875 22.7734H28.1875C28.1146 22.2422 27.9792 21.7865 27.7812 21.4062C27.5833 21.0208 27.3021 20.724 26.9375 20.5156C26.5729 20.3073 26.0964 20.2031 25.5078 20.2031C25.0026 20.2031 24.5573 20.2995 24.1719 20.4922C23.7917 20.6849 23.4714 20.9583 23.2109 21.3125C22.9557 21.6667 22.763 22.0911 22.6328 22.5859C22.5026 23.0807 22.4375 23.6302 22.4375 24.2344V25.3828C22.4375 25.9401 22.4948 26.4635 22.6094 26.9531C22.7292 27.4427 22.9089 27.8724 23.1484 28.2422C23.388 28.612 23.6927 28.9036 24.0625 29.1172C24.4323 29.3255 24.8698 29.4297 25.375 29.4297C26.0156 29.4297 26.526 29.3281 26.9062 29.125C27.2865 28.9219 27.5729 28.6302 27.7656 28.25C27.9635 27.8698 28.1042 27.4141 28.1875 26.8828ZM33.0938 18.5V30.5H31.6406V18.5H33.0938ZM38.9219 30.6562C38.3333 30.6562 37.7995 30.5573 37.3203 30.3594C36.8464 30.1562 36.4375 29.8724 36.0938 29.5078C35.7552 29.1432 35.4948 28.7109 35.3125 28.2109C35.1302 27.7109 35.0391 27.1641 35.0391 26.5703V26.2422C35.0391 25.5547 35.1406 24.9427 35.3438 24.4062C35.5469 23.8646 35.8229 23.4062 36.1719 23.0312C36.5208 22.6562 36.9167 22.3724 37.3594 22.1797C37.8021 21.987 38.2604 21.8906 38.7344 21.8906C39.3385 21.8906 39.8594 21.9948 40.2969 22.2031C40.7396 22.4115 41.1016 22.7031 41.3828 23.0781C41.6641 23.4479 41.8724 23.8854 42.0078 24.3906C42.1432 24.8906 42.2109 25.4375 42.2109 26.0312V26.6797H35.8984V25.5H40.7656V25.3906C40.7448 25.0156 40.6667 24.651 40.5312 24.2969C40.401 23.9427 40.1927 23.651 39.9062 23.4219C39.6198 23.1927 39.2292 23.0781 38.7344 23.0781C38.4062 23.0781 38.1042 23.1484 37.8281 23.2891C37.5521 23.4245 37.3151 23.6276 37.1172 23.8984C36.9193 24.1693 36.7656 24.5 36.6562 24.8906C36.5469 25.2812 36.4922 25.7318 36.4922 26.2422V26.5703C36.4922 26.9714 36.5469 27.349 36.6562 27.7031C36.7708 28.0521 36.9349 28.3594 37.1484 28.625C37.3672 28.8906 37.6302 29.099 37.9375 29.25C38.25 29.401 38.6042 29.4766 39 29.4766C39.5104 29.4766 39.9427 29.3724 40.2969 29.1641C40.651 28.9557 40.9609 28.6771 41.2266 28.3281L42.1016 29.0234C41.9193 29.2995 41.6875 29.5625 41.4062 29.8125C41.125 30.0625 40.7786 30.2656 40.3672 30.4219C39.9609 30.5781 39.4792 30.6562 38.9219 30.6562ZM48.8828 29.0547V24.7031C48.8828 24.3698 48.8151 24.0807 48.6797 23.8359C48.5495 23.5859 48.3516 23.3932 48.0859 23.2578C47.8203 23.1224 47.4922 23.0547 47.1016 23.0547C46.737 23.0547 46.4167 23.1172 46.1406 23.2422C45.8698 23.3672 45.6562 23.5312 45.5 23.7344C45.349 23.9375 45.2734 24.1562 45.2734 24.3906H43.8281C43.8281 24.0885 43.9062 23.7891 44.0625 23.4922C44.2188 23.1953 44.4427 22.9271 44.7344 22.6875C45.0312 22.4427 45.3854 22.25 45.7969 22.1094C46.2135 21.9635 46.6771 21.8906 47.1875 21.8906C47.8021 21.8906 48.3438 21.9948 48.8125 22.2031C49.2865 22.4115 49.6562 22.7266 49.9219 23.1484C50.1927 23.5651 50.3281 24.0885 50.3281 24.7188V28.6562C50.3281 28.9375 50.3516 29.237 50.3984 29.5547C50.4505 29.8724 50.526 30.1458 50.625 30.375V30.5H49.1172C49.0443 30.3333 48.987 30.112 48.9453 29.8359C48.9036 29.5547 48.8828 29.2943 48.8828 29.0547ZM49.1328 25.375L49.1484 26.3906H47.6875C47.276 26.3906 46.9089 26.4245 46.5859 26.4922C46.263 26.5547 45.9922 26.651 45.7734 26.7812C45.5547 26.9115 45.388 27.0755 45.2734 27.2734C45.1589 27.4661 45.1016 27.6927 45.1016 27.9531C45.1016 28.2188 45.1615 28.4609 45.2812 28.6797C45.401 28.8984 45.5807 29.0729 45.8203 29.2031C46.0651 29.3281 46.3646 29.3906 46.7188 29.3906C47.1615 29.3906 47.5521 29.2969 47.8906 29.1094C48.2292 28.9219 48.4974 28.6927 48.6953 28.4219C48.8984 28.151 49.0078 27.888 49.0234 27.6328L49.6406 28.3281C49.6042 28.5469 49.5052 28.7891 49.3438 29.0547C49.1823 29.3203 48.9661 29.5755 48.6953 29.8203C48.4297 30.0599 48.112 30.2604 47.7422 30.4219C47.3776 30.5781 46.9661 30.6562 46.5078 30.6562C45.9349 30.6562 45.4323 30.5443 45 30.3203C44.5729 30.0964 44.2396 29.7969 44 29.4219C43.7656 29.0417 43.6484 28.6172 43.6484 28.1484C43.6484 27.6953 43.737 27.2969 43.9141 26.9531C44.0911 26.6042 44.3464 26.3151 44.6797 26.0859C45.013 25.8516 45.4141 25.6745 45.8828 25.5547C46.3516 25.4349 46.875 25.375 47.4531 25.375H49.1328ZM54.0469 23.375V30.5H52.6016V22.0469H54.0078L54.0469 23.375ZM56.6875 22L56.6797 23.3438C56.5599 23.3177 56.4453 23.3021 56.3359 23.2969C56.2318 23.2865 56.112 23.2812 55.9766 23.2812C55.6432 23.2812 55.349 23.3333 55.0938 23.4375C54.8385 23.5417 54.6224 23.6875 54.4453 23.875C54.2682 24.0625 54.1276 24.2865 54.0234 24.5469C53.9245 24.8021 53.8594 25.0833 53.8281 25.3906L53.4219 25.625C53.4219 25.1146 53.4714 24.6354 53.5703 24.1875C53.6745 23.7396 53.8333 23.3438 54.0469 23C54.2604 22.651 54.5312 22.3802 54.8594 22.1875C55.1927 21.9896 55.5885 21.8906 56.0469 21.8906C56.151 21.8906 56.2708 21.9036 56.4062 21.9297C56.5417 21.9505 56.6354 21.974 56.6875 22ZM66.4219 20.1328L62.6562 30.5H61.1172L65.4531 19.125H66.4453L66.4219 20.1328ZM69.5781 30.5L65.8047 20.1328L65.7812 19.125H66.7734L71.125 30.5H69.5781ZM69.3828 26.2891V27.5234H62.9922V26.2891H69.3828ZM74 18.5V30.5H72.5469V18.5H74ZM77.8906 18.5V30.5H76.4375V18.5H77.8906Z" fill="#304C57"/>
<path d="M98.3333 23.3333L101.667 26.6667M101.667 23.3333L98.3333 26.6667M92.5 25C92.5 25.9849 92.694 26.9602 93.0709 27.8701C93.4478 28.7801 94.0003 29.6069 94.6967 30.3033C95.3931 30.9997 96.2199 31.5522 97.1299 31.9291C98.0398 32.306 99.0151 32.5 100 32.5C100.985 32.5 101.96 32.306 102.87 31.9291C103.78 31.5522 104.607 30.9997 105.303 30.3033C106 29.6069 106.552 28.7801 106.929 27.8701C107.306 26.9602 107.5 25.9849 107.5 25C107.5 24.0151 107.306 23.0398 106.929 22.1299C106.552 21.2199 106 20.3931 105.303 19.6967C104.607 19.0003 103.78 18.4478 102.87 18.0709C101.96 17.694 100.985 17.5 100 17.5C99.0151 17.5 98.0398 17.694 97.1299 18.0709C96.2199 18.4478 95.3931 19.0003 94.6967 19.6967C94.0003 20.3931 93.4478 21.2199 93.0709 22.1299C92.694 23.0398 92.5 24.0151 92.5 25Z" stroke="#304C57" stroke-width="1.66667" stroke-linecap="round" stroke-linejoin="round"/>
</g>
<defs>
<filter id="filter0_d_10_1639" x="0" y="0" width="130" height="50" filterUnits="userSpaceOnUse" color-interpolation-filters="sRGB">
<feFlood flood-opacity="0" result="BackgroundImageFix"/>
<feColorMatrix in="SourceAlpha" type="matrix" values="0 0 0 0 0 0 0 0 0 0 0 0 0 0 0 0 0 0 127 0" result="hardAlpha"/>
<feOffset/>
<feGaussianBlur stdDeviation="2.5"/>
<feComposite in2="hardAlpha" operator="out"/>
<feColorMatrix type="matrix" values="0 0 0 0 0 0 0 0 0 0 0 0 0 0 0 0 0 0 0.1 0"/>
<feBlend mode="normal" in2="BackgroundImageFix" result="effect1_dropShadow_10_1639"/>
<feBlend mode="normal" in="SourceGraphic" in2="effect1_dropShadow_10_1639" result="shape"/>
</filter>
</defs>
</svg>
