<svg width="280" height="54" viewBox="0 0 280 54" fill="none" xmlns="http://www.w3.org/2000/svg">
<rect width="280" height="54" rx="12" fill="#329141"/>
<path d="M69.9531 33.1953C66.6562 33.1953 64.5859 30.9922 64.5859 27.3594V27.3516C64.5859 23.7188 66.6641 21.5312 69.9531 21.5312C72.6875 21.5312 74.6484 23.2578 74.8672 25.6484L74.875 25.7188H72.5781L72.5469 25.5859C72.2812 24.3438 71.3594 23.5312 69.9531 23.5312C68.1484 23.5312 66.9922 24.9844 66.9922 27.3438V27.3516C66.9922 29.7266 68.1484 31.1953 69.9531 31.1953C71.3125 31.1953 72.2656 30.4141 72.5703 29.0781L72.5859 29H74.8828L74.875 29.0859C74.6562 31.4844 72.6797 33.1953 69.9531 33.1953ZM80.1922 33.1719C77.6453 33.1719 76.0437 31.5391 76.0437 28.8125V28.7969C76.0437 26.1016 77.6844 24.4531 80.1844 24.4531C82.6922 24.4531 84.3406 26.0859 84.3406 28.7969V28.8125C84.3406 31.5469 82.7234 33.1719 80.1922 33.1719ZM80.2 31.3828C81.3094 31.3828 82.0203 30.4453 82.0203 28.8125V28.7969C82.0203 27.1797 81.2937 26.2422 80.1844 26.2422C79.0828 26.2422 78.3641 27.1797 78.3641 28.7969V28.8125C78.3641 30.4531 79.075 31.3828 80.2 31.3828ZM85.7203 33V24.625H88.0016V26H88.0484C88.4781 25.0391 89.3375 24.4531 90.6031 24.4531C92.4469 24.4531 93.4937 25.6328 93.4937 27.5938V33H91.2125V28.0625C91.2125 26.9688 90.6969 26.3438 89.6734 26.3438C88.65 26.3438 88.0016 27.0938 88.0016 28.1875V33H85.7203ZM95.7484 33V26.3438H94.6078V24.625H95.7484V23.9531C95.7484 22.3125 96.5297 21.5547 98.5063 21.5547C98.9281 21.5547 99.3891 21.5938 99.6547 21.6484V23.1562C99.4984 23.125 99.2797 23.1172 99.0688 23.1172C98.3109 23.1172 97.975 23.4375 97.975 24.0391V24.625H99.6391V26.3438H98.0297V33H95.7484ZM102.23 23.5469C101.542 23.5469 101.011 23.0078 101.011 22.3594C101.011 21.7109 101.542 21.1719 102.23 21.1719C102.917 21.1719 103.448 21.7109 103.448 22.3594C103.448 23.0078 102.917 23.5469 102.23 23.5469ZM101.089 33V24.625H103.37V33H101.089ZM105.102 33V24.625H107.383V26.0859H107.43C107.68 25.0547 108.359 24.4531 109.336 24.4531C109.586 24.4531 109.82 24.4922 109.992 24.5391V26.5469C109.805 26.4688 109.492 26.4219 109.164 26.4219C108.039 26.4219 107.383 27.0938 107.383 28.3125V33H105.102ZM111.13 33V24.625H113.411V26.0312H113.458C113.802 25.0781 114.677 24.4531 115.802 24.4531C116.973 24.4531 117.825 25.0781 118.106 26.1797H118.153C118.528 25.125 119.528 24.4531 120.755 24.4531C122.395 24.4531 123.497 25.5859 123.497 27.2734V33H121.216V27.8438C121.216 26.875 120.731 26.3438 119.848 26.3438C118.981 26.3438 118.411 26.9766 118.411 27.9062V33H116.216V27.7734C116.216 26.875 115.708 26.3438 114.864 26.3438C113.997 26.3438 113.411 27 113.411 27.9453V33H111.13ZM131.405 33V23.6719H128.147V21.7266H137.03V23.6719H133.764V33H131.405ZM137.277 33V24.625H139.558V26.0859H139.605C139.855 25.0547 140.534 24.4531 141.511 24.4531C141.761 24.4531 141.995 24.4922 142.167 24.5391V26.5469C141.98 26.4688 141.667 26.4219 141.339 26.4219C140.214 26.4219 139.558 27.0938 139.558 28.3125V33H137.277ZM145.594 33.1328C143.914 33.1328 142.781 32.0781 142.781 30.6016V30.5859C142.781 29.0625 143.961 28.1719 146.039 28.0391L148.109 27.9141V27.3984C148.109 26.6562 147.625 26.1953 146.734 26.1953C145.883 26.1953 145.367 26.5938 145.258 27.1328L145.242 27.2031H143.156L143.164 27.1094C143.289 25.5625 144.617 24.4531 146.828 24.4531C148.992 24.4531 150.391 25.5703 150.391 27.2578V33H148.109V31.75H148.062C147.586 32.6094 146.695 33.1328 145.594 33.1328ZM145.039 30.4844C145.039 31.1016 145.547 31.4688 146.336 31.4688C147.359 31.4688 148.109 30.8125 148.109 29.9375V29.3359L146.383 29.4453C145.5 29.5 145.039 29.875 145.039 30.4688V30.4844ZM152.067 33V24.625H154.348V26H154.395C154.825 25.0391 155.684 24.4531 156.95 24.4531C158.794 24.4531 159.841 25.6328 159.841 27.5938V33H157.559V28.0625C157.559 26.9688 157.044 26.3438 156.02 26.3438C154.997 26.3438 154.348 27.0938 154.348 28.1875V33H152.067ZM164.931 33.1719C162.611 33.1719 161.322 32.1016 161.142 30.5156L161.134 30.4453H163.361L163.377 30.5156C163.525 31.1719 164.017 31.5547 164.931 31.5547C165.791 31.5547 166.314 31.2188 166.314 30.6797V30.6719C166.314 30.2266 166.033 29.9688 165.213 29.7891L163.791 29.4922C162.166 29.1484 161.345 28.3359 161.345 27.0859V27.0781C161.345 25.4844 162.72 24.4531 164.853 24.4531C167.08 24.4531 168.322 25.6328 168.377 27.1016V27.1797H166.275L166.267 27.1172C166.189 26.5156 165.697 26.0625 164.853 26.0625C164.064 26.0625 163.572 26.4141 163.572 26.9531V26.9609C163.572 27.3906 163.861 27.6719 164.705 27.8516L166.127 28.1562C167.877 28.5234 168.595 29.2109 168.595 30.4453V30.4531C168.595 32.0938 167.088 33.1719 164.931 33.1719ZM172.412 33.1328C170.733 33.1328 169.6 32.0781 169.6 30.6016V30.5859C169.6 29.0625 170.78 28.1719 172.858 28.0391L174.928 27.9141V27.3984C174.928 26.6562 174.444 26.1953 173.553 26.1953C172.702 26.1953 172.186 26.5938 172.077 27.1328L172.061 27.2031H169.975L169.983 27.1094C170.108 25.5625 171.436 24.4531 173.647 24.4531C175.811 24.4531 177.209 25.5703 177.209 27.2578V33H174.928V31.75H174.881C174.405 32.6094 173.514 33.1328 172.412 33.1328ZM171.858 30.4844C171.858 31.1016 172.366 31.4688 173.155 31.4688C174.178 31.4688 174.928 30.8125 174.928 29.9375V29.3359L173.202 29.4453C172.319 29.5 171.858 29.875 171.858 30.4688V30.4844ZM182.714 33.1719C180.159 33.1719 178.581 31.5078 178.581 28.8047V28.7969C178.581 26.1172 180.183 24.4531 182.691 24.4531C184.964 24.4531 186.409 25.8516 186.495 27.6641V27.7188H184.378L184.363 27.6484C184.222 26.8516 183.667 26.2422 182.722 26.2422C181.605 26.2422 180.902 27.2031 180.902 28.8047V28.8125C180.902 30.4531 181.605 31.3828 182.73 31.3828C183.644 31.3828 184.214 30.8203 184.37 29.9766L184.378 29.9062H186.503V29.9531C186.394 31.7812 184.948 33.1719 182.714 33.1719ZM191.133 33.1719C189.273 33.1719 188.398 32.4531 188.398 30.6562V26.3438H187.234V24.625H188.398V22.5781H190.703V24.625H192.234V26.3438H190.703V30.4062C190.703 31.1875 191.055 31.4531 191.742 31.4531C191.945 31.4531 192.094 31.4297 192.234 31.4141V33.0859C191.977 33.125 191.609 33.1719 191.133 33.1719ZM194.88 23.5469C194.192 23.5469 193.661 23.0078 193.661 22.3594C193.661 21.7109 194.192 21.1719 194.88 21.1719C195.567 21.1719 196.098 21.7109 196.098 22.3594C196.098 23.0078 195.567 23.5469 194.88 23.5469ZM193.739 33V24.625H196.02V33H193.739ZM201.595 33.1719C199.048 33.1719 197.447 31.5391 197.447 28.8125V28.7969C197.447 26.1016 199.087 24.4531 201.587 24.4531C204.095 24.4531 205.744 26.0859 205.744 28.7969V28.8125C205.744 31.5469 204.127 33.1719 201.595 33.1719ZM201.603 31.3828C202.712 31.3828 203.423 30.4453 203.423 28.8125V28.7969C203.423 27.1797 202.697 26.2422 201.587 26.2422C200.486 26.2422 199.767 27.1797 199.767 28.7969V28.8125C199.767 30.4531 200.478 31.3828 201.603 31.3828ZM207.123 33V24.625H209.405V26H209.452C209.881 25.0391 210.741 24.4531 212.006 24.4531C213.85 24.4531 214.897 25.6328 214.897 27.5938V33H212.616V28.0625C212.616 26.9688 212.1 26.3438 211.077 26.3438C210.053 26.3438 209.405 27.0938 209.405 28.1875V33H207.123Z" fill="white"/>
</svg>
