<svg width="44" height="34" viewBox="0 0 44 34" fill="none" xmlns="http://www.w3.org/2000/svg">
<rect x="0.5" y="0.5" width="43" height="33" rx="9.5" stroke="#304C57" stroke-opacity="0.2"/>
<g opacity="0.8">
<path d="M14 12H30M20 16V22M24 16V22M15 12L16 24C16 24.5304 16.2107 25.0391 16.5858 25.4142C16.9609 25.7893 17.4696 26 18 26H26C26.5304 26 27.0391 25.7893 27.4142 25.4142C27.7893 25.0391 28 24.5304 28 24L29 12M19 12V9C19 8.73478 19.1054 8.48043 19.2929 8.29289C19.4804 8.10536 19.7348 8 20 8H24C24.2652 8 24.5196 8.10536 24.7071 8.29289C24.8946 8.48043 25 8.73478 25 9V12" stroke="#304C57" stroke-width="2" stroke-linecap="round" stroke-linejoin="round"/>
</g>
</svg>
