<svg width="26" height="26" viewBox="0 0 26 26" fill="none" xmlns="http://www.w3.org/2000/svg">
<path d="M4.875 11.1207V6.5H21.125V11.1207C21.125 14.5601 21.125 16.2798 20.0673 17.3482C19.0097 18.4167 17.3073 18.4167 13.9027 18.4167H12.0973C8.69263 18.4167 6.99034 18.4167 5.93267 17.3482C4.875 16.2798 4.875 14.5601 4.875 11.1207Z" stroke="#329141" stroke-width="2" stroke-linecap="round" stroke-linejoin="round"/>
<path d="M4.875 6.50002L5.65625 4.83336C6.26215 3.54077 6.5651 2.89447 7.17916 2.53058C7.79323 2.16669 8.58091 2.16669 10.1563 2.16669H15.8438C17.4191 2.16669 18.2067 2.16669 18.8209 2.53058C19.4349 2.89447 19.7379 3.54077 20.3437 4.83336L21.125 6.50002" stroke="#329141" stroke-width="2" stroke-linecap="round"/>
<path d="M11.375 9.75H14.625" stroke="#329141" stroke-width="2" stroke-linecap="round"/>
<path d="M4.33337 23.8333H13M13 23.8333H21.6667M13 23.8333V21.125" stroke="#329141" stroke-width="2" stroke-linecap="round" stroke-linejoin="round"/>
</svg>
