<svg width="161" height="44" viewBox="0 0 161 44" fill="none" xmlns="http://www.w3.org/2000/svg">
<rect width="161" height="44" rx="10" fill="#40894B" fill-opacity="0.1"/>
<path d="M34 18H20M20 22H29M26 26H20M30 26H36M33 23V29" stroke="#329141" stroke-width="2" stroke-linecap="round" stroke-linejoin="round"/>
<path d="M52.2344 16.125V27.5H50.0859V16.125H52.2344ZM56.8203 21.0391V22.7344H51.6719V21.0391H56.8203ZM57.4219 16.125V17.8203H51.6719V16.125H57.4219ZM60.9141 19.0469V27.5H58.8438V19.0469H60.9141ZM58.7031 16.8359C58.7031 16.5286 58.8073 16.2734 59.0156 16.0703C59.2292 15.8672 59.5156 15.7656 59.875 15.7656C60.2344 15.7656 60.5182 15.8672 60.7266 16.0703C60.9401 16.2734 61.0469 16.5286 61.0469 16.8359C61.0469 17.138 60.9401 17.3906 60.7266 17.5938C60.5182 17.7969 60.2344 17.8984 59.875 17.8984C59.5156 17.8984 59.2292 17.7969 59.0156 17.5938C58.8073 17.3906 58.7031 17.138 58.7031 16.8359ZM65.0703 15.5V27.5H63V15.5H65.0703ZM70.8359 27.6562C70.1953 27.6562 69.6198 27.5521 69.1094 27.3438C68.599 27.1354 68.1641 26.8464 67.8047 26.4766C67.4505 26.1016 67.1771 25.6667 66.9844 25.1719C66.7969 24.6719 66.7031 24.1354 66.7031 23.5625V23.25C66.7031 22.599 66.7969 22.0078 66.9844 21.4766C67.1719 20.9401 67.4375 20.4792 67.7812 20.0938C68.125 19.7083 68.5365 19.4115 69.0156 19.2031C69.4948 18.9948 70.0234 18.8906 70.6016 18.8906C71.2005 18.8906 71.7292 18.9922 72.1875 19.1953C72.6458 19.3932 73.0286 19.6745 73.3359 20.0391C73.6432 20.4036 73.875 20.8411 74.0312 21.3516C74.1875 21.8568 74.2656 22.4167 74.2656 23.0312V23.8984H67.6406V22.4766H72.2344V22.3203C72.224 21.9922 72.1615 21.6927 72.0469 21.4219C71.9323 21.1458 71.7552 20.9271 71.5156 20.7656C71.276 20.599 70.9661 20.5156 70.5859 20.5156C70.2786 20.5156 70.0104 20.5833 69.7812 20.7188C69.5573 20.849 69.3698 21.0365 69.2188 21.2812C69.0729 21.5208 68.9635 21.8073 68.8906 22.1406C68.8177 22.474 68.7812 22.8438 68.7812 23.25V23.5625C68.7812 23.9167 68.8281 24.2448 68.9219 24.5469C69.0208 24.849 69.1641 25.112 69.3516 25.3359C69.5443 25.5547 69.7734 25.7266 70.0391 25.8516C70.3099 25.9714 70.6172 26.0312 70.9609 26.0312C71.3932 26.0312 71.7839 25.9479 72.1328 25.7812C72.487 25.6094 72.7943 25.3568 73.0547 25.0234L74.0938 26.1016C73.9167 26.362 73.6771 26.612 73.375 26.8516C73.0781 27.0911 72.7188 27.2865 72.2969 27.4375C71.875 27.5833 71.388 27.6562 70.8359 27.6562ZM84.2891 25.7031V21.8047C84.2891 21.5182 84.2396 21.2708 84.1406 21.0625C84.0417 20.8542 83.8906 20.6927 83.6875 20.5781C83.4844 20.4635 83.2266 20.4062 82.9141 20.4062C82.638 20.4062 82.3958 20.4531 82.1875 20.5469C81.9844 20.6406 81.8281 20.7734 81.7188 20.9453C81.6094 21.112 81.5547 21.3047 81.5547 21.5234H79.4844C79.4844 21.1745 79.5677 20.8438 79.7344 20.5312C79.901 20.2135 80.138 19.9323 80.4453 19.6875C80.7578 19.4375 81.1302 19.2422 81.5625 19.1016C82 18.9609 82.4896 18.8906 83.0312 18.8906C83.6719 18.8906 84.2422 19 84.7422 19.2188C85.2474 19.4323 85.6432 19.7552 85.9297 20.1875C86.2214 20.6198 86.3672 21.1641 86.3672 21.8203V25.5078C86.3672 25.9297 86.3932 26.2917 86.4453 26.5938C86.5026 26.8906 86.5859 27.1484 86.6953 27.3672V27.5H84.5938C84.4948 27.2865 84.4193 27.0156 84.3672 26.6875C84.3151 26.3542 84.2891 26.026 84.2891 25.7031ZM84.5781 22.3516L84.5938 23.5781H83.2891C82.9661 23.5781 82.6823 23.612 82.4375 23.6797C82.1927 23.7422 81.9922 23.8359 81.8359 23.9609C81.6797 24.0807 81.5625 24.2266 81.4844 24.3984C81.4062 24.5651 81.3672 24.7552 81.3672 24.9688C81.3672 25.1771 81.4141 25.3646 81.5078 25.5312C81.6068 25.6979 81.7474 25.8307 81.9297 25.9297C82.1172 26.0234 82.3359 26.0703 82.5859 26.0703C82.9505 26.0703 83.2682 25.9974 83.5391 25.8516C83.8099 25.7005 84.0208 25.5182 84.1719 25.3047C84.3229 25.0911 84.4036 24.888 84.4141 24.6953L85.0078 25.5859C84.9349 25.7995 84.8255 26.026 84.6797 26.2656C84.5339 26.5052 84.3464 26.7292 84.1172 26.9375C83.888 27.1458 83.612 27.3177 83.2891 27.4531C82.9661 27.5885 82.5911 27.6562 82.1641 27.6562C81.6172 27.6562 81.1276 27.5469 80.6953 27.3281C80.263 27.1094 79.9219 26.8099 79.6719 26.4297C79.4219 26.0495 79.2969 25.6172 79.2969 25.1328C79.2969 24.6849 79.3802 24.2891 79.5469 23.9453C79.7135 23.6016 79.9609 23.3125 80.2891 23.0781C80.6172 22.8385 81.0234 22.6589 81.5078 22.5391C81.9974 22.4141 82.5573 22.3516 83.1875 22.3516H84.5781ZM94.2734 20.7734V27.5H92.2109V19.0469H94.1641L94.2734 20.7734ZM96.8438 18.9922L96.8125 20.9141C96.6979 20.8932 96.5677 20.8776 96.4219 20.8672C96.2812 20.8568 96.1484 20.8516 96.0234 20.8516C95.7057 20.8516 95.4271 20.8958 95.1875 20.9844C94.9479 21.0677 94.7474 21.1901 94.5859 21.3516C94.4297 21.513 94.3099 21.7109 94.2266 21.9453C94.1432 22.1745 94.0964 22.4349 94.0859 22.7266L93.6406 22.6719C93.6406 22.1354 93.6953 21.638 93.8047 21.1797C93.9141 20.7214 94.0729 20.3203 94.2812 19.9766C94.4896 19.6328 94.75 19.3672 95.0625 19.1797C95.3802 18.987 95.7448 18.8906 96.1562 18.8906C96.2708 18.8906 96.3932 18.901 96.5234 18.9219C96.6589 18.9375 96.7656 18.9609 96.8438 18.9922ZM101.617 27.6562C100.977 27.6562 100.401 27.5521 99.8906 27.3438C99.3802 27.1354 98.9453 26.8464 98.5859 26.4766C98.2318 26.1016 97.9583 25.6667 97.7656 25.1719C97.5781 24.6719 97.4844 24.1354 97.4844 23.5625V23.25C97.4844 22.599 97.5781 22.0078 97.7656 21.4766C97.9531 20.9401 98.2188 20.4792 98.5625 20.0938C98.9062 19.7083 99.3177 19.4115 99.7969 19.2031C100.276 18.9948 100.805 18.8906 101.383 18.8906C101.982 18.8906 102.51 18.9922 102.969 19.1953C103.427 19.3932 103.81 19.6745 104.117 20.0391C104.424 20.4036 104.656 20.8411 104.812 21.3516C104.969 21.8568 105.047 22.4167 105.047 23.0312V23.8984H98.4219V22.4766H103.016V22.3203C103.005 21.9922 102.943 21.6927 102.828 21.4219C102.714 21.1458 102.536 20.9271 102.297 20.7656C102.057 20.599 101.747 20.5156 101.367 20.5156C101.06 20.5156 100.792 20.5833 100.562 20.7188C100.339 20.849 100.151 21.0365 100 21.2812C99.8542 21.5208 99.7448 21.8073 99.6719 22.1406C99.599 22.474 99.5625 22.8438 99.5625 23.25V23.5625C99.5625 23.9167 99.6094 24.2448 99.7031 24.5469C99.8021 24.849 99.9453 25.112 100.133 25.3359C100.326 25.5547 100.555 25.7266 100.82 25.8516C101.091 25.9714 101.398 26.0312 101.742 26.0312C102.174 26.0312 102.565 25.9479 102.914 25.7812C103.268 25.6094 103.576 25.3568 103.836 25.0234L104.875 26.1016C104.698 26.362 104.458 26.612 104.156 26.8516C103.859 27.0911 103.5 27.2865 103.078 27.4375C102.656 27.5833 102.169 27.6562 101.617 27.6562ZM110.43 19.0469V20.5312H105.586V19.0469H110.43ZM106.883 16.9688H108.953V25.0625C108.953 25.3125 108.987 25.5052 109.055 25.6406C109.122 25.776 109.224 25.8672 109.359 25.9141C109.495 25.9609 109.656 25.9844 109.844 25.9844C109.979 25.9844 110.104 25.9766 110.219 25.9609C110.333 25.9453 110.43 25.9297 110.508 25.9141L110.516 27.4609C110.344 27.5182 110.148 27.5651 109.93 27.6016C109.716 27.638 109.474 27.6562 109.203 27.6562C108.74 27.6562 108.333 27.5781 107.984 27.4219C107.635 27.2604 107.365 27.0026 107.172 26.6484C106.979 26.2891 106.883 25.8151 106.883 25.2266V16.9688ZM116.836 25.4922V19.0469H118.914V27.5H116.961L116.836 25.4922ZM117.102 23.7422L117.742 23.7266C117.742 24.2943 117.68 24.8177 117.555 25.2969C117.43 25.776 117.234 26.1927 116.969 26.5469C116.708 26.8958 116.378 27.1693 115.977 27.3672C115.576 27.5599 115.102 27.6562 114.555 27.6562C114.138 27.6562 113.758 27.599 113.414 27.4844C113.07 27.3646 112.773 27.1797 112.523 26.9297C112.279 26.6745 112.089 26.349 111.953 25.9531C111.818 25.5521 111.75 25.0703 111.75 24.5078V19.0469H113.812V24.5234C113.812 24.8047 113.844 25.0391 113.906 25.2266C113.974 25.4141 114.065 25.5677 114.18 25.6875C114.299 25.8021 114.438 25.8854 114.594 25.9375C114.755 25.9844 114.927 26.0078 115.109 26.0078C115.609 26.0078 116.003 25.9089 116.289 25.7109C116.581 25.5078 116.789 25.237 116.914 24.8984C117.039 24.5547 117.102 24.1693 117.102 23.7422ZM122.805 20.7734V27.5H120.742V19.0469H122.695L122.805 20.7734ZM125.375 18.9922L125.344 20.9141C125.229 20.8932 125.099 20.8776 124.953 20.8672C124.812 20.8568 124.68 20.8516 124.555 20.8516C124.237 20.8516 123.958 20.8958 123.719 20.9844C123.479 21.0677 123.279 21.1901 123.117 21.3516C122.961 21.513 122.841 21.7109 122.758 21.9453C122.674 22.1745 122.628 22.4349 122.617 22.7266L122.172 22.6719C122.172 22.1354 122.227 21.638 122.336 21.1797C122.445 20.7214 122.604 20.3203 122.812 19.9766C123.021 19.6328 123.281 19.3672 123.594 19.1797C123.911 18.987 124.276 18.8906 124.688 18.8906C124.802 18.8906 124.924 18.901 125.055 18.9219C125.19 18.9375 125.297 18.9609 125.375 18.9922ZM128.531 20.8516V27.5H126.469V19.0469H128.406L128.531 20.8516ZM128.203 22.9688H127.594C127.599 22.3542 127.682 21.7969 127.844 21.2969C128.005 20.7969 128.232 20.3672 128.523 20.0078C128.82 19.6484 129.172 19.3724 129.578 19.1797C129.984 18.987 130.438 18.8906 130.938 18.8906C131.344 18.8906 131.711 18.9479 132.039 19.0625C132.367 19.1771 132.648 19.3594 132.883 19.6094C133.122 19.8594 133.305 20.1875 133.43 20.5938C133.56 20.9948 133.625 21.4896 133.625 22.0781V27.5H131.547V22.0625C131.547 21.6771 131.49 21.3724 131.375 21.1484C131.266 20.9245 131.104 20.7656 130.891 20.6719C130.682 20.5781 130.424 20.5312 130.117 20.5312C129.799 20.5312 129.521 20.5964 129.281 20.7266C129.047 20.8516 128.849 21.026 128.688 21.25C128.531 21.474 128.411 21.7318 128.328 22.0234C128.245 22.3151 128.203 22.6302 128.203 22.9688Z" fill="#329141"/>
</svg>
