<svg width="227" height="44" viewBox="0 0 227 44" fill="none" xmlns="http://www.w3.org/2000/svg">
<rect x="0.5" y="0.5" width="226" height="43" rx="9.5" stroke="#329141"/>
<path d="M39 10H15V34H39V10Z" fill="white"/>
<path d="M17 22C17 18.2288 17 16.3431 18.1716 15.1716C19.3432 14 21.2288 14 25 14H29C32.7712 14 34.6569 14 35.8284 15.1716C37 16.3431 37 18.2288 37 22C37 25.7712 37 27.6569 35.8284 28.8284C34.6569 30 32.7712 30 29 30H25C21.2288 30 19.3432 30 18.1716 28.8284C17 27.6569 17 25.7712 17 22Z" stroke="#329141" stroke-width="1.5" stroke-linecap="round" stroke-linejoin="round"/>
<path d="M17 22H37" stroke="#329141" stroke-width="1.5" stroke-linecap="round" stroke-linejoin="round"/>
<path d="M25 14V30" stroke="#329141" stroke-width="1.5" stroke-linecap="round" stroke-linejoin="round"/>
<path d="M22 19L28 25M22 25L28 19" stroke="#329141" stroke-width="1.5" stroke-linecap="round" stroke-linejoin="round"/>
<path d="M58.9609 21.6172V26.0469C58.7943 26.2604 58.5312 26.4922 58.1719 26.7422C57.8177 26.9922 57.3542 27.2083 56.7812 27.3906C56.2083 27.5677 55.5052 27.6562 54.6719 27.6562C53.9479 27.6562 53.2865 27.5365 52.6875 27.2969C52.0885 27.0521 51.5729 26.6953 51.1406 26.2266C50.7083 25.7578 50.375 25.1849 50.1406 24.5078C49.9062 23.8307 49.7891 23.0573 49.7891 22.1875V21.4375C49.7891 20.5677 49.8984 19.7943 50.1172 19.1172C50.3411 18.4401 50.6589 17.8672 51.0703 17.3984C51.487 16.9297 51.9844 16.5729 52.5625 16.3281C53.1458 16.0833 53.7969 15.9609 54.5156 15.9609C55.4792 15.9609 56.2708 16.1198 56.8906 16.4375C57.5156 16.7552 57.9948 17.1927 58.3281 17.75C58.6615 18.3021 58.8698 18.9375 58.9531 19.6562H56.8594C56.8021 19.2604 56.6875 18.9141 56.5156 18.6172C56.3438 18.3151 56.099 18.0807 55.7812 17.9141C55.4688 17.7422 55.0625 17.6562 54.5625 17.6562C54.1406 17.6562 53.7682 17.7396 53.4453 17.9062C53.1224 18.0729 52.8516 18.3151 52.6328 18.6328C52.4141 18.9505 52.2474 19.3438 52.1328 19.8125C52.0234 20.2812 51.9688 20.8177 51.9688 21.4219V22.1875C51.9688 22.7969 52.0312 23.3385 52.1562 23.8125C52.2812 24.2812 52.4609 24.6771 52.6953 25C52.9349 25.3177 53.2292 25.5599 53.5781 25.7266C53.9323 25.888 54.3333 25.9688 54.7812 25.9688C55.1875 25.9688 55.5234 25.9349 55.7891 25.8672C56.0599 25.7943 56.276 25.7083 56.4375 25.6094C56.599 25.5104 56.724 25.4141 56.8125 25.3203V23.1875H54.5547V21.6172H58.9609ZM63.0234 19.0469V27.5H60.9531V19.0469H63.0234ZM60.8125 16.8359C60.8125 16.5286 60.9167 16.2734 61.125 16.0703C61.3385 15.8672 61.625 15.7656 61.9844 15.7656C62.3438 15.7656 62.6276 15.8672 62.8359 16.0703C63.0495 16.2734 63.1562 16.5286 63.1562 16.8359C63.1562 17.138 63.0495 17.3906 62.8359 17.5938C62.6276 17.7969 62.3438 17.8984 61.9844 17.8984C61.625 17.8984 61.3385 17.7969 61.125 17.5938C60.9167 17.3906 60.8125 17.138 60.8125 16.8359ZM67.6953 27.5H65.6172V18.2656C65.6172 17.6302 65.7396 17.0964 65.9844 16.6641C66.2292 16.2266 66.5781 15.8958 67.0312 15.6719C67.4844 15.4479 68.0182 15.3359 68.6328 15.3359C68.8359 15.3359 69.0286 15.349 69.2109 15.375C69.3984 15.401 69.5833 15.4375 69.7656 15.4844L69.7266 17.0547C69.6276 17.0286 69.5182 17.0104 69.3984 17C69.2839 16.9896 69.1562 16.9844 69.0156 16.9844C68.7344 16.9844 68.4948 17.0339 68.2969 17.1328C68.099 17.2318 67.9479 17.3776 67.8438 17.5703C67.7448 17.7578 67.6953 17.9896 67.6953 18.2656V27.5ZM69.4062 19.0469V20.5312H64.3438V19.0469H69.4062ZM74.6797 19.0469V20.5312H69.8359V19.0469H74.6797ZM71.1328 16.9688H73.2031V25.0625C73.2031 25.3125 73.237 25.5052 73.3047 25.6406C73.3724 25.776 73.474 25.8672 73.6094 25.9141C73.7448 25.9609 73.9062 25.9844 74.0938 25.9844C74.2292 25.9844 74.3542 25.9766 74.4688 25.9609C74.5833 25.9453 74.6797 25.9297 74.7578 25.9141L74.7656 27.4609C74.5938 27.5182 74.3984 27.5651 74.1797 27.6016C73.9661 27.638 73.724 27.6562 73.4531 27.6562C72.9896 27.6562 72.5833 27.5781 72.2344 27.4219C71.8854 27.2604 71.6146 27.0026 71.4219 26.6484C71.2292 26.2891 71.1328 25.8151 71.1328 25.2266V16.9688ZM86.8516 23.7578H89C88.9427 24.5182 88.7318 25.1927 88.3672 25.7812C88.0026 26.3646 87.4948 26.8229 86.8438 27.1562C86.1927 27.4896 85.4036 27.6562 84.4766 27.6562C83.763 27.6562 83.1198 27.5312 82.5469 27.2812C81.9792 27.026 81.4922 26.6641 81.0859 26.1953C80.6849 25.7214 80.3776 25.1536 80.1641 24.4922C79.9505 23.8255 79.8438 23.0781 79.8438 22.25V21.3828C79.8438 20.5547 79.9531 19.8073 80.1719 19.1406C80.3906 18.474 80.7031 17.9062 81.1094 17.4375C81.5208 16.9635 82.013 16.599 82.5859 16.3438C83.1641 16.0885 83.8099 15.9609 84.5234 15.9609C85.4505 15.9609 86.2344 16.1328 86.875 16.4766C87.5156 16.8151 88.013 17.2812 88.3672 17.875C88.7214 18.4688 88.9349 19.151 89.0078 19.9219H86.8594C86.8177 19.4427 86.7135 19.0365 86.5469 18.7031C86.3854 18.3698 86.1406 18.1172 85.8125 17.9453C85.4896 17.7682 85.0599 17.6797 84.5234 17.6797C84.1068 17.6797 83.7396 17.7578 83.4219 17.9141C83.1094 18.0703 82.849 18.3047 82.6406 18.6172C82.4323 18.9245 82.276 19.3099 82.1719 19.7734C82.0677 20.2318 82.0156 20.763 82.0156 21.3672V22.25C82.0156 22.8281 82.0625 23.3464 82.1562 23.8047C82.25 24.263 82.3958 24.651 82.5938 24.9688C82.7917 25.2865 83.0469 25.5286 83.3594 25.6953C83.6719 25.862 84.0443 25.9453 84.4766 25.9453C85.0026 25.9453 85.4297 25.862 85.7578 25.6953C86.0911 25.5286 86.3438 25.2839 86.5156 24.9609C86.6927 24.638 86.8047 24.237 86.8516 23.7578ZM95.1641 25.7031V21.8047C95.1641 21.5182 95.1146 21.2708 95.0156 21.0625C94.9167 20.8542 94.7656 20.6927 94.5625 20.5781C94.3594 20.4635 94.1016 20.4062 93.7891 20.4062C93.513 20.4062 93.2708 20.4531 93.0625 20.5469C92.8594 20.6406 92.7031 20.7734 92.5938 20.9453C92.4844 21.112 92.4297 21.3047 92.4297 21.5234H90.3594C90.3594 21.1745 90.4427 20.8438 90.6094 20.5312C90.776 20.2135 91.013 19.9323 91.3203 19.6875C91.6328 19.4375 92.0052 19.2422 92.4375 19.1016C92.875 18.9609 93.3646 18.8906 93.9062 18.8906C94.5469 18.8906 95.1172 19 95.6172 19.2188C96.1224 19.4323 96.5182 19.7552 96.8047 20.1875C97.0964 20.6198 97.2422 21.1641 97.2422 21.8203V25.5078C97.2422 25.9297 97.2682 26.2917 97.3203 26.5938C97.3776 26.8906 97.4609 27.1484 97.5703 27.3672V27.5H95.4688C95.3698 27.2865 95.2943 27.0156 95.2422 26.6875C95.1901 26.3542 95.1641 26.026 95.1641 25.7031ZM95.4531 22.3516L95.4688 23.5781H94.1641C93.8411 23.5781 93.5573 23.612 93.3125 23.6797C93.0677 23.7422 92.8672 23.8359 92.7109 23.9609C92.5547 24.0807 92.4375 24.2266 92.3594 24.3984C92.2812 24.5651 92.2422 24.7552 92.2422 24.9688C92.2422 25.1771 92.2891 25.3646 92.3828 25.5312C92.4818 25.6979 92.6224 25.8307 92.8047 25.9297C92.9922 26.0234 93.2109 26.0703 93.4609 26.0703C93.8255 26.0703 94.1432 25.9974 94.4141 25.8516C94.6849 25.7005 94.8958 25.5182 95.0469 25.3047C95.1979 25.0911 95.2786 24.888 95.2891 24.6953L95.8828 25.5859C95.8099 25.7995 95.7005 26.026 95.5547 26.2656C95.4089 26.5052 95.2214 26.7292 94.9922 26.9375C94.763 27.1458 94.487 27.3177 94.1641 27.4531C93.8411 27.5885 93.4661 27.6562 93.0391 27.6562C92.4922 27.6562 92.0026 27.5469 91.5703 27.3281C91.138 27.1094 90.7969 26.8099 90.5469 26.4297C90.2969 26.0495 90.1719 25.6172 90.1719 25.1328C90.1719 24.6849 90.2552 24.2891 90.4219 23.9453C90.5885 23.6016 90.8359 23.3125 91.1641 23.0781C91.4922 22.8385 91.8984 22.6589 92.3828 22.5391C92.8724 22.4141 93.4323 22.3516 94.0625 22.3516H95.4531ZM101.164 20.7734V27.5H99.1016V19.0469H101.055L101.164 20.7734ZM103.734 18.9922L103.703 20.9141C103.589 20.8932 103.458 20.8776 103.312 20.8672C103.172 20.8568 103.039 20.8516 102.914 20.8516C102.596 20.8516 102.318 20.8958 102.078 20.9844C101.839 21.0677 101.638 21.1901 101.477 21.3516C101.32 21.513 101.201 21.7109 101.117 21.9453C101.034 22.1745 100.987 22.4349 100.977 22.7266L100.531 22.6719C100.531 22.1354 100.586 21.638 100.695 21.1797C100.805 20.7214 100.964 20.3203 101.172 19.9766C101.38 19.6328 101.641 19.3672 101.953 19.1797C102.271 18.987 102.635 18.8906 103.047 18.8906C103.161 18.8906 103.284 18.901 103.414 18.9219C103.549 18.9375 103.656 18.9609 103.734 18.9922ZM109.781 25.7031V15.5H111.859V27.5H109.984L109.781 25.7031ZM104.352 23.375V23.2109C104.352 22.5651 104.424 21.9792 104.57 21.4531C104.721 20.9219 104.94 20.4661 105.227 20.0859C105.513 19.7057 105.859 19.4115 106.266 19.2031C106.677 18.9948 107.143 18.8906 107.664 18.8906C108.169 18.8906 108.609 18.9922 108.984 19.1953C109.365 19.3984 109.688 19.6875 109.953 20.0625C110.224 20.4375 110.44 20.8828 110.602 21.3984C110.763 21.9089 110.88 22.4714 110.953 23.0859V23.5312C110.88 24.1302 110.763 24.6797 110.602 25.1797C110.44 25.6797 110.224 26.1172 109.953 26.4922C109.688 26.862 109.365 27.1484 108.984 27.3516C108.604 27.5547 108.159 27.6562 107.648 27.6562C107.133 27.6562 106.669 27.5495 106.258 27.3359C105.852 27.1224 105.505 26.8229 105.219 26.4375C104.938 26.0521 104.721 25.599 104.57 25.0781C104.424 24.5573 104.352 23.9896 104.352 23.375ZM106.422 23.2109V23.375C106.422 23.7396 106.453 24.0807 106.516 24.3984C106.578 24.7161 106.68 24.9974 106.82 25.2422C106.961 25.4818 107.141 25.6693 107.359 25.8047C107.583 25.9401 107.854 26.0078 108.172 26.0078C108.578 26.0078 108.911 25.9193 109.172 25.7422C109.438 25.5599 109.643 25.3125 109.789 25C109.935 24.6823 110.029 24.3255 110.07 23.9297V22.7031C110.049 22.3906 109.995 22.1016 109.906 21.8359C109.823 21.5703 109.703 21.3411 109.547 21.1484C109.396 20.9557 109.208 20.8047 108.984 20.6953C108.76 20.5859 108.495 20.5312 108.188 20.5312C107.87 20.5312 107.599 20.6016 107.375 20.7422C107.151 20.8776 106.969 21.0677 106.828 21.3125C106.688 21.5573 106.583 21.8411 106.516 22.1641C106.453 22.487 106.422 22.8359 106.422 23.2109ZM118.805 16.125H120.664L123.773 24.6875L126.875 16.125H128.742L124.516 27.5H123.023L118.805 16.125ZM117.867 16.125H119.688L120.016 23.9922V27.5H117.867V16.125ZM127.852 16.125H129.68V27.5H127.531V23.9922L127.852 16.125ZM136.367 25.7031V21.8047C136.367 21.5182 136.318 21.2708 136.219 21.0625C136.12 20.8542 135.969 20.6927 135.766 20.5781C135.562 20.4635 135.305 20.4062 134.992 20.4062C134.716 20.4062 134.474 20.4531 134.266 20.5469C134.062 20.6406 133.906 20.7734 133.797 20.9453C133.688 21.112 133.633 21.3047 133.633 21.5234H131.562C131.562 21.1745 131.646 20.8438 131.812 20.5312C131.979 20.2135 132.216 19.9323 132.523 19.6875C132.836 19.4375 133.208 19.2422 133.641 19.1016C134.078 18.9609 134.568 18.8906 135.109 18.8906C135.75 18.8906 136.32 19 136.82 19.2188C137.326 19.4323 137.721 19.7552 138.008 20.1875C138.299 20.6198 138.445 21.1641 138.445 21.8203V25.5078C138.445 25.9297 138.471 26.2917 138.523 26.5938C138.581 26.8906 138.664 27.1484 138.773 27.3672V27.5H136.672C136.573 27.2865 136.497 27.0156 136.445 26.6875C136.393 26.3542 136.367 26.026 136.367 25.7031ZM136.656 22.3516L136.672 23.5781H135.367C135.044 23.5781 134.76 23.612 134.516 23.6797C134.271 23.7422 134.07 23.8359 133.914 23.9609C133.758 24.0807 133.641 24.2266 133.562 24.3984C133.484 24.5651 133.445 24.7552 133.445 24.9688C133.445 25.1771 133.492 25.3646 133.586 25.5312C133.685 25.6979 133.826 25.8307 134.008 25.9297C134.195 26.0234 134.414 26.0703 134.664 26.0703C135.029 26.0703 135.346 25.9974 135.617 25.8516C135.888 25.7005 136.099 25.5182 136.25 25.3047C136.401 25.0911 136.482 24.888 136.492 24.6953L137.086 25.5859C137.013 25.7995 136.904 26.026 136.758 26.2656C136.612 26.5052 136.424 26.7292 136.195 26.9375C135.966 27.1458 135.69 27.3177 135.367 27.4531C135.044 27.5885 134.669 27.6562 134.242 27.6562C133.695 27.6562 133.206 27.5469 132.773 27.3281C132.341 27.1094 132 26.8099 131.75 26.4297C131.5 26.0495 131.375 25.6172 131.375 25.1328C131.375 24.6849 131.458 24.2891 131.625 23.9453C131.792 23.6016 132.039 23.3125 132.367 23.0781C132.695 22.8385 133.102 22.6589 133.586 22.5391C134.076 22.4141 134.635 22.3516 135.266 22.3516H136.656ZM142.328 20.8516V27.5H140.266V19.0469H142.203L142.328 20.8516ZM142 22.9688H141.391C141.396 22.3542 141.479 21.7969 141.641 21.2969C141.802 20.7969 142.029 20.3672 142.32 20.0078C142.617 19.6484 142.969 19.3724 143.375 19.1797C143.781 18.987 144.234 18.8906 144.734 18.8906C145.141 18.8906 145.508 18.9479 145.836 19.0625C146.164 19.1771 146.445 19.3594 146.68 19.6094C146.919 19.8594 147.102 20.1875 147.227 20.5938C147.357 20.9948 147.422 21.4896 147.422 22.0781V27.5H145.344V22.0625C145.344 21.6771 145.286 21.3724 145.172 21.1484C145.062 20.9245 144.901 20.7656 144.688 20.6719C144.479 20.5781 144.221 20.5312 143.914 20.5312C143.596 20.5312 143.318 20.5964 143.078 20.7266C142.844 20.8516 142.646 21.026 142.484 21.25C142.328 21.474 142.208 21.7318 142.125 22.0234C142.042 22.3151 142 22.6302 142 22.9688ZM153.898 25.7031V21.8047C153.898 21.5182 153.849 21.2708 153.75 21.0625C153.651 20.8542 153.5 20.6927 153.297 20.5781C153.094 20.4635 152.836 20.4062 152.523 20.4062C152.247 20.4062 152.005 20.4531 151.797 20.5469C151.594 20.6406 151.438 20.7734 151.328 20.9453C151.219 21.112 151.164 21.3047 151.164 21.5234H149.094C149.094 21.1745 149.177 20.8438 149.344 20.5312C149.51 20.2135 149.747 19.9323 150.055 19.6875C150.367 19.4375 150.74 19.2422 151.172 19.1016C151.609 18.9609 152.099 18.8906 152.641 18.8906C153.281 18.8906 153.852 19 154.352 19.2188C154.857 19.4323 155.253 19.7552 155.539 20.1875C155.831 20.6198 155.977 21.1641 155.977 21.8203V25.5078C155.977 25.9297 156.003 26.2917 156.055 26.5938C156.112 26.8906 156.195 27.1484 156.305 27.3672V27.5H154.203C154.104 27.2865 154.029 27.0156 153.977 26.6875C153.924 26.3542 153.898 26.026 153.898 25.7031ZM154.188 22.3516L154.203 23.5781H152.898C152.576 23.5781 152.292 23.612 152.047 23.6797C151.802 23.7422 151.602 23.8359 151.445 23.9609C151.289 24.0807 151.172 24.2266 151.094 24.3984C151.016 24.5651 150.977 24.7552 150.977 24.9688C150.977 25.1771 151.023 25.3646 151.117 25.5312C151.216 25.6979 151.357 25.8307 151.539 25.9297C151.727 26.0234 151.945 26.0703 152.195 26.0703C152.56 26.0703 152.878 25.9974 153.148 25.8516C153.419 25.7005 153.63 25.5182 153.781 25.3047C153.932 25.0911 154.013 24.888 154.023 24.6953L154.617 25.5859C154.544 25.7995 154.435 26.026 154.289 26.2656C154.143 26.5052 153.956 26.7292 153.727 26.9375C153.497 27.1458 153.221 27.3177 152.898 27.4531C152.576 27.5885 152.201 27.6562 151.773 27.6562C151.227 27.6562 150.737 27.5469 150.305 27.3281C149.872 27.1094 149.531 26.8099 149.281 26.4297C149.031 26.0495 148.906 25.6172 148.906 25.1328C148.906 24.6849 148.99 24.2891 149.156 23.9453C149.323 23.6016 149.57 23.3125 149.898 23.0781C150.227 22.8385 150.633 22.6589 151.117 22.5391C151.607 22.4141 152.167 22.3516 152.797 22.3516H154.188ZM163.211 19.0469H165.086V27.2422C165.086 28.0078 164.919 28.6562 164.586 29.1875C164.258 29.724 163.797 30.1302 163.203 30.4062C162.609 30.6875 161.919 30.8281 161.133 30.8281C160.794 30.8281 160.427 30.7812 160.031 30.6875C159.641 30.5938 159.263 30.4453 158.898 30.2422C158.539 30.0443 158.24 29.7865 158 29.4688L158.93 28.25C159.211 28.5781 159.529 28.8255 159.883 28.9922C160.237 29.1641 160.62 29.25 161.031 29.25C161.448 29.25 161.802 29.1719 162.094 29.0156C162.391 28.8646 162.617 28.6406 162.773 28.3438C162.935 28.0521 163.016 27.6927 163.016 27.2656V20.9766L163.211 19.0469ZM157.5 23.375V23.2109C157.5 22.5651 157.578 21.9792 157.734 21.4531C157.891 20.9219 158.115 20.4661 158.406 20.0859C158.703 19.7057 159.06 19.4115 159.477 19.2031C159.898 18.9948 160.372 18.8906 160.898 18.8906C161.456 18.8906 161.924 18.9922 162.305 19.1953C162.69 19.3984 163.008 19.6875 163.258 20.0625C163.513 20.4375 163.711 20.8828 163.852 21.3984C163.997 21.9089 164.109 22.4714 164.188 23.0859V23.5312C164.115 24.1302 163.997 24.6797 163.836 25.1797C163.68 25.6797 163.471 26.1172 163.211 26.4922C162.951 26.862 162.628 27.1484 162.242 27.3516C161.857 27.5547 161.404 27.6562 160.883 27.6562C160.362 27.6562 159.893 27.5495 159.477 27.3359C159.06 27.1224 158.703 26.8229 158.406 26.4375C158.115 26.0521 157.891 25.599 157.734 25.0781C157.578 24.5573 157.5 23.9896 157.5 23.375ZM159.562 23.2109V23.375C159.562 23.7396 159.599 24.0807 159.672 24.3984C159.745 24.7161 159.857 24.9974 160.008 25.2422C160.159 25.4818 160.349 25.6693 160.578 25.8047C160.807 25.9401 161.081 26.0078 161.398 26.0078C161.826 26.0078 162.174 25.9193 162.445 25.7422C162.721 25.5599 162.93 25.3125 163.07 25C163.216 24.6823 163.31 24.3255 163.352 23.9297V22.7031C163.326 22.3906 163.268 22.1016 163.18 21.8359C163.096 21.5703 162.979 21.3411 162.828 21.1484C162.677 20.9557 162.484 20.8047 162.25 20.6953C162.016 20.5859 161.737 20.5312 161.414 20.5312C161.102 20.5312 160.828 20.6016 160.594 20.7422C160.359 20.8776 160.167 21.0677 160.016 21.3125C159.865 21.5573 159.75 21.8411 159.672 22.1641C159.599 22.487 159.562 22.8359 159.562 23.2109ZM170.742 27.6562C170.102 27.6562 169.526 27.5521 169.016 27.3438C168.505 27.1354 168.07 26.8464 167.711 26.4766C167.357 26.1016 167.083 25.6667 166.891 25.1719C166.703 24.6719 166.609 24.1354 166.609 23.5625V23.25C166.609 22.599 166.703 22.0078 166.891 21.4766C167.078 20.9401 167.344 20.4792 167.688 20.0938C168.031 19.7083 168.443 19.4115 168.922 19.2031C169.401 18.9948 169.93 18.8906 170.508 18.8906C171.107 18.8906 171.635 18.9922 172.094 19.1953C172.552 19.3932 172.935 19.6745 173.242 20.0391C173.549 20.4036 173.781 20.8411 173.938 21.3516C174.094 21.8568 174.172 22.4167 174.172 23.0312V23.8984H167.547V22.4766H172.141V22.3203C172.13 21.9922 172.068 21.6927 171.953 21.4219C171.839 21.1458 171.661 20.9271 171.422 20.7656C171.182 20.599 170.872 20.5156 170.492 20.5156C170.185 20.5156 169.917 20.5833 169.688 20.7188C169.464 20.849 169.276 21.0365 169.125 21.2812C168.979 21.5208 168.87 21.8073 168.797 22.1406C168.724 22.474 168.688 22.8438 168.688 23.25V23.5625C168.688 23.9167 168.734 24.2448 168.828 24.5469C168.927 24.849 169.07 25.112 169.258 25.3359C169.451 25.5547 169.68 25.7266 169.945 25.8516C170.216 25.9714 170.523 26.0312 170.867 26.0312C171.299 26.0312 171.69 25.9479 172.039 25.7812C172.393 25.6094 172.701 25.3568 172.961 25.0234L174 26.1016C173.823 26.362 173.583 26.612 173.281 26.8516C172.984 27.0911 172.625 27.2865 172.203 27.4375C171.781 27.5833 171.294 27.6562 170.742 27.6562ZM177.609 20.7812V27.5H175.547V19.0469H177.492L177.609 20.7812ZM177.305 22.9688H176.672C176.672 22.3802 176.742 21.8385 176.883 21.3438C177.029 20.849 177.242 20.4193 177.523 20.0547C177.805 19.6849 178.151 19.3984 178.562 19.1953C178.979 18.9922 179.461 18.8906 180.008 18.8906C180.388 18.8906 180.737 18.9479 181.055 19.0625C181.372 19.1719 181.646 19.3464 181.875 19.5859C182.109 19.8203 182.289 20.1276 182.414 20.5078C182.539 20.8828 182.602 21.3333 182.602 21.8594V27.5H180.539V22.0703C180.539 21.6745 180.482 21.3646 180.367 21.1406C180.258 20.9167 180.099 20.7604 179.891 20.6719C179.682 20.5781 179.432 20.5312 179.141 20.5312C178.818 20.5312 178.539 20.5964 178.305 20.7266C178.076 20.8516 177.885 21.026 177.734 21.25C177.589 21.474 177.479 21.7318 177.406 22.0234C177.339 22.3151 177.305 22.6302 177.305 22.9688ZM182.445 22.5859L181.594 22.7422C181.599 22.2109 181.672 21.7135 181.812 21.25C181.953 20.7812 182.159 20.3724 182.43 20.0234C182.706 19.6693 183.047 19.3932 183.453 19.1953C183.865 18.9922 184.339 18.8906 184.875 18.8906C185.292 18.8906 185.667 18.9505 186 19.0703C186.339 19.1849 186.628 19.3698 186.867 19.625C187.107 19.875 187.289 20.2005 187.414 20.6016C187.544 21.0026 187.609 21.4922 187.609 22.0703V27.5H185.531V22.0625C185.531 21.651 185.474 21.3359 185.359 21.1172C185.25 20.8984 185.091 20.7474 184.883 20.6641C184.674 20.5755 184.43 20.5312 184.148 20.5312C183.862 20.5312 183.612 20.5859 183.398 20.6953C183.19 20.7995 183.013 20.9453 182.867 21.1328C182.727 21.3203 182.62 21.5391 182.547 21.7891C182.479 22.0339 182.445 22.2995 182.445 22.5859ZM193.258 27.6562C192.617 27.6562 192.042 27.5521 191.531 27.3438C191.021 27.1354 190.586 26.8464 190.227 26.4766C189.872 26.1016 189.599 25.6667 189.406 25.1719C189.219 24.6719 189.125 24.1354 189.125 23.5625V23.25C189.125 22.599 189.219 22.0078 189.406 21.4766C189.594 20.9401 189.859 20.4792 190.203 20.0938C190.547 19.7083 190.958 19.4115 191.438 19.2031C191.917 18.9948 192.445 18.8906 193.023 18.8906C193.622 18.8906 194.151 18.9922 194.609 19.1953C195.068 19.3932 195.451 19.6745 195.758 20.0391C196.065 20.4036 196.297 20.8411 196.453 21.3516C196.609 21.8568 196.688 22.4167 196.688 23.0312V23.8984H190.062V22.4766H194.656V22.3203C194.646 21.9922 194.583 21.6927 194.469 21.4219C194.354 21.1458 194.177 20.9271 193.938 20.7656C193.698 20.599 193.388 20.5156 193.008 20.5156C192.701 20.5156 192.432 20.5833 192.203 20.7188C191.979 20.849 191.792 21.0365 191.641 21.2812C191.495 21.5208 191.385 21.8073 191.312 22.1406C191.24 22.474 191.203 22.8438 191.203 23.25V23.5625C191.203 23.9167 191.25 24.2448 191.344 24.5469C191.443 24.849 191.586 25.112 191.773 25.3359C191.966 25.5547 192.195 25.7266 192.461 25.8516C192.732 25.9714 193.039 26.0312 193.383 26.0312C193.815 26.0312 194.206 25.9479 194.555 25.7812C194.909 25.6094 195.216 25.3568 195.477 25.0234L196.516 26.1016C196.339 26.362 196.099 26.612 195.797 26.8516C195.5 27.0911 195.141 27.2865 194.719 27.4375C194.297 27.5833 193.81 27.6562 193.258 27.6562ZM200.094 20.8516V27.5H198.031V19.0469H199.969L200.094 20.8516ZM199.766 22.9688H199.156C199.161 22.3542 199.245 21.7969 199.406 21.2969C199.568 20.7969 199.794 20.3672 200.086 20.0078C200.383 19.6484 200.734 19.3724 201.141 19.1797C201.547 18.987 202 18.8906 202.5 18.8906C202.906 18.8906 203.273 18.9479 203.602 19.0625C203.93 19.1771 204.211 19.3594 204.445 19.6094C204.685 19.8594 204.867 20.1875 204.992 20.5938C205.122 20.9948 205.188 21.4896 205.188 22.0781V27.5H203.109V22.0625C203.109 21.6771 203.052 21.3724 202.938 21.1484C202.828 20.9245 202.667 20.7656 202.453 20.6719C202.245 20.5781 201.987 20.5312 201.68 20.5312C201.362 20.5312 201.083 20.5964 200.844 20.7266C200.609 20.8516 200.411 21.026 200.25 21.25C200.094 21.474 199.974 21.7318 199.891 22.0234C199.807 22.3151 199.766 22.6302 199.766 22.9688ZM211.008 19.0469V20.5312H206.164V19.0469H211.008ZM207.461 16.9688H209.531V25.0625C209.531 25.3125 209.565 25.5052 209.633 25.6406C209.701 25.776 209.802 25.8672 209.938 25.9141C210.073 25.9609 210.234 25.9844 210.422 25.9844C210.557 25.9844 210.682 25.9766 210.797 25.9609C210.911 25.9453 211.008 25.9297 211.086 25.9141L211.094 27.4609C210.922 27.5182 210.727 27.5651 210.508 27.6016C210.294 27.638 210.052 27.6562 209.781 27.6562C209.318 27.6562 208.911 27.5781 208.562 27.4219C208.214 27.2604 207.943 27.0026 207.75 26.6484C207.557 26.2891 207.461 25.8151 207.461 25.2266V16.9688Z" fill="#329141"/>
</svg>
