<svg width="42" height="26" viewBox="0 0 42 26" fill="none" xmlns="http://www.w3.org/2000/svg">
<path d="M29.9479 23.4087C31.3509 22.0057 32.1392 20.1027 32.1392 18.1185L32.1392 14.4174C32.1392 8.89458 27.662 4.41743 22.1392 4.41743L5.11307 4.41743C2.28921 4.41743 3.07429e-05 6.70662 3.07092e-05 9.53047C3.06755e-05 12.3543 2.28922 14.6435 5.11307 14.6435L8.45222 14.6435C11.3843 14.6435 13.7006 17.1312 13.4917 20.0558C13.2993 22.7493 15.259 25.118 17.9409 25.4335L19.3566 25.6L24.6576 25.6C26.6418 25.6 28.5448 24.8118 29.9479 23.4087Z" fill="#449B52"/>
<path d="M39.4551 19.0378C40.7644 17.7285 41.5 15.9527 41.5 14.1011L41.5 10.4C41.5 5.15333 37.2467 0.900032 32 0.900032L14.9739 0.900032C12.4262 0.900032 10.3609 2.96536 10.3609 5.51307C10.3609 8.06079 12.4262 10.1261 14.9739 10.1261L18.3131 10.1261C21.5353 10.1261 24.0808 12.86 23.8513 16.074C23.6779 18.501 25.4437 20.6352 27.8601 20.9195L29.2467 21.0826L34.5184 21.0826C36.37 21.0826 38.1458 20.3471 39.4551 19.0378Z" fill="#327A3E" stroke="#449B52"/>
</svg>
