<svg width="182" height="44" viewBox="0 0 182 44" fill="none" xmlns="http://www.w3.org/2000/svg">
<rect x="0.5" y="0.5" width="181" height="43" rx="9.5" stroke="#329141"/>
<path d="M18 23V18H36V23C36 26.7712 36 28.6569 34.8284 29.8284C33.6569 31 31.7712 31 28 31H26C22.2288 31 20.3431 31 19.1716 29.8284C18 28.6569 18 26.7712 18 23Z" stroke="#329141" stroke-width="2" stroke-linecap="round" stroke-linejoin="round"/>
<path d="M18 18L18.8654 16.0769C19.5365 14.5855 19.8721 13.8397 20.5523 13.4199C21.2325 13 22.105 13 23.85 13H30.15C31.895 13 32.7675 13 33.4477 13.4199C34.1279 13.8397 34.4635 14.5855 35.1346 16.0769L36 18" stroke="#329141" stroke-width="2" stroke-linecap="round"/>
<path d="M27 18V13" stroke="#329141" stroke-width="2" stroke-linecap="round"/>
<path d="M23.5 23.5H29C30.1046 23.5 31 24.3954 31 25.5C31 26.6046 30.1046 27.5 29 27.5H28M25 21.5L23 23.5L25 25.5" stroke="#329141" stroke-width="2" stroke-linecap="round" stroke-linejoin="round"/>
<path d="M51.0234 16.125H52.8828L55.9922 24.6875L59.0938 16.125H60.9609L56.7344 27.5H55.2422L51.0234 16.125ZM50.0859 16.125H51.9062L52.2344 23.9922V27.5H50.0859V16.125ZM60.0703 16.125H61.8984V27.5H59.75V23.9922L60.0703 16.125ZM68.5859 25.7031V21.8047C68.5859 21.5182 68.5365 21.2708 68.4375 21.0625C68.3385 20.8542 68.1875 20.6927 67.9844 20.5781C67.7812 20.4635 67.5234 20.4062 67.2109 20.4062C66.9349 20.4062 66.6927 20.4531 66.4844 20.5469C66.2812 20.6406 66.125 20.7734 66.0156 20.9453C65.9062 21.112 65.8516 21.3047 65.8516 21.5234H63.7812C63.7812 21.1745 63.8646 20.8438 64.0312 20.5312C64.1979 20.2135 64.4349 19.9323 64.7422 19.6875C65.0547 19.4375 65.4271 19.2422 65.8594 19.1016C66.2969 18.9609 66.7865 18.8906 67.3281 18.8906C67.9688 18.8906 68.5391 19 69.0391 19.2188C69.5443 19.4323 69.9401 19.7552 70.2266 20.1875C70.5182 20.6198 70.6641 21.1641 70.6641 21.8203V25.5078C70.6641 25.9297 70.6901 26.2917 70.7422 26.5938C70.7995 26.8906 70.8828 27.1484 70.9922 27.3672V27.5H68.8906C68.7917 27.2865 68.7161 27.0156 68.6641 26.6875C68.612 26.3542 68.5859 26.026 68.5859 25.7031ZM68.875 22.3516L68.8906 23.5781H67.5859C67.263 23.5781 66.9792 23.612 66.7344 23.6797C66.4896 23.7422 66.2891 23.8359 66.1328 23.9609C65.9766 24.0807 65.8594 24.2266 65.7812 24.3984C65.7031 24.5651 65.6641 24.7552 65.6641 24.9688C65.6641 25.1771 65.7109 25.3646 65.8047 25.5312C65.9036 25.6979 66.0443 25.8307 66.2266 25.9297C66.4141 26.0234 66.6328 26.0703 66.8828 26.0703C67.2474 26.0703 67.5651 25.9974 67.8359 25.8516C68.1068 25.7005 68.3177 25.5182 68.4688 25.3047C68.6198 25.0911 68.7005 24.888 68.7109 24.6953L69.3047 25.5859C69.2318 25.7995 69.1224 26.026 68.9766 26.2656C68.8307 26.5052 68.6432 26.7292 68.4141 26.9375C68.1849 27.1458 67.9089 27.3177 67.5859 27.4531C67.263 27.5885 66.888 27.6562 66.4609 27.6562C65.9141 27.6562 65.4245 27.5469 64.9922 27.3281C64.5599 27.1094 64.2188 26.8099 63.9688 26.4297C63.7188 26.0495 63.5938 25.6172 63.5938 25.1328C63.5938 24.6849 63.6771 24.2891 63.8438 23.9453C64.0104 23.6016 64.2578 23.3125 64.5859 23.0781C64.9141 22.8385 65.3203 22.6589 65.8047 22.5391C66.2943 22.4141 66.8542 22.3516 67.4844 22.3516H68.875ZM74.5469 20.8516V27.5H72.4844V19.0469H74.4219L74.5469 20.8516ZM74.2188 22.9688H73.6094C73.6146 22.3542 73.6979 21.7969 73.8594 21.2969C74.0208 20.7969 74.2474 20.3672 74.5391 20.0078C74.8359 19.6484 75.1875 19.3724 75.5938 19.1797C76 18.987 76.4531 18.8906 76.9531 18.8906C77.3594 18.8906 77.7266 18.9479 78.0547 19.0625C78.3828 19.1771 78.6641 19.3594 78.8984 19.6094C79.138 19.8594 79.3203 20.1875 79.4453 20.5938C79.5755 20.9948 79.6406 21.4896 79.6406 22.0781V27.5H77.5625V22.0625C77.5625 21.6771 77.5052 21.3724 77.3906 21.1484C77.2812 20.9245 77.1198 20.7656 76.9062 20.6719C76.6979 20.5781 76.4401 20.5312 76.1328 20.5312C75.8151 20.5312 75.5365 20.5964 75.2969 20.7266C75.0625 20.8516 74.8646 21.026 74.7031 21.25C74.5469 21.474 74.4271 21.7318 74.3438 22.0234C74.2604 22.3151 74.2188 22.6302 74.2188 22.9688ZM86.1172 25.7031V21.8047C86.1172 21.5182 86.0677 21.2708 85.9688 21.0625C85.8698 20.8542 85.7188 20.6927 85.5156 20.5781C85.3125 20.4635 85.0547 20.4062 84.7422 20.4062C84.4661 20.4062 84.224 20.4531 84.0156 20.5469C83.8125 20.6406 83.6562 20.7734 83.5469 20.9453C83.4375 21.112 83.3828 21.3047 83.3828 21.5234H81.3125C81.3125 21.1745 81.3958 20.8438 81.5625 20.5312C81.7292 20.2135 81.9661 19.9323 82.2734 19.6875C82.5859 19.4375 82.9583 19.2422 83.3906 19.1016C83.8281 18.9609 84.3177 18.8906 84.8594 18.8906C85.5 18.8906 86.0703 19 86.5703 19.2188C87.0755 19.4323 87.4714 19.7552 87.7578 20.1875C88.0495 20.6198 88.1953 21.1641 88.1953 21.8203V25.5078C88.1953 25.9297 88.2214 26.2917 88.2734 26.5938C88.3307 26.8906 88.4141 27.1484 88.5234 27.3672V27.5H86.4219C86.3229 27.2865 86.2474 27.0156 86.1953 26.6875C86.1432 26.3542 86.1172 26.026 86.1172 25.7031ZM86.4062 22.3516L86.4219 23.5781H85.1172C84.7943 23.5781 84.5104 23.612 84.2656 23.6797C84.0208 23.7422 83.8203 23.8359 83.6641 23.9609C83.5078 24.0807 83.3906 24.2266 83.3125 24.3984C83.2344 24.5651 83.1953 24.7552 83.1953 24.9688C83.1953 25.1771 83.2422 25.3646 83.3359 25.5312C83.4349 25.6979 83.5755 25.8307 83.7578 25.9297C83.9453 26.0234 84.1641 26.0703 84.4141 26.0703C84.7786 26.0703 85.0964 25.9974 85.3672 25.8516C85.638 25.7005 85.849 25.5182 86 25.3047C86.151 25.0911 86.2318 24.888 86.2422 24.6953L86.8359 25.5859C86.763 25.7995 86.6536 26.026 86.5078 26.2656C86.362 26.5052 86.1745 26.7292 85.9453 26.9375C85.7161 27.1458 85.4401 27.3177 85.1172 27.4531C84.7943 27.5885 84.4193 27.6562 83.9922 27.6562C83.4453 27.6562 82.9557 27.5469 82.5234 27.3281C82.0911 27.1094 81.75 26.8099 81.5 26.4297C81.25 26.0495 81.125 25.6172 81.125 25.1328C81.125 24.6849 81.2083 24.2891 81.375 23.9453C81.5417 23.6016 81.7891 23.3125 82.1172 23.0781C82.4453 22.8385 82.8516 22.6589 83.3359 22.5391C83.8255 22.4141 84.3854 22.3516 85.0156 22.3516H86.4062ZM95.4297 19.0469H97.3047V27.2422C97.3047 28.0078 97.138 28.6562 96.8047 29.1875C96.4766 29.724 96.0156 30.1302 95.4219 30.4062C94.8281 30.6875 94.138 30.8281 93.3516 30.8281C93.013 30.8281 92.6458 30.7812 92.25 30.6875C91.8594 30.5938 91.4818 30.4453 91.1172 30.2422C90.7578 30.0443 90.4583 29.7865 90.2188 29.4688L91.1484 28.25C91.4297 28.5781 91.7474 28.8255 92.1016 28.9922C92.4557 29.1641 92.8385 29.25 93.25 29.25C93.6667 29.25 94.0208 29.1719 94.3125 29.0156C94.6094 28.8646 94.8359 28.6406 94.9922 28.3438C95.1536 28.0521 95.2344 27.6927 95.2344 27.2656V20.9766L95.4297 19.0469ZM89.7188 23.375V23.2109C89.7188 22.5651 89.7969 21.9792 89.9531 21.4531C90.1094 20.9219 90.3333 20.4661 90.625 20.0859C90.9219 19.7057 91.2786 19.4115 91.6953 19.2031C92.1172 18.9948 92.5911 18.8906 93.1172 18.8906C93.6745 18.8906 94.1432 18.9922 94.5234 19.1953C94.9089 19.3984 95.2266 19.6875 95.4766 20.0625C95.7318 20.4375 95.9297 20.8828 96.0703 21.3984C96.2161 21.9089 96.3281 22.4714 96.4062 23.0859V23.5312C96.3333 24.1302 96.2161 24.6797 96.0547 25.1797C95.8984 25.6797 95.6901 26.1172 95.4297 26.4922C95.1693 26.862 94.8464 27.1484 94.4609 27.3516C94.0755 27.5547 93.6224 27.6562 93.1016 27.6562C92.5807 27.6562 92.112 27.5495 91.6953 27.3359C91.2786 27.1224 90.9219 26.8229 90.625 26.4375C90.3333 26.0521 90.1094 25.599 89.9531 25.0781C89.7969 24.5573 89.7188 23.9896 89.7188 23.375ZM91.7812 23.2109V23.375C91.7812 23.7396 91.8177 24.0807 91.8906 24.3984C91.9635 24.7161 92.0755 24.9974 92.2266 25.2422C92.3776 25.4818 92.5677 25.6693 92.7969 25.8047C93.026 25.9401 93.2995 26.0078 93.6172 26.0078C94.0443 26.0078 94.3932 25.9193 94.6641 25.7422C94.9401 25.5599 95.1484 25.3125 95.2891 25C95.4349 24.6823 95.5286 24.3255 95.5703 23.9297V22.7031C95.5443 22.3906 95.487 22.1016 95.3984 21.8359C95.3151 21.5703 95.1979 21.3411 95.0469 21.1484C94.8958 20.9557 94.7031 20.8047 94.4688 20.6953C94.2344 20.5859 93.9557 20.5312 93.6328 20.5312C93.3203 20.5312 93.0469 20.6016 92.8125 20.7422C92.5781 20.8776 92.3854 21.0677 92.2344 21.3125C92.0833 21.5573 91.9688 21.8411 91.8906 22.1641C91.8177 22.487 91.7812 22.8359 91.7812 23.2109ZM102.961 27.6562C102.32 27.6562 101.745 27.5521 101.234 27.3438C100.724 27.1354 100.289 26.8464 99.9297 26.4766C99.5755 26.1016 99.3021 25.6667 99.1094 25.1719C98.9219 24.6719 98.8281 24.1354 98.8281 23.5625V23.25C98.8281 22.599 98.9219 22.0078 99.1094 21.4766C99.2969 20.9401 99.5625 20.4792 99.9062 20.0938C100.25 19.7083 100.661 19.4115 101.141 19.2031C101.62 18.9948 102.148 18.8906 102.727 18.8906C103.326 18.8906 103.854 18.9922 104.312 19.1953C104.771 19.3932 105.154 19.6745 105.461 20.0391C105.768 20.4036 106 20.8411 106.156 21.3516C106.312 21.8568 106.391 22.4167 106.391 23.0312V23.8984H99.7656V22.4766H104.359V22.3203C104.349 21.9922 104.286 21.6927 104.172 21.4219C104.057 21.1458 103.88 20.9271 103.641 20.7656C103.401 20.599 103.091 20.5156 102.711 20.5156C102.404 20.5156 102.135 20.5833 101.906 20.7188C101.682 20.849 101.495 21.0365 101.344 21.2812C101.198 21.5208 101.089 21.8073 101.016 22.1406C100.943 22.474 100.906 22.8438 100.906 23.25V23.5625C100.906 23.9167 100.953 24.2448 101.047 24.5469C101.146 24.849 101.289 25.112 101.477 25.3359C101.669 25.5547 101.898 25.7266 102.164 25.8516C102.435 25.9714 102.742 26.0312 103.086 26.0312C103.518 26.0312 103.909 25.9479 104.258 25.7812C104.612 25.6094 104.919 25.3568 105.18 25.0234L106.219 26.1016C106.042 26.362 105.802 26.612 105.5 26.8516C105.203 27.0911 104.844 27.2865 104.422 27.4375C104 27.5833 103.513 27.6562 102.961 27.6562ZM111.914 16.125H116.047C116.911 16.125 117.654 16.2552 118.273 16.5156C118.893 16.776 119.37 17.1615 119.703 17.6719C120.036 18.1823 120.203 18.8099 120.203 19.5547C120.203 20.1432 120.099 20.6536 119.891 21.0859C119.682 21.5182 119.388 21.8802 119.008 22.1719C118.633 22.4635 118.19 22.6927 117.68 22.8594L117.008 23.2031H113.359L113.344 21.5078H116.07C116.513 21.5078 116.88 21.4297 117.172 21.2734C117.464 21.1172 117.682 20.901 117.828 20.625C117.979 20.349 118.055 20.0339 118.055 19.6797C118.055 19.2995 117.982 18.9714 117.836 18.6953C117.69 18.4141 117.469 18.1979 117.172 18.0469C116.875 17.8958 116.5 17.8203 116.047 17.8203H114.062V27.5H111.914V16.125ZM118.336 27.5L115.703 22.4062L117.977 22.3984L120.641 27.3906V27.5H118.336ZM125.727 27.6562C125.086 27.6562 124.51 27.5521 124 27.3438C123.49 27.1354 123.055 26.8464 122.695 26.4766C122.341 26.1016 122.068 25.6667 121.875 25.1719C121.688 24.6719 121.594 24.1354 121.594 23.5625V23.25C121.594 22.599 121.688 22.0078 121.875 21.4766C122.062 20.9401 122.328 20.4792 122.672 20.0938C123.016 19.7083 123.427 19.4115 123.906 19.2031C124.385 18.9948 124.914 18.8906 125.492 18.8906C126.091 18.8906 126.62 18.9922 127.078 19.1953C127.536 19.3932 127.919 19.6745 128.227 20.0391C128.534 20.4036 128.766 20.8411 128.922 21.3516C129.078 21.8568 129.156 22.4167 129.156 23.0312V23.8984H122.531V22.4766H127.125V22.3203C127.115 21.9922 127.052 21.6927 126.938 21.4219C126.823 21.1458 126.646 20.9271 126.406 20.7656C126.167 20.599 125.857 20.5156 125.477 20.5156C125.169 20.5156 124.901 20.5833 124.672 20.7188C124.448 20.849 124.26 21.0365 124.109 21.2812C123.964 21.5208 123.854 21.8073 123.781 22.1406C123.708 22.474 123.672 22.8438 123.672 23.25V23.5625C123.672 23.9167 123.719 24.2448 123.812 24.5469C123.911 24.849 124.055 25.112 124.242 25.3359C124.435 25.5547 124.664 25.7266 124.93 25.8516C125.201 25.9714 125.508 26.0312 125.852 26.0312C126.284 26.0312 126.674 25.9479 127.023 25.7812C127.378 25.6094 127.685 25.3568 127.945 25.0234L128.984 26.1016C128.807 26.362 128.568 26.612 128.266 26.8516C127.969 27.0911 127.609 27.2865 127.188 27.4375C126.766 27.5833 126.279 27.6562 125.727 27.6562ZM134.539 19.0469V20.5312H129.695V19.0469H134.539ZM130.992 16.9688H133.062V25.0625C133.062 25.3125 133.096 25.5052 133.164 25.6406C133.232 25.776 133.333 25.8672 133.469 25.9141C133.604 25.9609 133.766 25.9844 133.953 25.9844C134.089 25.9844 134.214 25.9766 134.328 25.9609C134.443 25.9453 134.539 25.9297 134.617 25.9141L134.625 27.4609C134.453 27.5182 134.258 27.5651 134.039 27.6016C133.826 27.638 133.583 27.6562 133.312 27.6562C132.849 27.6562 132.443 27.5781 132.094 27.4219C131.745 27.2604 131.474 27.0026 131.281 26.6484C131.089 26.2891 130.992 25.8151 130.992 25.2266V16.9688ZM140.945 25.4922V19.0469H143.023V27.5H141.07L140.945 25.4922ZM141.211 23.7422L141.852 23.7266C141.852 24.2943 141.789 24.8177 141.664 25.2969C141.539 25.776 141.344 26.1927 141.078 26.5469C140.818 26.8958 140.487 27.1693 140.086 27.3672C139.685 27.5599 139.211 27.6562 138.664 27.6562C138.247 27.6562 137.867 27.599 137.523 27.4844C137.18 27.3646 136.883 27.1797 136.633 26.9297C136.388 26.6745 136.198 26.349 136.062 25.9531C135.927 25.5521 135.859 25.0703 135.859 24.5078V19.0469H137.922V24.5234C137.922 24.8047 137.953 25.0391 138.016 25.2266C138.083 25.4141 138.174 25.5677 138.289 25.6875C138.409 25.8021 138.547 25.8854 138.703 25.9375C138.865 25.9844 139.036 26.0078 139.219 26.0078C139.719 26.0078 140.112 25.9089 140.398 25.7109C140.69 25.5078 140.898 25.237 141.023 24.8984C141.148 24.5547 141.211 24.1693 141.211 23.7422ZM146.914 20.7734V27.5H144.852V19.0469H146.805L146.914 20.7734ZM149.484 18.9922L149.453 20.9141C149.339 20.8932 149.208 20.8776 149.062 20.8672C148.922 20.8568 148.789 20.8516 148.664 20.8516C148.346 20.8516 148.068 20.8958 147.828 20.9844C147.589 21.0677 147.388 21.1901 147.227 21.3516C147.07 21.513 146.951 21.7109 146.867 21.9453C146.784 22.1745 146.737 22.4349 146.727 22.7266L146.281 22.6719C146.281 22.1354 146.336 21.638 146.445 21.1797C146.555 20.7214 146.714 20.3203 146.922 19.9766C147.13 19.6328 147.391 19.3672 147.703 19.1797C148.021 18.987 148.385 18.8906 148.797 18.8906C148.911 18.8906 149.034 18.901 149.164 18.9219C149.299 18.9375 149.406 18.9609 149.484 18.9922ZM152.641 20.8516V27.5H150.578V19.0469H152.516L152.641 20.8516ZM152.312 22.9688H151.703C151.708 22.3542 151.792 21.7969 151.953 21.2969C152.115 20.7969 152.341 20.3672 152.633 20.0078C152.93 19.6484 153.281 19.3724 153.688 19.1797C154.094 18.987 154.547 18.8906 155.047 18.8906C155.453 18.8906 155.82 18.9479 156.148 19.0625C156.477 19.1771 156.758 19.3594 156.992 19.6094C157.232 19.8594 157.414 20.1875 157.539 20.5938C157.669 20.9948 157.734 21.4896 157.734 22.0781V27.5H155.656V22.0625C155.656 21.6771 155.599 21.3724 155.484 21.1484C155.375 20.9245 155.214 20.7656 155 20.6719C154.792 20.5781 154.534 20.5312 154.227 20.5312C153.909 20.5312 153.63 20.5964 153.391 20.7266C153.156 20.8516 152.958 21.026 152.797 21.25C152.641 21.474 152.521 21.7318 152.438 22.0234C152.354 22.3151 152.312 22.6302 152.312 22.9688ZM164.203 25.1875C164.203 25.0104 164.156 24.8516 164.062 24.7109C163.969 24.5703 163.792 24.4427 163.531 24.3281C163.276 24.2083 162.901 24.0964 162.406 23.9922C161.969 23.8984 161.565 23.7812 161.195 23.6406C160.826 23.5 160.508 23.3307 160.242 23.1328C159.977 22.9297 159.768 22.6927 159.617 22.4219C159.471 22.1458 159.398 21.8281 159.398 21.4688C159.398 21.1198 159.474 20.7917 159.625 20.4844C159.776 20.1719 159.995 19.8984 160.281 19.6641C160.568 19.4245 160.917 19.237 161.328 19.1016C161.74 18.9609 162.203 18.8906 162.719 18.8906C163.438 18.8906 164.055 19.0078 164.57 19.2422C165.091 19.4766 165.49 19.7995 165.766 20.2109C166.042 20.6172 166.18 21.0755 166.18 21.5859H164.117C164.117 21.362 164.065 21.1589 163.961 20.9766C163.862 20.7943 163.708 20.6484 163.5 20.5391C163.292 20.4245 163.029 20.3672 162.711 20.3672C162.424 20.3672 162.182 20.4141 161.984 20.5078C161.792 20.6016 161.646 20.724 161.547 20.875C161.448 21.026 161.398 21.1927 161.398 21.375C161.398 21.5104 161.424 21.6328 161.477 21.7422C161.534 21.8464 161.625 21.9427 161.75 22.0312C161.875 22.1198 162.044 22.2005 162.258 22.2734C162.477 22.3464 162.745 22.4167 163.062 22.4844C163.693 22.6094 164.242 22.776 164.711 22.9844C165.185 23.1875 165.555 23.4583 165.82 23.7969C166.086 24.1354 166.219 24.5677 166.219 25.0938C166.219 25.4688 166.138 25.8125 165.977 26.125C165.815 26.4323 165.581 26.7005 165.273 26.9297C164.966 27.1589 164.599 27.3385 164.172 27.4688C163.745 27.5938 163.263 27.6562 162.727 27.6562C161.951 27.6562 161.294 27.5182 160.758 27.2422C160.221 26.9609 159.815 26.6068 159.539 26.1797C159.263 25.7474 159.125 25.2995 159.125 24.8359H161.102C161.117 25.1641 161.206 25.4271 161.367 25.625C161.529 25.8229 161.732 25.9661 161.977 26.0547C162.227 26.138 162.49 26.1797 162.766 26.1797C163.078 26.1797 163.341 26.138 163.555 26.0547C163.768 25.9661 163.93 25.849 164.039 25.7031C164.148 25.5521 164.203 25.3802 164.203 25.1875Z" fill="#329141"/>
</svg>
