<svg width="24" height="24" viewBox="0 0 24 24" fill="none" xmlns="http://www.w3.org/2000/svg">
<path d="M18.0002 20H16.0002C15.7169 20 15.4792 19.904 15.2872 19.712C15.0952 19.52 14.9995 19.2827 15.0002 19C15.0002 18.7167 15.0962 18.479 15.2882 18.287C15.4802 18.095 15.7175 17.9993 16.0002 18H18.0002V16C18.0002 15.7167 18.0962 15.479 18.2882 15.287C18.4802 15.095 18.7175 14.9993 19.0002 15C19.2835 15 19.5212 15.096 19.7132 15.288C19.9052 15.48 20.0009 15.7173 20.0002 16V18H22.0002C22.2835 18 22.5212 18.096 22.7132 18.288C22.9052 18.48 23.0009 18.7173 23.0002 19C23.0002 19.2833 22.9042 19.521 22.7122 19.713C22.5202 19.905 22.2829 20.0007 22.0002 20H20.0002V22C20.0002 22.2833 19.9042 22.521 19.7122 22.713C19.5202 22.905 19.2829 23.0007 19.0002 23C18.7169 23 18.4792 22.904 18.2872 22.712C18.0952 22.52 17.9995 22.2827 18.0002 22V20ZM3.0002 20C2.71686 20 2.4792 19.904 2.2872 19.712C2.0952 19.52 1.99953 19.2827 2.0002 19V14H1.8252C1.50853 14 1.2502 13.879 1.0502 13.637C0.850195 13.395 0.783529 13.116 0.850195 12.8L1.8502 7.8C1.9002 7.56667 2.01686 7.375 2.2002 7.225C2.38353 7.075 2.59186 7 2.8252 7H16.1752C16.4085 7 16.6169 7.075 16.8002 7.225C16.9835 7.375 17.1002 7.56667 17.1502 7.8L18.1502 12.8C18.2169 13.1167 18.1502 13.396 17.9502 13.638C17.7502 13.88 17.4919 14.0007 17.1752 14H17.0002V16C17.0002 16.2833 16.9042 16.521 16.7122 16.713C16.5202 16.905 16.2829 17.0007 16.0002 17C15.7169 17 15.4792 16.904 15.2872 16.712C15.0952 16.52 14.9995 16.2827 15.0002 16V14H11.0002V19C11.0002 19.2833 10.9042 19.521 10.7122 19.713C10.5202 19.905 10.2829 20.0007 10.0002 20H3.0002ZM4.0002 18H9.0002V14H4.0002V18ZM3.0002 6C2.71686 6 2.4792 5.904 2.2872 5.712C2.0952 5.52 1.99953 5.28267 2.0002 5C2.0002 4.71667 2.0962 4.479 2.2882 4.287C2.4802 4.095 2.71753 3.99934 3.0002 4H16.0002C16.2835 4 16.5212 4.096 16.7132 4.288C16.9052 4.48 17.0009 4.71734 17.0002 5C17.0002 5.28334 16.9042 5.521 16.7122 5.713C16.5202 5.905 16.2829 6.00067 16.0002 6H3.0002ZM3.0502 12H15.9502L15.3502 9H3.6502L3.0502 12Z" fill="white"/>
</svg>
