<svg width="44" height="34" viewBox="0 0 44 34" fill="none" xmlns="http://www.w3.org/2000/svg">
<rect x="0.5" y="0.5" width="43" height="33" rx="9.5" stroke="#304C57" stroke-opacity="0.2"/>
<g opacity="0.8">
<path d="M19 22V23C19 23.7956 19.3161 24.5587 19.8787 25.1213C20.4413 25.6839 21.2044 26 22 26C22.7956 26 23.5587 25.6839 24.1213 25.1213C24.6839 24.5587 25 23.7956 25 23V22M20 10C20 9.46957 20.2107 8.96086 20.5858 8.58579C20.9609 8.21071 21.4696 8 22 8C22.5304 8 23.0391 8.21071 23.4142 8.58579C23.7893 8.96086 24 9.46957 24 10C25.1484 10.543 26.1274 11.3883 26.8321 12.4453C27.5367 13.5023 27.9404 14.7311 28 16V19C28.0753 19.6217 28.2954 20.2171 28.6428 20.7381C28.9902 21.2592 29.4551 21.6914 30 22H14C14.5449 21.6914 15.0098 21.2592 15.3572 20.7381C15.7046 20.2171 15.9247 19.6217 16 19V16C16.0596 14.7311 16.4633 13.5023 17.1679 12.4453C17.8726 11.3883 18.8516 10.543 20 10Z" stroke="#304C57" stroke-width="2" stroke-linecap="round" stroke-linejoin="round"/>
</g>
<circle cx="30.5" cy="12.5" r="5.5" fill="#329141"/>
</svg>
