<svg width="74" height="34" viewBox="0 0 74 34" fill="none" xmlns="http://www.w3.org/2000/svg">
<rect width="74" height="34" rx="10" fill="#40894B" fill-opacity="0.1"/>
<rect x="0.5" y="0.5" width="73" height="33" rx="9.5" stroke="#40894B" stroke-opacity="0.1"/>
<circle cx="18.5" cy="17" r="3.5" fill="#329141"/>
<path d="M36.0957 17.8887H33.8984V16.623H36.0957C36.4551 16.623 36.7461 16.5645 36.9688 16.4473C37.1953 16.3262 37.3613 16.1621 37.4668 15.9551C37.5723 15.7441 37.625 15.5039 37.625 15.2344C37.625 14.9727 37.5723 14.7285 37.4668 14.502C37.3613 14.2754 37.1953 14.0918 36.9688 13.9512C36.7461 13.8105 36.4551 13.7402 36.0957 13.7402H34.4258V21H32.8145V12.4688H36.0957C36.7598 12.4688 37.3262 12.5879 37.7949 12.8262C38.2676 13.0605 38.627 13.3867 38.873 13.8047C39.123 14.2188 39.248 14.6914 39.248 15.2227C39.248 15.7734 39.123 16.248 38.873 16.6465C38.627 17.0449 38.2676 17.3516 37.7949 17.5664C37.3262 17.7812 36.7598 17.8887 36.0957 17.8887ZM42.9805 13.7637L40.5488 21H38.8438L42.0312 12.4688H43.1211L42.9805 13.7637ZM45.0137 21L42.5703 13.7637L42.4238 12.4688H43.5195L46.7246 21H45.0137ZM44.9023 17.8301V19.1016H40.3262V17.8301H44.9023ZM49.3203 12.4688V21H47.709V12.4688H49.3203ZM53.6094 21H51.7695L51.7812 19.7344H53.6094C54.1055 19.7344 54.5215 19.625 54.8574 19.4062C55.1934 19.1836 55.4473 18.8652 55.6191 18.4512C55.791 18.0332 55.877 17.5332 55.877 16.9512V16.5117C55.877 16.0625 55.8281 15.666 55.7305 15.3223C55.6328 14.9785 55.4883 14.6895 55.2969 14.4551C55.1094 14.2207 54.877 14.043 54.5996 13.9219C54.3223 13.8008 54.0039 13.7402 53.6445 13.7402H51.7344V12.4688H53.6445C54.2148 12.4688 54.7344 12.5645 55.2031 12.7559C55.6758 12.9473 56.084 13.2227 56.4277 13.582C56.7754 13.9375 57.041 14.3633 57.2246 14.8594C57.4121 15.3555 57.5059 15.9102 57.5059 16.5234V16.9512C57.5059 17.5605 57.4121 18.1152 57.2246 18.6152C57.041 19.1113 56.7754 19.5371 56.4277 19.8926C56.084 20.248 55.6738 20.5215 55.1973 20.7129C54.7207 20.9043 54.1914 21 53.6094 21ZM52.6719 12.4688V21H51.0605V12.4688H52.6719Z" fill="#329141"/>
</svg>
