<svg width="185" height="47" viewBox="0 0 185 47" fill="none" xmlns="http://www.w3.org/2000/svg">
<rect x="0.5" y="0.5" width="184" height="46" rx="9.5" stroke="#329141"/>
<path d="M32.7015 13.5H22.2989C20.8411 13.5 19.5621 14.4847 19.5037 15.9036C19.4302 17.6888 20.6858 18.8742 22.0045 19.9871C23.8287 21.5266 24.7409 22.2964 24.8365 23.2708C24.8515 23.4233 24.8515 23.5767 24.8365 23.7292C24.7409 24.7036 23.8287 25.4734 22.0045 27.0129C20.6494 28.1564 19.4264 29.2195 19.5037 31.0964C19.5621 32.5153 20.8411 33.5 22.2989 33.5H32.7015C34.1592 33.5 35.4382 32.5153 35.4966 31.0964C35.5431 29.9668 35.1245 28.842 34.2353 28.06C33.8299 27.7034 33.409 27.3615 32.9959 27.0129C31.1716 25.4734 30.2595 24.7036 30.1638 23.7292C30.1488 23.5767 30.1488 23.4233 30.1638 23.2708C30.2595 22.2964 31.1716 21.5266 32.9959 19.9871C34.3367 18.8556 35.573 17.7581 35.4966 15.9036C35.4382 14.4847 34.1592 13.5 32.7015 13.5Z" stroke="#329141" stroke-width="1.5"/>
<path d="M24.5 33.1381C24.5 32.6962 24.5 32.4752 24.5876 32.2821C24.6015 32.2514 24.617 32.2214 24.634 32.1923C24.741 32.009 24.9221 31.8796 25.2843 31.6208C26.2905 30.9021 26.7935 30.5427 27.3652 30.5045C27.455 30.4985 27.545 30.4985 27.6348 30.5045C28.2065 30.5427 28.7095 30.9021 29.7157 31.6208C30.0779 31.8796 30.259 32.009 30.366 32.1923C30.383 32.2214 30.3985 32.2514 30.4124 32.2821C30.5 32.4752 30.5 32.6962 30.5 33.1381V33.5H24.5V33.1381Z" stroke="#329141" stroke-width="1.5" stroke-linecap="round"/>
<path d="M50.5391 29.5V18.2266H54.7344C56.9453 18.2266 58.4766 19.7109 58.4766 21.9219V21.9375C58.4766 24.1406 56.9453 25.6484 54.7344 25.6484H52.2891V29.5H50.5391ZM54.2969 19.7031H52.2891V24.1797H54.2969C55.8203 24.1797 56.6953 23.3594 56.6953 21.9453V21.9297C56.6953 20.5234 55.8203 19.7031 54.2969 19.7031ZM63.1531 29.6641C60.7391 29.6641 59.2781 28.0156 59.2781 25.4219V25.4141C59.2781 22.8438 60.7625 21.125 63.0672 21.125C65.3719 21.125 66.7859 22.7812 66.7859 25.25V25.8203H60.9656C60.9969 27.375 61.8484 28.2812 63.1922 28.2812C64.1922 28.2812 64.8562 27.7656 65.0672 27.1484L65.0906 27.0859H66.6922L66.6766 27.1719C66.4109 28.4766 65.1453 29.6641 63.1531 29.6641ZM63.075 22.5078C61.9812 22.5078 61.1375 23.25 60.9891 24.625H65.1141C64.9734 23.2031 64.1766 22.5078 63.075 22.5078ZM68.2984 29.5V21.2812H69.9859V22.5234H70.025C70.4547 21.6875 71.2984 21.125 72.5406 21.125C74.3453 21.125 75.3844 22.2891 75.3844 24.1797V29.5H73.6891V24.5C73.6891 23.2656 73.1109 22.5703 71.9391 22.5703C70.7516 22.5703 69.9859 23.4297 69.9859 24.7109V29.5H68.2984ZM80.2875 29.6641C78.1938 29.6641 76.85 28.0078 76.85 25.3906V25.3828C76.85 22.7656 78.2094 21.125 80.2719 21.125C81.4359 21.125 82.3734 21.7109 82.8656 22.6797H82.8969V18.2266H84.5922V29.5H82.8969V28.1094H82.8656C82.3734 29.0703 81.4672 29.6641 80.2875 29.6641ZM80.7328 28.2109C82.0063 28.2109 82.9047 27.1016 82.9047 25.3906V25.3828C82.9047 23.6797 81.9984 22.5703 80.7328 22.5703C79.4047 22.5703 78.5766 23.6484 78.5766 25.3828V25.3906C78.5766 27.1406 79.3969 28.2109 80.7328 28.2109ZM92.8594 29.6641C91.2344 29.6641 90.4531 28.9766 90.4531 27.3359V22.625H89.2734V21.2812H90.4531V19.1406H92.1797V21.2812H93.7188V22.625H92.1797V27.2344C92.1797 28.0703 92.5547 28.3203 93.2656 28.3203C93.4453 28.3203 93.5938 28.3047 93.7188 28.2891V29.5938C93.5234 29.625 93.2031 29.6641 92.8594 29.6641ZM95.3172 29.5V21.2812H97.0047V22.6875H97.0438C97.3094 21.7266 97.9969 21.125 98.9344 21.125C99.1766 21.125 99.3875 21.1641 99.5203 21.1875V22.7578C99.3875 22.7031 99.0906 22.6641 98.7625 22.6641C97.6766 22.6641 97.0047 23.375 97.0047 24.6016V29.5H95.3172ZM103.009 29.6484C101.369 29.6484 100.267 28.6406 100.267 27.1641V27.1484C100.267 25.7188 101.377 24.8438 103.322 24.7266L105.556 24.5938V23.9766C105.556 23.0703 104.97 22.5234 103.923 22.5234C102.947 22.5234 102.345 22.9844 102.205 23.6406L102.189 23.7109H100.595L100.603 23.625C100.72 22.2109 101.947 21.125 103.97 21.125C105.978 21.125 107.252 22.1875 107.252 23.8359V29.5H105.556V28.2031H105.525C105.048 29.0859 104.095 29.6484 103.009 29.6484ZM101.97 27.125C101.97 27.8438 102.564 28.2969 103.47 28.2969C104.658 28.2969 105.556 27.4922 105.556 26.4219V25.7812L103.548 25.9062C102.533 25.9688 101.97 26.4141 101.97 27.1094V27.125ZM109.092 29.5V21.2812H110.78V22.5234H110.819C111.248 21.6875 112.092 21.125 113.334 21.125C115.139 21.125 116.178 22.2891 116.178 24.1797V29.5H114.483V24.5C114.483 23.2656 113.905 22.5703 112.733 22.5703C111.545 22.5703 110.78 23.4297 110.78 24.7109V29.5H109.092ZM121.089 29.6641C119.034 29.6641 117.831 28.6484 117.659 27.1484L117.652 27.0781H119.323L119.339 27.1562C119.495 27.9141 120.058 28.3594 121.097 28.3594C122.113 28.3594 122.722 27.9375 122.722 27.2734V27.2656C122.722 26.7344 122.425 26.4297 121.542 26.2188L120.198 25.9141C118.636 25.5547 117.863 24.8047 117.863 23.6094V23.6016C117.863 22.1328 119.144 21.125 121.034 21.125C122.98 21.125 124.152 22.2109 124.238 23.6094L124.245 23.7031H122.659L122.652 23.6484C122.55 22.9297 121.988 22.4297 121.034 22.4297C120.128 22.4297 119.558 22.8594 119.558 23.5156V23.5234C119.558 24.0312 119.894 24.375 120.777 24.5859L122.113 24.8906C123.792 25.2812 124.433 25.9453 124.433 27.125V27.1328C124.433 28.6328 123.027 29.6641 121.089 29.6641ZM128.359 29.6484C126.719 29.6484 125.617 28.6406 125.617 27.1641V27.1484C125.617 25.7188 126.727 24.8438 128.672 24.7266L130.906 24.5938V23.9766C130.906 23.0703 130.32 22.5234 129.273 22.5234C128.297 22.5234 127.695 22.9844 127.555 23.6406L127.539 23.7109H125.945L125.953 23.625C126.07 22.2109 127.297 21.125 129.32 21.125C131.328 21.125 132.602 22.1875 132.602 23.8359V29.5H130.906V28.2031H130.875C130.398 29.0859 129.445 29.6484 128.359 29.6484ZM127.32 27.125C127.32 27.8438 127.914 28.2969 128.82 28.2969C130.008 28.2969 130.906 27.4922 130.906 26.4219V25.7812L128.898 25.9062C127.883 25.9688 127.32 26.4141 127.32 27.1094V27.125ZM137.973 29.6641C135.575 29.6641 134.075 28.0156 134.075 25.3828V25.375C134.075 22.7734 135.606 21.125 137.95 21.125C140.067 21.125 141.348 22.4844 141.489 24.0312L141.497 24.0859H139.887L139.872 24.0234C139.692 23.2188 139.067 22.5391 137.966 22.5391C136.653 22.5391 135.802 23.6328 135.802 25.3906V25.3984C135.802 27.1953 136.669 28.25 137.973 28.25C139.012 28.25 139.677 27.6484 139.88 26.7578L139.887 26.6953H141.512L141.505 26.75C141.325 28.3984 139.95 29.6641 137.973 29.6641ZM145.791 29.6641C144.166 29.6641 143.384 28.9766 143.384 27.3359V22.625H142.205V21.2812H143.384V19.1406H145.111V21.2812H146.65V22.625H145.111V27.2344C145.111 28.0703 145.486 28.3203 146.197 28.3203C146.377 28.3203 146.525 28.3047 146.65 28.2891V29.5938C146.455 29.625 146.134 29.6641 145.791 29.6641ZM149.162 20.0156C148.616 20.0156 148.178 19.5781 148.178 19.0469C148.178 18.5078 148.616 18.0703 149.162 18.0703C149.717 18.0703 150.147 18.5078 150.147 19.0469C150.147 19.5781 149.717 20.0156 149.162 20.0156ZM148.319 29.5V21.2812H150.006V29.5H148.319ZM155.48 29.6641C153.12 29.6641 151.581 28.0312 151.581 25.3906V25.375C151.581 22.75 153.136 21.125 155.472 21.125C157.816 21.125 159.378 22.7422 159.378 25.375V25.3906C159.378 28.0391 157.831 29.6641 155.48 29.6641ZM155.488 28.25C156.808 28.25 157.652 27.2031 157.652 25.3906V25.375C157.652 23.5781 156.792 22.5391 155.472 22.5391C154.175 22.5391 153.308 23.5781 153.308 25.375V25.3906C153.308 27.2109 154.167 28.25 155.488 28.25ZM160.883 29.5V21.2812H162.57V22.5234H162.609C163.039 21.6875 163.883 21.125 165.125 21.125C166.93 21.125 167.969 22.2891 167.969 24.1797V29.5H166.273V24.5C166.273 23.2656 165.695 22.5703 164.523 22.5703C163.336 22.5703 162.57 23.4297 162.57 24.7109V29.5H160.883Z" fill="#329141"/>
</svg>
