<svg width="98" height="34" viewBox="0 0 98 34" fill="none" xmlns="http://www.w3.org/2000/svg">
<rect width="98" height="34" rx="10" fill="#FBD500" fill-opacity="0.1"/>
<rect x="0.5" y="0.5" width="97" height="33" rx="9.5" stroke="#FBD500" stroke-opacity="0.1"/>
<circle cx="18.5" cy="17" r="3.5" fill="#FBD500"/>
<path d="M36.0957 17.8887H33.8984V16.623H36.0957C36.4551 16.623 36.7461 16.5645 36.9688 16.4473C37.1953 16.3262 37.3613 16.1621 37.4668 15.9551C37.5723 15.7441 37.625 15.5039 37.625 15.2344C37.625 14.9727 37.5723 14.7285 37.4668 14.502C37.3613 14.2754 37.1953 14.0918 36.9688 13.9512C36.7461 13.8105 36.4551 13.7402 36.0957 13.7402H34.4258V21H32.8145V12.4688H36.0957C36.7598 12.4688 37.3262 12.5879 37.7949 12.8262C38.2676 13.0605 38.627 13.3867 38.873 13.8047C39.123 14.2188 39.248 14.6914 39.248 15.2227C39.248 15.7734 39.123 16.248 38.873 16.6465C38.627 17.0449 38.2676 17.3516 37.7949 17.5664C37.3262 17.7812 36.7598 17.8887 36.0957 17.8887ZM46.168 19.7344V21H41.6328V19.7344H46.168ZM42.125 12.4688V21H40.5137V12.4688H42.125ZM45.5762 15.9902V17.2266H41.6328V15.9902H45.5762ZM46.1504 12.4688V13.7402H41.6328V12.4688H46.1504ZM54.1426 12.4688V21H52.5254L48.8984 15.082V21H47.2871V12.4688H48.8984L52.5371 18.3926V12.4688H54.1426ZM58.332 21H56.4922L56.5039 19.7344H58.332C58.8281 19.7344 59.2441 19.625 59.5801 19.4062C59.916 19.1836 60.1699 18.8652 60.3418 18.4512C60.5137 18.0332 60.5996 17.5332 60.5996 16.9512V16.5117C60.5996 16.0625 60.5508 15.666 60.4531 15.3223C60.3555 14.9785 60.2109 14.6895 60.0195 14.4551C59.832 14.2207 59.5996 14.043 59.3223 13.9219C59.0449 13.8008 58.7266 13.7402 58.3672 13.7402H56.457V12.4688H58.3672C58.9375 12.4688 59.457 12.5645 59.9258 12.7559C60.3984 12.9473 60.8066 13.2227 61.1504 13.582C61.498 13.9375 61.7637 14.3633 61.9473 14.8594C62.1348 15.3555 62.2285 15.9102 62.2285 16.5234V16.9512C62.2285 17.5605 62.1348 18.1152 61.9473 18.6152C61.7637 19.1113 61.498 19.5371 61.1504 19.8926C60.8066 20.248 60.3965 20.5215 59.9199 20.7129C59.4434 20.9043 58.9141 21 58.332 21ZM57.3945 12.4688V21H55.7832V12.4688H57.3945ZM65.3164 12.4688V21H63.7051V12.4688H65.3164ZM73.9121 12.4688V21H72.2949L68.668 15.082V21H67.0566V12.4688H68.668L72.3066 18.3926V12.4688H73.9121ZM82.209 16.5879V19.9102C82.084 20.0703 81.8867 20.2441 81.6172 20.4316C81.3516 20.6191 81.0039 20.7812 80.5742 20.918C80.1445 21.0508 79.6172 21.1172 78.9922 21.1172C78.4492 21.1172 77.9531 21.0273 77.5039 20.8477C77.0547 20.6641 76.668 20.3965 76.3438 20.0449C76.0195 19.6934 75.7695 19.2637 75.5938 18.7559C75.418 18.248 75.3301 17.668 75.3301 17.0156V16.4531C75.3301 15.8008 75.4121 15.2207 75.5762 14.7129C75.7441 14.2051 75.9824 13.7754 76.291 13.4238C76.6035 13.0723 76.9766 12.8047 77.4102 12.6211C77.8477 12.4375 78.3359 12.3457 78.875 12.3457C79.5977 12.3457 80.1914 12.4648 80.6562 12.7031C81.125 12.9414 81.4844 13.2695 81.7344 13.6875C81.9844 14.1016 82.1406 14.5781 82.2031 15.1172H80.6328C80.5898 14.8203 80.5039 14.5605 80.375 14.3379C80.2461 14.1113 80.0625 13.9355 79.8242 13.8105C79.5898 13.6816 79.2852 13.6172 78.9102 13.6172C78.5938 13.6172 78.3145 13.6797 78.0723 13.8047C77.8301 13.9297 77.627 14.1113 77.4629 14.3496C77.2988 14.5879 77.1738 14.8828 77.0879 15.2344C77.0059 15.5859 76.9648 15.9883 76.9648 16.4414V17.0156C76.9648 17.4727 77.0117 17.8789 77.1055 18.2344C77.1992 18.5859 77.334 18.8828 77.5098 19.125C77.6895 19.3633 77.9102 19.5449 78.1719 19.6699C78.4375 19.791 78.7383 19.8516 79.0742 19.8516C79.3789 19.8516 79.6309 19.8262 79.8301 19.7754C80.0332 19.7207 80.1953 19.6562 80.3164 19.582C80.4375 19.5078 80.5312 19.4355 80.5977 19.3652V17.7656H78.9043V16.5879H82.209Z" fill="#FBD500"/>
</svg>
