<svg width="163" height="44" viewBox="0 0 163 44" fill="none" xmlns="http://www.w3.org/2000/svg">
<rect x="0.5" y="0.5" width="162" height="43" rx="9.5" stroke="#329141"/>
<path d="M25.9961 20H26.0111M25.9998 26H26.0148" stroke="#329141" stroke-width="2" stroke-linecap="round" stroke-linejoin="round"/>
<path d="M22 23H30" stroke="#329141" stroke-width="2" stroke-linecap="round" stroke-linejoin="round"/>
<path d="M32.5 15C33.3284 15 34 15.6716 34 16.5C34 17.3284 33.3284 18 32.5 18C31.6716 18 31 17.3284 31 16.5C31 15.6716 31.6716 15 32.5 15Z" stroke="#329141" stroke-width="2" stroke-linecap="round" stroke-linejoin="round"/>
<path d="M17.7742 21.1439C16.7711 22.2643 16.7495 23.9546 17.6702 25.1437C19.4971 27.5033 21.4967 29.5029 23.8563 31.3298C25.0454 32.2505 26.7357 32.2289 27.8561 31.2258C30.8979 28.5022 33.6835 25.6559 36.3719 22.5279C36.6377 22.2187 36.8039 21.8397 36.8412 21.4336C37.0062 19.638 37.3452 14.4647 35.9403 13.0597C34.5353 11.6548 29.362 11.9938 27.5664 12.1588C27.1603 12.1961 26.7813 12.3623 26.472 12.6281C23.3441 15.3165 20.4978 18.1021 17.7742 21.1439Z" stroke="#329141" stroke-width="2"/>
<path d="M54.4609 23.3516H51.5312V21.6641H54.4609C54.9401 21.6641 55.3281 21.5859 55.625 21.4297C55.9271 21.2682 56.1484 21.0495 56.2891 20.7734C56.4297 20.4922 56.5 20.1719 56.5 19.8125C56.5 19.4635 56.4297 19.138 56.2891 18.8359C56.1484 18.5339 55.9271 18.2891 55.625 18.1016C55.3281 17.9141 54.9401 17.8203 54.4609 17.8203H52.2344V27.5H50.0859V16.125H54.4609C55.3464 16.125 56.1016 16.2839 56.7266 16.6016C57.3568 16.9141 57.8359 17.349 58.1641 17.9062C58.4974 18.4583 58.6641 19.0885 58.6641 19.7969C58.6641 20.5312 58.4974 21.1641 58.1641 21.6953C57.8359 22.2266 57.3568 22.6354 56.7266 22.9219C56.1016 23.2083 55.3464 23.3516 54.4609 23.3516ZM59.7188 23.3594V23.1953C59.7188 22.5755 59.8073 22.0052 59.9844 21.4844C60.1615 20.9583 60.4193 20.5026 60.7578 20.1172C61.0964 19.7318 61.5104 19.4323 62 19.2188C62.4896 19 63.0469 18.8906 63.6719 18.8906C64.3073 18.8906 64.8698 19 65.3594 19.2188C65.8542 19.4323 66.2708 19.7318 66.6094 20.1172C66.9479 20.5026 67.2057 20.9583 67.3828 21.4844C67.5599 22.0052 67.6484 22.5755 67.6484 23.1953V23.3594C67.6484 23.974 67.5599 24.5443 67.3828 25.0703C67.2057 25.5911 66.9479 26.0469 66.6094 26.4375C66.2708 26.8229 65.8568 27.1224 65.3672 27.3359C64.8776 27.5495 64.3177 27.6562 63.6875 27.6562C63.0625 27.6562 62.5026 27.5495 62.0078 27.3359C61.513 27.1224 61.0964 26.8229 60.7578 26.4375C60.4193 26.0469 60.1615 25.5911 59.9844 25.0703C59.8073 24.5443 59.7188 23.974 59.7188 23.3594ZM61.7812 23.1953V23.3594C61.7812 23.7292 61.8177 24.0755 61.8906 24.3984C61.9635 24.7214 62.0755 25.0052 62.2266 25.25C62.3776 25.4948 62.5729 25.6875 62.8125 25.8281C63.0573 25.9635 63.349 26.0312 63.6875 26.0312C64.0208 26.0312 64.3073 25.9635 64.5469 25.8281C64.7865 25.6875 64.9818 25.4948 65.1328 25.25C65.2891 25.0052 65.4036 24.7214 65.4766 24.3984C65.5495 24.0755 65.5859 23.7292 65.5859 23.3594V23.1953C65.5859 22.8307 65.5495 22.4896 65.4766 22.1719C65.4036 21.849 65.2891 21.5651 65.1328 21.3203C64.9818 21.0703 64.7839 20.875 64.5391 20.7344C64.2995 20.5885 64.0104 20.5156 63.6719 20.5156C63.3385 20.5156 63.0521 20.5885 62.8125 20.7344C62.5729 20.875 62.3776 21.0703 62.2266 21.3203C62.0755 21.5651 61.9635 21.849 61.8906 22.1719C61.8177 22.4896 61.7812 22.8307 61.7812 23.1953ZM71.3359 19.0469V27.5H69.2656V19.0469H71.3359ZM69.125 16.8359C69.125 16.5286 69.2292 16.2734 69.4375 16.0703C69.651 15.8672 69.9375 15.7656 70.2969 15.7656C70.6562 15.7656 70.9401 15.8672 71.1484 16.0703C71.362 16.2734 71.4688 16.5286 71.4688 16.8359C71.4688 17.138 71.362 17.3906 71.1484 17.5938C70.9401 17.7969 70.6562 17.8984 70.2969 17.8984C69.9375 17.8984 69.651 17.7969 69.4375 17.5938C69.2292 17.3906 69.125 17.138 69.125 16.8359ZM75.3281 20.8516V27.5H73.2656V19.0469H75.2031L75.3281 20.8516ZM75 22.9688H74.3906C74.3958 22.3542 74.4792 21.7969 74.6406 21.2969C74.8021 20.7969 75.0286 20.3672 75.3203 20.0078C75.6172 19.6484 75.9688 19.3724 76.375 19.1797C76.7812 18.987 77.2344 18.8906 77.7344 18.8906C78.1406 18.8906 78.5078 18.9479 78.8359 19.0625C79.1641 19.1771 79.4453 19.3594 79.6797 19.6094C79.9193 19.8594 80.1016 20.1875 80.2266 20.5938C80.3568 20.9948 80.4219 21.4896 80.4219 22.0781V27.5H78.3438V22.0625C78.3438 21.6771 78.2865 21.3724 78.1719 21.1484C78.0625 20.9245 77.901 20.7656 77.6875 20.6719C77.4792 20.5781 77.2214 20.5312 76.9141 20.5312C76.5964 20.5312 76.3177 20.5964 76.0781 20.7266C75.8438 20.8516 75.6458 21.026 75.4844 21.25C75.3281 21.474 75.2083 21.7318 75.125 22.0234C75.0417 22.3151 75 22.6302 75 22.9688ZM86.2422 19.0469V20.5312H81.3984V19.0469H86.2422ZM82.6953 16.9688H84.7656V25.0625C84.7656 25.3125 84.7995 25.5052 84.8672 25.6406C84.9349 25.776 85.0365 25.8672 85.1719 25.9141C85.3073 25.9609 85.4688 25.9844 85.6562 25.9844C85.7917 25.9844 85.9167 25.9766 86.0312 25.9609C86.1458 25.9453 86.2422 25.9297 86.3203 25.9141L86.3281 27.4609C86.1562 27.5182 85.9609 27.5651 85.7422 27.6016C85.5286 27.638 85.2865 27.6562 85.0156 27.6562C84.5521 27.6562 84.1458 27.5781 83.7969 27.4219C83.4479 27.2604 83.1771 27.0026 82.9844 26.6484C82.7917 26.2891 82.6953 25.8151 82.6953 25.2266V16.9688ZM91.2344 23.3594V23.1953C91.2344 22.5755 91.3229 22.0052 91.5 21.4844C91.6771 20.9583 91.9349 20.5026 92.2734 20.1172C92.612 19.7318 93.026 19.4323 93.5156 19.2188C94.0052 19 94.5625 18.8906 95.1875 18.8906C95.8229 18.8906 96.3854 19 96.875 19.2188C97.3698 19.4323 97.7865 19.7318 98.125 20.1172C98.4635 20.5026 98.7214 20.9583 98.8984 21.4844C99.0755 22.0052 99.1641 22.5755 99.1641 23.1953V23.3594C99.1641 23.974 99.0755 24.5443 98.8984 25.0703C98.7214 25.5911 98.4635 26.0469 98.125 26.4375C97.7865 26.8229 97.3724 27.1224 96.8828 27.3359C96.3932 27.5495 95.8333 27.6562 95.2031 27.6562C94.5781 27.6562 94.0182 27.5495 93.5234 27.3359C93.0286 27.1224 92.612 26.8229 92.2734 26.4375C91.9349 26.0469 91.6771 25.5911 91.5 25.0703C91.3229 24.5443 91.2344 23.974 91.2344 23.3594ZM93.2969 23.1953V23.3594C93.2969 23.7292 93.3333 24.0755 93.4062 24.3984C93.4792 24.7214 93.5911 25.0052 93.7422 25.25C93.8932 25.4948 94.0885 25.6875 94.3281 25.8281C94.5729 25.9635 94.8646 26.0312 95.2031 26.0312C95.5365 26.0312 95.8229 25.9635 96.0625 25.8281C96.3021 25.6875 96.4974 25.4948 96.6484 25.25C96.8047 25.0052 96.9193 24.7214 96.9922 24.3984C97.0651 24.0755 97.1016 23.7292 97.1016 23.3594V23.1953C97.1016 22.8307 97.0651 22.4896 96.9922 22.1719C96.9193 21.849 96.8047 21.5651 96.6484 21.3203C96.4974 21.0703 96.2995 20.875 96.0547 20.7344C95.8151 20.5885 95.526 20.5156 95.1875 20.5156C94.8542 20.5156 94.5677 20.5885 94.3281 20.7344C94.0885 20.875 93.8932 21.0703 93.7422 21.3203C93.5911 21.5651 93.4792 21.849 93.4062 22.1719C93.3333 22.4896 93.2969 22.8307 93.2969 23.1953ZM103.367 27.5H101.289V18.2656C101.289 17.6302 101.411 17.0964 101.656 16.6641C101.901 16.2266 102.25 15.8958 102.703 15.6719C103.156 15.4479 103.69 15.3359 104.305 15.3359C104.508 15.3359 104.701 15.349 104.883 15.375C105.07 15.401 105.255 15.4375 105.438 15.4844L105.398 17.0547C105.299 17.0286 105.19 17.0104 105.07 17C104.956 16.9896 104.828 16.9844 104.688 16.9844C104.406 16.9844 104.167 17.0339 103.969 17.1328C103.771 17.2318 103.62 17.3776 103.516 17.5703C103.417 17.7578 103.367 17.9896 103.367 18.2656V27.5ZM105.078 19.0469V20.5312H100.016V19.0469H105.078ZM114.984 25.1875C114.984 25.0104 114.938 24.8516 114.844 24.7109C114.75 24.5703 114.573 24.4427 114.312 24.3281C114.057 24.2083 113.682 24.0964 113.188 23.9922C112.75 23.8984 112.346 23.7812 111.977 23.6406C111.607 23.5 111.289 23.3307 111.023 23.1328C110.758 22.9297 110.549 22.6927 110.398 22.4219C110.253 22.1458 110.18 21.8281 110.18 21.4688C110.18 21.1198 110.255 20.7917 110.406 20.4844C110.557 20.1719 110.776 19.8984 111.062 19.6641C111.349 19.4245 111.698 19.237 112.109 19.1016C112.521 18.9609 112.984 18.8906 113.5 18.8906C114.219 18.8906 114.836 19.0078 115.352 19.2422C115.872 19.4766 116.271 19.7995 116.547 20.2109C116.823 20.6172 116.961 21.0755 116.961 21.5859H114.898C114.898 21.362 114.846 21.1589 114.742 20.9766C114.643 20.7943 114.49 20.6484 114.281 20.5391C114.073 20.4245 113.81 20.3672 113.492 20.3672C113.206 20.3672 112.964 20.4141 112.766 20.5078C112.573 20.6016 112.427 20.724 112.328 20.875C112.229 21.026 112.18 21.1927 112.18 21.375C112.18 21.5104 112.206 21.6328 112.258 21.7422C112.315 21.8464 112.406 21.9427 112.531 22.0312C112.656 22.1198 112.826 22.2005 113.039 22.2734C113.258 22.3464 113.526 22.4167 113.844 22.4844C114.474 22.6094 115.023 22.776 115.492 22.9844C115.966 23.1875 116.336 23.4583 116.602 23.7969C116.867 24.1354 117 24.5677 117 25.0938C117 25.4688 116.919 25.8125 116.758 26.125C116.596 26.4323 116.362 26.7005 116.055 26.9297C115.747 27.1589 115.38 27.3385 114.953 27.4688C114.526 27.5938 114.044 27.6562 113.508 27.6562C112.732 27.6562 112.076 27.5182 111.539 27.2422C111.003 26.9609 110.596 26.6068 110.32 26.1797C110.044 25.7474 109.906 25.2995 109.906 24.8359H111.883C111.898 25.1641 111.987 25.4271 112.148 25.625C112.31 25.8229 112.513 25.9661 112.758 26.0547C113.008 26.138 113.271 26.1797 113.547 26.1797C113.859 26.1797 114.122 26.138 114.336 26.0547C114.549 25.9661 114.711 25.849 114.82 25.7031C114.93 25.5521 114.984 25.3802 114.984 25.1875ZM123.227 25.7031V21.8047C123.227 21.5182 123.177 21.2708 123.078 21.0625C122.979 20.8542 122.828 20.6927 122.625 20.5781C122.422 20.4635 122.164 20.4062 121.852 20.4062C121.576 20.4062 121.333 20.4531 121.125 20.5469C120.922 20.6406 120.766 20.7734 120.656 20.9453C120.547 21.112 120.492 21.3047 120.492 21.5234H118.422C118.422 21.1745 118.505 20.8438 118.672 20.5312C118.839 20.2135 119.076 19.9323 119.383 19.6875C119.695 19.4375 120.068 19.2422 120.5 19.1016C120.938 18.9609 121.427 18.8906 121.969 18.8906C122.609 18.8906 123.18 19 123.68 19.2188C124.185 19.4323 124.581 19.7552 124.867 20.1875C125.159 20.6198 125.305 21.1641 125.305 21.8203V25.5078C125.305 25.9297 125.331 26.2917 125.383 26.5938C125.44 26.8906 125.523 27.1484 125.633 27.3672V27.5H123.531C123.432 27.2865 123.357 27.0156 123.305 26.6875C123.253 26.3542 123.227 26.026 123.227 25.7031ZM123.516 22.3516L123.531 23.5781H122.227C121.904 23.5781 121.62 23.612 121.375 23.6797C121.13 23.7422 120.93 23.8359 120.773 23.9609C120.617 24.0807 120.5 24.2266 120.422 24.3984C120.344 24.5651 120.305 24.7552 120.305 24.9688C120.305 25.1771 120.352 25.3646 120.445 25.5312C120.544 25.6979 120.685 25.8307 120.867 25.9297C121.055 26.0234 121.273 26.0703 121.523 26.0703C121.888 26.0703 122.206 25.9974 122.477 25.8516C122.747 25.7005 122.958 25.5182 123.109 25.3047C123.26 25.0911 123.341 24.888 123.352 24.6953L123.945 25.5859C123.872 25.7995 123.763 26.026 123.617 26.2656C123.471 26.5052 123.284 26.7292 123.055 26.9375C122.826 27.1458 122.549 27.3177 122.227 27.4531C121.904 27.5885 121.529 27.6562 121.102 27.6562C120.555 27.6562 120.065 27.5469 119.633 27.3281C119.201 27.1094 118.859 26.8099 118.609 26.4297C118.359 26.0495 118.234 25.6172 118.234 25.1328C118.234 24.6849 118.318 24.2891 118.484 23.9453C118.651 23.6016 118.898 23.3125 119.227 23.0781C119.555 22.8385 119.961 22.6589 120.445 22.5391C120.935 22.4141 121.495 22.3516 122.125 22.3516H123.516ZM129.352 15.5V27.5H127.281V15.5H129.352ZM135.117 27.6562C134.477 27.6562 133.901 27.5521 133.391 27.3438C132.88 27.1354 132.445 26.8464 132.086 26.4766C131.732 26.1016 131.458 25.6667 131.266 25.1719C131.078 24.6719 130.984 24.1354 130.984 23.5625V23.25C130.984 22.599 131.078 22.0078 131.266 21.4766C131.453 20.9401 131.719 20.4792 132.062 20.0938C132.406 19.7083 132.818 19.4115 133.297 19.2031C133.776 18.9948 134.305 18.8906 134.883 18.8906C135.482 18.8906 136.01 18.9922 136.469 19.1953C136.927 19.3932 137.31 19.6745 137.617 20.0391C137.924 20.4036 138.156 20.8411 138.312 21.3516C138.469 21.8568 138.547 22.4167 138.547 23.0312V23.8984H131.922V22.4766H136.516V22.3203C136.505 21.9922 136.443 21.6927 136.328 21.4219C136.214 21.1458 136.036 20.9271 135.797 20.7656C135.557 20.599 135.247 20.5156 134.867 20.5156C134.56 20.5156 134.292 20.5833 134.062 20.7188C133.839 20.849 133.651 21.0365 133.5 21.2812C133.354 21.5208 133.245 21.8073 133.172 22.1406C133.099 22.474 133.062 22.8438 133.062 23.25V23.5625C133.062 23.9167 133.109 24.2448 133.203 24.5469C133.302 24.849 133.445 25.112 133.633 25.3359C133.826 25.5547 134.055 25.7266 134.32 25.8516C134.591 25.9714 134.898 26.0312 135.242 26.0312C135.674 26.0312 136.065 25.9479 136.414 25.7812C136.768 25.6094 137.076 25.3568 137.336 25.0234L138.375 26.1016C138.198 26.362 137.958 26.612 137.656 26.8516C137.359 27.0911 137 27.2865 136.578 27.4375C136.156 27.5833 135.669 27.6562 135.117 27.6562ZM144.578 25.1875C144.578 25.0104 144.531 24.8516 144.438 24.7109C144.344 24.5703 144.167 24.4427 143.906 24.3281C143.651 24.2083 143.276 24.0964 142.781 23.9922C142.344 23.8984 141.94 23.7812 141.57 23.6406C141.201 23.5 140.883 23.3307 140.617 23.1328C140.352 22.9297 140.143 22.6927 139.992 22.4219C139.846 22.1458 139.773 21.8281 139.773 21.4688C139.773 21.1198 139.849 20.7917 140 20.4844C140.151 20.1719 140.37 19.8984 140.656 19.6641C140.943 19.4245 141.292 19.237 141.703 19.1016C142.115 18.9609 142.578 18.8906 143.094 18.8906C143.812 18.8906 144.43 19.0078 144.945 19.2422C145.466 19.4766 145.865 19.7995 146.141 20.2109C146.417 20.6172 146.555 21.0755 146.555 21.5859H144.492C144.492 21.362 144.44 21.1589 144.336 20.9766C144.237 20.7943 144.083 20.6484 143.875 20.5391C143.667 20.4245 143.404 20.3672 143.086 20.3672C142.799 20.3672 142.557 20.4141 142.359 20.5078C142.167 20.6016 142.021 20.724 141.922 20.875C141.823 21.026 141.773 21.1927 141.773 21.375C141.773 21.5104 141.799 21.6328 141.852 21.7422C141.909 21.8464 142 21.9427 142.125 22.0312C142.25 22.1198 142.419 22.2005 142.633 22.2734C142.852 22.3464 143.12 22.4167 143.438 22.4844C144.068 22.6094 144.617 22.776 145.086 22.9844C145.56 23.1875 145.93 23.4583 146.195 23.7969C146.461 24.1354 146.594 24.5677 146.594 25.0938C146.594 25.4688 146.513 25.8125 146.352 26.125C146.19 26.4323 145.956 26.7005 145.648 26.9297C145.341 27.1589 144.974 27.3385 144.547 27.4688C144.12 27.5938 143.638 27.6562 143.102 27.6562C142.326 27.6562 141.669 27.5182 141.133 27.2422C140.596 26.9609 140.19 26.6068 139.914 26.1797C139.638 25.7474 139.5 25.2995 139.5 24.8359H141.477C141.492 25.1641 141.581 25.4271 141.742 25.625C141.904 25.8229 142.107 25.9661 142.352 26.0547C142.602 26.138 142.865 26.1797 143.141 26.1797C143.453 26.1797 143.716 26.138 143.93 26.0547C144.143 25.9661 144.305 25.849 144.414 25.7031C144.523 25.5521 144.578 25.3802 144.578 25.1875Z" fill="#329141"/>
</svg>
