<svg width="44" height="34" viewBox="0 0 44 34" fill="none" xmlns="http://www.w3.org/2000/svg">
<rect x="0.5" y="0.5" width="43" height="33" rx="9.5" stroke="#304C57" stroke-opacity="0.2"/>
<path d="M17.354 23C15.2308 23 14.1693 23 13.4135 22.5468C12.9195 22.2506 12.5216 21.8271 12.2648 21.3242C11.8718 20.5547 11.9774 19.5373 12.1887 17.5025C12.365 15.8039 12.4532 14.9545 12.8868 14.3308C13.1715 13.9213 13.5566 13.5856 14.008 13.3535C14.6955 13 15.5816 13 17.354 13H26.646C28.4184 13 29.3045 13 29.992 13.3535C30.4434 13.5856 30.8285 13.9213 31.1132 14.3308C31.5468 14.9545 31.635 15.8039 31.8113 17.5025C32.0226 19.5373 32.1282 20.5547 31.7352 21.3242C31.4784 21.8271 31.0805 22.2506 30.5865 22.5468C29.8307 23 28.7692 23 26.646 23" stroke="#597079" stroke-width="2"/>
<path d="M27 13V11C27 9.11438 27 8.17157 26.4142 7.58579C25.8284 7 24.8856 7 23 7H21C19.1144 7 18.1716 7 17.5858 7.58579C17 8.17157 17 9.11438 17 11V13" stroke="#597079" stroke-width="2" stroke-linejoin="round"/>
<path d="M23.9887 21H20.0113C19.326 21 18.9834 21 18.6918 21.1089C18.3031 21.254 17.9703 21.536 17.7462 21.9099C17.5782 22.1904 17.4951 22.5511 17.3288 23.2724C17.0691 24.3995 16.9393 24.963 17.0276 25.4149C17.1454 26.0174 17.5124 26.5274 18.0225 26.7974C18.4051 27 18.9405 27 20.0113 27H23.9887C25.0595 27 25.5949 27 25.9775 26.7974C26.4876 26.5274 26.8547 26.0174 26.9724 25.4149C27.0607 24.963 26.9309 24.3995 26.6712 23.2724C26.505 22.5511 26.4218 22.1904 26.2538 21.9099C26.0297 21.536 25.6969 21.254 25.3082 21.1089C25.0166 21 24.674 21 23.9887 21Z" stroke="#597079" stroke-width="2" stroke-linejoin="round"/>
<path d="M28 17H28.009" stroke="#597079" stroke-width="2" stroke-linecap="round" stroke-linejoin="round"/>
</svg>
