<svg width="152" height="34" viewBox="0 0 152 34" fill="none" xmlns="http://www.w3.org/2000/svg">
<rect width="152" height="34" rx="10" fill="#FBD500" fill-opacity="0.1"/>
<rect x="0.5" y="0.5" width="151" height="33" rx="9.5" stroke="#FBD500" stroke-opacity="0.1"/>
<circle cx="18.5" cy="17" r="3.5" fill="#FBD500"/>
<path d="M32.8145 12.4688H35.9141C36.5625 12.4688 37.1191 12.5664 37.584 12.7617C38.0488 12.957 38.4062 13.2461 38.6562 13.6289C38.9062 14.0117 39.0312 14.4824 39.0312 15.041C39.0312 15.4824 38.9531 15.8652 38.7969 16.1895C38.6406 16.5137 38.4199 16.7852 38.1348 17.0039C37.8535 17.2227 37.5215 17.3945 37.1387 17.5195L36.6348 17.7773H33.8984L33.8867 16.5059H35.9316C36.2637 16.5059 36.5391 16.4473 36.7578 16.3301C36.9766 16.2129 37.1406 16.0508 37.25 15.8438C37.3633 15.6367 37.4199 15.4004 37.4199 15.1348C37.4199 14.8496 37.3652 14.6035 37.2559 14.3965C37.1465 14.1855 36.9805 14.0234 36.7578 13.9102C36.5352 13.7969 36.2539 13.7402 35.9141 13.7402H34.4258V21H32.8145V12.4688ZM37.6309 21L35.6562 17.1797L37.3613 17.1738L39.3594 20.918V21H37.6309ZM46.0977 19.7344V21H41.5625V19.7344H46.0977ZM42.0547 12.4688V21H40.4434V12.4688H42.0547ZM45.5059 15.9902V17.2266H41.5625V15.9902H45.5059ZM46.0801 12.4688V13.7402H41.5625V12.4688H46.0801ZM50.9961 12.4688V21H49.3906V12.4688H50.9961ZM53.6445 12.4688V13.7402H46.7715V12.4688H53.6445ZM59.4629 12.4688H61.0742V18.1348C61.0742 18.7871 60.9336 19.3359 60.6523 19.7812C60.3711 20.2227 59.9883 20.5566 59.5039 20.7832C59.0195 21.0059 58.4688 21.1172 57.8516 21.1172C57.2266 21.1172 56.6699 21.0059 56.1816 20.7832C55.6934 20.5566 55.3105 20.2227 55.0332 19.7812C54.7559 19.3359 54.6172 18.7871 54.6172 18.1348V12.4688H56.2285V18.1348C56.2285 18.5332 56.2949 18.8594 56.4277 19.1133C56.5605 19.3633 56.748 19.5488 56.9902 19.6699C57.2324 19.791 57.5195 19.8516 57.8516 19.8516C58.1875 19.8516 58.4746 19.791 58.7129 19.6699C58.9551 19.5488 59.1406 19.3633 59.2695 19.1133C59.3984 18.8594 59.4629 18.5332 59.4629 18.1348V12.4688ZM62.6035 12.4688H65.7031C66.3516 12.4688 66.9082 12.5664 67.373 12.7617C67.8379 12.957 68.1953 13.2461 68.4453 13.6289C68.6953 14.0117 68.8203 14.4824 68.8203 15.041C68.8203 15.4824 68.7422 15.8652 68.5859 16.1895C68.4297 16.5137 68.209 16.7852 67.9238 17.0039C67.6426 17.2227 67.3105 17.3945 66.9277 17.5195L66.4238 17.7773H63.6875L63.6758 16.5059H65.7207C66.0527 16.5059 66.3281 16.4473 66.5469 16.3301C66.7656 16.2129 66.9297 16.0508 67.0391 15.8438C67.1523 15.6367 67.209 15.4004 67.209 15.1348C67.209 14.8496 67.1543 14.6035 67.0449 14.3965C66.9355 14.1855 66.7695 14.0234 66.5469 13.9102C66.3242 13.7969 66.043 13.7402 65.7031 13.7402H64.2148V21H62.6035V12.4688ZM67.4199 21L65.4453 17.1797L67.1504 17.1738L69.1484 20.918V21H67.4199ZM77.0879 12.4688V21H75.4707L71.8438 15.082V21H70.2324V12.4688H71.8438L75.4824 18.3926V12.4688H77.0879ZM83.4336 12.4688V21H81.8223V12.4688H83.4336ZM92.0293 12.4688V21H90.4121L86.7852 15.082V21H85.1738V12.4688H86.7852L90.4238 18.3926V12.4688H92.0293ZM95.3867 12.4688V21H93.7754V12.4688H95.3867ZM100.613 12.4688V21H99.0078V12.4688H100.613ZM103.262 12.4688V13.7402H96.3887V12.4688H103.262ZM106.051 12.4688V21H104.439V12.4688H106.051ZM111.289 13.7637L108.857 21H107.152L110.34 12.4688H111.43L111.289 13.7637ZM113.322 21L110.879 13.7637L110.732 12.4688H111.828L115.033 21H113.322ZM113.211 17.8301V19.1016H108.635V17.8301H113.211ZM118.836 12.4688V21H117.23V12.4688H118.836ZM121.484 12.4688V13.7402H114.611V12.4688H121.484ZM128.211 19.7344V21H123.676V19.7344H128.211ZM124.168 12.4688V21H122.557V12.4688H124.168ZM127.619 15.9902V17.2266H123.676V15.9902H127.619ZM128.193 12.4688V13.7402H123.676V12.4688H128.193ZM131.879 21H130.039L130.051 19.7344H131.879C132.375 19.7344 132.791 19.625 133.127 19.4062C133.463 19.1836 133.717 18.8652 133.889 18.4512C134.061 18.0332 134.146 17.5332 134.146 16.9512V16.5117C134.146 16.0625 134.098 15.666 134 15.3223C133.902 14.9785 133.758 14.6895 133.566 14.4551C133.379 14.2207 133.146 14.043 132.869 13.9219C132.592 13.8008 132.273 13.7402 131.914 13.7402H130.004V12.4688H131.914C132.484 12.4688 133.004 12.5645 133.473 12.7559C133.945 12.9473 134.354 13.2227 134.697 13.582C135.045 13.9375 135.311 14.3633 135.494 14.8594C135.682 15.3555 135.775 15.9102 135.775 16.5234V16.9512C135.775 17.5605 135.682 18.1152 135.494 18.6152C135.311 19.1113 135.045 19.5371 134.697 19.8926C134.354 20.248 133.943 20.5215 133.467 20.7129C132.99 20.9043 132.461 21 131.879 21ZM130.941 12.4688V21H129.33V12.4688H130.941Z" fill="#FBD500"/>
</svg>
