<svg width="156" height="44" viewBox="0 0 156 44" fill="none" xmlns="http://www.w3.org/2000/svg">
<rect width="156" height="44" rx="10" fill="#40894B" fill-opacity="0.1"/>
<path d="M22 28V26M27 28V25M32 28V23M17.5 22C17.5 17.5217 17.5 15.2825 18.8912 13.8912C20.2825 12.5 22.5217 12.5 27 12.5C31.4783 12.5 33.7175 12.5 35.1088 13.8912C36.5 15.2825 36.5 17.5217 36.5 22C36.5 26.4783 36.5 28.7175 35.1088 30.1088C33.7175 31.5 31.4783 31.5 27 31.5C22.5217 31.5 20.2825 31.5 18.8912 30.1088C17.5 28.7175 17.5 26.4783 17.5 22Z" stroke="#329141" stroke-width="2" stroke-linecap="round" stroke-linejoin="round"/>
<path d="M20.9922 21.4863C23.1473 21.5581 28.0341 21.2328 30.8137 16.8213M28.9923 16.2884L30.8678 15.9865C31.0964 15.9574 31.432 16.1379 31.5145 16.353L32.0104 17.9914" stroke="#329141" stroke-width="2" stroke-linecap="round" stroke-linejoin="round"/>
<path d="M56.0391 24.5469C56.0391 24.3281 56.0052 24.1328 55.9375 23.9609C55.875 23.7839 55.7578 23.625 55.5859 23.4844C55.4193 23.3385 55.1823 23.1979 54.875 23.0625C54.5729 22.9219 54.1823 22.776 53.7031 22.625C53.1719 22.4583 52.6771 22.2708 52.2188 22.0625C51.7604 21.8542 51.3568 21.612 51.0078 21.3359C50.6641 21.0599 50.3958 20.7422 50.2031 20.3828C50.0104 20.0182 49.9141 19.5964 49.9141 19.1172C49.9141 18.6484 50.013 18.2214 50.2109 17.8359C50.4141 17.4505 50.7005 17.1198 51.0703 16.8438C51.4401 16.5625 51.875 16.3464 52.375 16.1953C52.8802 16.0443 53.4375 15.9688 54.0469 15.9688C54.8906 15.9688 55.6198 16.1224 56.2344 16.4297C56.8542 16.737 57.3333 17.1536 57.6719 17.6797C58.0104 18.2057 58.1797 18.7969 58.1797 19.4531H56.0391C56.0391 19.099 55.9635 18.7865 55.8125 18.5156C55.6667 18.2448 55.4427 18.0312 55.1406 17.875C54.8438 17.7188 54.4688 17.6406 54.0156 17.6406C53.5781 17.6406 53.2135 17.7057 52.9219 17.8359C52.6354 17.9661 52.4193 18.1432 52.2734 18.3672C52.1328 18.5911 52.0625 18.8411 52.0625 19.1172C52.0625 19.3255 52.112 19.513 52.2109 19.6797C52.3099 19.8411 52.4583 19.9948 52.6562 20.1406C52.8542 20.2812 53.099 20.4141 53.3906 20.5391C53.6875 20.6589 54.0312 20.7786 54.4219 20.8984C55.0469 21.0859 55.5938 21.2943 56.0625 21.5234C56.5365 21.7526 56.9297 22.013 57.2422 22.3047C57.5599 22.5964 57.7969 22.9245 57.9531 23.2891C58.1146 23.6536 58.1953 24.0677 58.1953 24.5312C58.1953 25.0208 58.099 25.4583 57.9062 25.8438C57.7135 26.2292 57.4375 26.5573 57.0781 26.8281C56.7188 27.099 56.2865 27.3047 55.7812 27.4453C55.2812 27.5859 54.7214 27.6562 54.1016 27.6562C53.5495 27.6562 53.0026 27.5833 52.4609 27.4375C51.9245 27.2865 51.4375 27.0625 51 26.7656C50.5625 26.4635 50.2135 26.0833 49.9531 25.625C49.6927 25.1615 49.5625 24.6198 49.5625 24H51.7188C51.7188 24.3594 51.776 24.6667 51.8906 24.9219C52.0104 25.1719 52.1771 25.3776 52.3906 25.5391C52.6094 25.6953 52.8646 25.8099 53.1562 25.8828C53.4479 25.9557 53.763 25.9922 54.1016 25.9922C54.5391 25.9922 54.8984 25.9323 55.1797 25.8125C55.4661 25.6875 55.6797 25.5156 55.8203 25.2969C55.9661 25.0781 56.0391 24.8281 56.0391 24.5469ZM64.3516 25.7031V21.8047C64.3516 21.5182 64.3021 21.2708 64.2031 21.0625C64.1042 20.8542 63.9531 20.6927 63.75 20.5781C63.5469 20.4635 63.2891 20.4062 62.9766 20.4062C62.7005 20.4062 62.4583 20.4531 62.25 20.5469C62.0469 20.6406 61.8906 20.7734 61.7812 20.9453C61.6719 21.112 61.6172 21.3047 61.6172 21.5234H59.5469C59.5469 21.1745 59.6302 20.8438 59.7969 20.5312C59.9635 20.2135 60.2005 19.9323 60.5078 19.6875C60.8203 19.4375 61.1927 19.2422 61.625 19.1016C62.0625 18.9609 62.5521 18.8906 63.0938 18.8906C63.7344 18.8906 64.3047 19 64.8047 19.2188C65.3099 19.4323 65.7057 19.7552 65.9922 20.1875C66.2839 20.6198 66.4297 21.1641 66.4297 21.8203V25.5078C66.4297 25.9297 66.4557 26.2917 66.5078 26.5938C66.5651 26.8906 66.6484 27.1484 66.7578 27.3672V27.5H64.6562C64.5573 27.2865 64.4818 27.0156 64.4297 26.6875C64.3776 26.3542 64.3516 26.026 64.3516 25.7031ZM64.6406 22.3516L64.6562 23.5781H63.3516C63.0286 23.5781 62.7448 23.612 62.5 23.6797C62.2552 23.7422 62.0547 23.8359 61.8984 23.9609C61.7422 24.0807 61.625 24.2266 61.5469 24.3984C61.4688 24.5651 61.4297 24.7552 61.4297 24.9688C61.4297 25.1771 61.4766 25.3646 61.5703 25.5312C61.6693 25.6979 61.8099 25.8307 61.9922 25.9297C62.1797 26.0234 62.3984 26.0703 62.6484 26.0703C63.013 26.0703 63.3307 25.9974 63.6016 25.8516C63.8724 25.7005 64.0833 25.5182 64.2344 25.3047C64.3854 25.0911 64.4661 24.888 64.4766 24.6953L65.0703 25.5859C64.9974 25.7995 64.888 26.026 64.7422 26.2656C64.5964 26.5052 64.4089 26.7292 64.1797 26.9375C63.9505 27.1458 63.6745 27.3177 63.3516 27.4531C63.0286 27.5885 62.6536 27.6562 62.2266 27.6562C61.6797 27.6562 61.1901 27.5469 60.7578 27.3281C60.3255 27.1094 59.9844 26.8099 59.7344 26.4297C59.4844 26.0495 59.3594 25.6172 59.3594 25.1328C59.3594 24.6849 59.4427 24.2891 59.6094 23.9453C59.776 23.6016 60.0234 23.3125 60.3516 23.0781C60.6797 22.8385 61.0859 22.6589 61.5703 22.5391C62.0599 22.4141 62.6198 22.3516 63.25 22.3516H64.6406ZM70.4766 15.5V27.5H68.4062V15.5H70.4766ZM76.2422 27.6562C75.6016 27.6562 75.026 27.5521 74.5156 27.3438C74.0052 27.1354 73.5703 26.8464 73.2109 26.4766C72.8568 26.1016 72.5833 25.6667 72.3906 25.1719C72.2031 24.6719 72.1094 24.1354 72.1094 23.5625V23.25C72.1094 22.599 72.2031 22.0078 72.3906 21.4766C72.5781 20.9401 72.8438 20.4792 73.1875 20.0938C73.5312 19.7083 73.9427 19.4115 74.4219 19.2031C74.901 18.9948 75.4297 18.8906 76.0078 18.8906C76.6068 18.8906 77.1354 18.9922 77.5938 19.1953C78.0521 19.3932 78.4349 19.6745 78.7422 20.0391C79.0495 20.4036 79.2812 20.8411 79.4375 21.3516C79.5938 21.8568 79.6719 22.4167 79.6719 23.0312V23.8984H73.0469V22.4766H77.6406V22.3203C77.6302 21.9922 77.5677 21.6927 77.4531 21.4219C77.3385 21.1458 77.1615 20.9271 76.9219 20.7656C76.6823 20.599 76.3724 20.5156 75.9922 20.5156C75.6849 20.5156 75.4167 20.5833 75.1875 20.7188C74.9635 20.849 74.776 21.0365 74.625 21.2812C74.4792 21.5208 74.3698 21.8073 74.2969 22.1406C74.224 22.474 74.1875 22.8438 74.1875 23.25V23.5625C74.1875 23.9167 74.2344 24.2448 74.3281 24.5469C74.4271 24.849 74.5703 25.112 74.7578 25.3359C74.9505 25.5547 75.1797 25.7266 75.4453 25.8516C75.7161 25.9714 76.0234 26.0312 76.3672 26.0312C76.7995 26.0312 77.1901 25.9479 77.5391 25.7812C77.8932 25.6094 78.2005 25.3568 78.4609 25.0234L79.5 26.1016C79.3229 26.362 79.0833 26.612 78.7812 26.8516C78.4844 27.0911 78.125 27.2865 77.7031 27.4375C77.2812 27.5833 76.7943 27.6562 76.2422 27.6562ZM85.7031 25.1875C85.7031 25.0104 85.6562 24.8516 85.5625 24.7109C85.4688 24.5703 85.2917 24.4427 85.0312 24.3281C84.776 24.2083 84.401 24.0964 83.9062 23.9922C83.4688 23.8984 83.0651 23.7812 82.6953 23.6406C82.3255 23.5 82.0078 23.3307 81.7422 23.1328C81.4766 22.9297 81.2682 22.6927 81.1172 22.4219C80.9714 22.1458 80.8984 21.8281 80.8984 21.4688C80.8984 21.1198 80.974 20.7917 81.125 20.4844C81.276 20.1719 81.4948 19.8984 81.7812 19.6641C82.0677 19.4245 82.4167 19.237 82.8281 19.1016C83.2396 18.9609 83.7031 18.8906 84.2188 18.8906C84.9375 18.8906 85.5547 19.0078 86.0703 19.2422C86.5911 19.4766 86.9896 19.7995 87.2656 20.2109C87.5417 20.6172 87.6797 21.0755 87.6797 21.5859H85.6172C85.6172 21.362 85.5651 21.1589 85.4609 20.9766C85.362 20.7943 85.2083 20.6484 85 20.5391C84.7917 20.4245 84.5286 20.3672 84.2109 20.3672C83.9245 20.3672 83.6823 20.4141 83.4844 20.5078C83.2917 20.6016 83.1458 20.724 83.0469 20.875C82.9479 21.026 82.8984 21.1927 82.8984 21.375C82.8984 21.5104 82.9245 21.6328 82.9766 21.7422C83.0339 21.8464 83.125 21.9427 83.25 22.0312C83.375 22.1198 83.5443 22.2005 83.7578 22.2734C83.9766 22.3464 84.2448 22.4167 84.5625 22.4844C85.1927 22.6094 85.7422 22.776 86.2109 22.9844C86.6849 23.1875 87.0547 23.4583 87.3203 23.7969C87.5859 24.1354 87.7188 24.5677 87.7188 25.0938C87.7188 25.4688 87.638 25.8125 87.4766 26.125C87.3151 26.4323 87.0807 26.7005 86.7734 26.9297C86.4661 27.1589 86.099 27.3385 85.6719 27.4688C85.2448 27.5938 84.763 27.6562 84.2266 27.6562C83.4505 27.6562 82.7943 27.5182 82.2578 27.2422C81.7214 26.9609 81.3151 26.6068 81.0391 26.1797C80.763 25.7474 80.625 25.2995 80.625 24.8359H82.6016C82.6172 25.1641 82.7057 25.4271 82.8672 25.625C83.0286 25.8229 83.2318 25.9661 83.4766 26.0547C83.7266 26.138 83.9896 26.1797 84.2656 26.1797C84.5781 26.1797 84.8411 26.138 85.0547 26.0547C85.2682 25.9661 85.4297 25.849 85.5391 25.7031C85.6484 25.5521 85.7031 25.3802 85.7031 25.1875ZM93.4297 16.125H97.5625C98.4271 16.125 99.1693 16.2552 99.7891 16.5156C100.409 16.776 100.885 17.1615 101.219 17.6719C101.552 18.1823 101.719 18.8099 101.719 19.5547C101.719 20.1432 101.615 20.6536 101.406 21.0859C101.198 21.5182 100.904 21.8802 100.523 22.1719C100.148 22.4635 99.7057 22.6927 99.1953 22.8594L98.5234 23.2031H94.875L94.8594 21.5078H97.5859C98.0286 21.5078 98.3958 21.4297 98.6875 21.2734C98.9792 21.1172 99.1979 20.901 99.3438 20.625C99.4948 20.349 99.5703 20.0339 99.5703 19.6797C99.5703 19.2995 99.4974 18.9714 99.3516 18.6953C99.2057 18.4141 98.9844 18.1979 98.6875 18.0469C98.3906 17.8958 98.0156 17.8203 97.5625 17.8203H95.5781V27.5H93.4297V16.125ZM99.8516 27.5L97.2188 22.4062L99.4922 22.3984L102.156 27.3906V27.5H99.8516ZM107.242 27.6562C106.602 27.6562 106.026 27.5521 105.516 27.3438C105.005 27.1354 104.57 26.8464 104.211 26.4766C103.857 26.1016 103.583 25.6667 103.391 25.1719C103.203 24.6719 103.109 24.1354 103.109 23.5625V23.25C103.109 22.599 103.203 22.0078 103.391 21.4766C103.578 20.9401 103.844 20.4792 104.188 20.0938C104.531 19.7083 104.943 19.4115 105.422 19.2031C105.901 18.9948 106.43 18.8906 107.008 18.8906C107.607 18.8906 108.135 18.9922 108.594 19.1953C109.052 19.3932 109.435 19.6745 109.742 20.0391C110.049 20.4036 110.281 20.8411 110.438 21.3516C110.594 21.8568 110.672 22.4167 110.672 23.0312V23.8984H104.047V22.4766H108.641V22.3203C108.63 21.9922 108.568 21.6927 108.453 21.4219C108.339 21.1458 108.161 20.9271 107.922 20.7656C107.682 20.599 107.372 20.5156 106.992 20.5156C106.685 20.5156 106.417 20.5833 106.188 20.7188C105.964 20.849 105.776 21.0365 105.625 21.2812C105.479 21.5208 105.37 21.8073 105.297 22.1406C105.224 22.474 105.188 22.8438 105.188 23.25V23.5625C105.188 23.9167 105.234 24.2448 105.328 24.5469C105.427 24.849 105.57 25.112 105.758 25.3359C105.951 25.5547 106.18 25.7266 106.445 25.8516C106.716 25.9714 107.023 26.0312 107.367 26.0312C107.799 26.0312 108.19 25.9479 108.539 25.7812C108.893 25.6094 109.201 25.3568 109.461 25.0234L110.5 26.1016C110.323 26.362 110.083 26.612 109.781 26.8516C109.484 27.0911 109.125 27.2865 108.703 27.4375C108.281 27.5833 107.794 27.6562 107.242 27.6562ZM114.117 20.6719V30.75H112.047V19.0469H113.961L114.117 20.6719ZM119.547 23.1875V23.3516C119.547 23.9661 119.474 24.5365 119.328 25.0625C119.188 25.5833 118.979 26.0391 118.703 26.4297C118.427 26.8151 118.083 27.1172 117.672 27.3359C117.266 27.5495 116.797 27.6562 116.266 27.6562C115.745 27.6562 115.292 27.5573 114.906 27.3594C114.521 27.1562 114.195 26.8698 113.93 26.5C113.664 26.1302 113.451 25.7005 113.289 25.2109C113.133 24.7161 113.016 24.1771 112.938 23.5938V23.0703C113.016 22.4505 113.133 21.888 113.289 21.3828C113.451 20.8724 113.664 20.4323 113.93 20.0625C114.195 19.6875 114.518 19.3984 114.898 19.1953C115.284 18.9922 115.734 18.8906 116.25 18.8906C116.786 18.8906 117.258 18.9922 117.664 19.1953C118.076 19.3984 118.422 19.6901 118.703 20.0703C118.984 20.4505 119.195 20.9036 119.336 21.4297C119.477 21.9557 119.547 22.5417 119.547 23.1875ZM117.477 23.3516V23.1875C117.477 22.8125 117.443 22.4661 117.375 22.1484C117.307 21.8255 117.203 21.5443 117.062 21.3047C116.922 21.0599 116.74 20.8698 116.516 20.7344C116.292 20.599 116.021 20.5312 115.703 20.5312C115.385 20.5312 115.112 20.5833 114.883 20.6875C114.654 20.7917 114.466 20.9401 114.32 21.1328C114.174 21.3255 114.06 21.5547 113.977 21.8203C113.898 22.0807 113.846 22.3698 113.82 22.6875V23.9844C113.867 24.3698 113.958 24.7161 114.094 25.0234C114.229 25.3307 114.427 25.5755 114.688 25.7578C114.953 25.9401 115.297 26.0312 115.719 26.0312C116.036 26.0312 116.307 25.9609 116.531 25.8203C116.755 25.6797 116.938 25.487 117.078 25.2422C117.219 24.9922 117.32 24.7057 117.383 24.3828C117.445 24.0599 117.477 23.7161 117.477 23.3516ZM120.688 23.3594V23.1953C120.688 22.5755 120.776 22.0052 120.953 21.4844C121.13 20.9583 121.388 20.5026 121.727 20.1172C122.065 19.7318 122.479 19.4323 122.969 19.2188C123.458 19 124.016 18.8906 124.641 18.8906C125.276 18.8906 125.839 19 126.328 19.2188C126.823 19.4323 127.24 19.7318 127.578 20.1172C127.917 20.5026 128.174 20.9583 128.352 21.4844C128.529 22.0052 128.617 22.5755 128.617 23.1953V23.3594C128.617 23.974 128.529 24.5443 128.352 25.0703C128.174 25.5911 127.917 26.0469 127.578 26.4375C127.24 26.8229 126.826 27.1224 126.336 27.3359C125.846 27.5495 125.286 27.6562 124.656 27.6562C124.031 27.6562 123.471 27.5495 122.977 27.3359C122.482 27.1224 122.065 26.8229 121.727 26.4375C121.388 26.0469 121.13 25.5911 120.953 25.0703C120.776 24.5443 120.688 23.974 120.688 23.3594ZM122.75 23.1953V23.3594C122.75 23.7292 122.786 24.0755 122.859 24.3984C122.932 24.7214 123.044 25.0052 123.195 25.25C123.346 25.4948 123.542 25.6875 123.781 25.8281C124.026 25.9635 124.318 26.0312 124.656 26.0312C124.99 26.0312 125.276 25.9635 125.516 25.8281C125.755 25.6875 125.951 25.4948 126.102 25.25C126.258 25.0052 126.372 24.7214 126.445 24.3984C126.518 24.0755 126.555 23.7292 126.555 23.3594V23.1953C126.555 22.8307 126.518 22.4896 126.445 22.1719C126.372 21.849 126.258 21.5651 126.102 21.3203C125.951 21.0703 125.753 20.875 125.508 20.7344C125.268 20.5885 124.979 20.5156 124.641 20.5156C124.307 20.5156 124.021 20.5885 123.781 20.7344C123.542 20.875 123.346 21.0703 123.195 21.3203C123.044 21.5651 122.932 21.849 122.859 22.1719C122.786 22.4896 122.75 22.8307 122.75 23.1953ZM132.18 20.7734V27.5H130.117V19.0469H132.07L132.18 20.7734ZM134.75 18.9922L134.719 20.9141C134.604 20.8932 134.474 20.8776 134.328 20.8672C134.188 20.8568 134.055 20.8516 133.93 20.8516C133.612 20.8516 133.333 20.8958 133.094 20.9844C132.854 21.0677 132.654 21.1901 132.492 21.3516C132.336 21.513 132.216 21.7109 132.133 21.9453C132.049 22.1745 132.003 22.4349 131.992 22.7266L131.547 22.6719C131.547 22.1354 131.602 21.638 131.711 21.1797C131.82 20.7214 131.979 20.3203 132.188 19.9766C132.396 19.6328 132.656 19.3672 132.969 19.1797C133.286 18.987 133.651 18.8906 134.062 18.8906C134.177 18.8906 134.299 18.901 134.43 18.9219C134.565 18.9375 134.672 18.9609 134.75 18.9922ZM140.273 19.0469V20.5312H135.43V19.0469H140.273ZM136.727 16.9688H138.797V25.0625C138.797 25.3125 138.831 25.5052 138.898 25.6406C138.966 25.776 139.068 25.8672 139.203 25.9141C139.339 25.9609 139.5 25.9844 139.688 25.9844C139.823 25.9844 139.948 25.9766 140.062 25.9609C140.177 25.9453 140.273 25.9297 140.352 25.9141L140.359 27.4609C140.188 27.5182 139.992 27.5651 139.773 27.6016C139.56 27.638 139.318 27.6562 139.047 27.6562C138.583 27.6562 138.177 27.5781 137.828 27.4219C137.479 27.2604 137.208 27.0026 137.016 26.6484C136.823 26.2891 136.727 25.8151 136.727 25.2266V16.9688Z" fill="#329141"/>
</svg>
