<svg width="204" height="47" viewBox="0 0 204 47" fill="none" xmlns="http://www.w3.org/2000/svg">
<rect x="0.5" y="0.5" width="203" height="46" rx="9.5" stroke="#329141"/>
<path d="M29 29.4808V24.2075C29 20.5742 29 18.7575 30.0984 17.6287C31.1967 16.5 32.9645 16.5 36.5 16.5C40.0355 16.5 41.8033 16.5 42.9017 17.6287C44 18.7575 44 20.5742 44 24.2075V29.4808C44 31.7867 44 32.9396 43.2755 33.3523C41.8724 34.1514 39.2405 31.4852 37.9906 30.6824C37.2657 30.2168 36.9033 29.984 36.5 29.984C36.0967 29.984 35.7343 30.2168 35.0094 30.6824C33.7595 31.4852 31.1276 34.1514 29.7245 33.3523C29 32.9396 29 31.7867 29 29.4808Z" stroke="#329141" stroke-width="1.5" stroke-linecap="round" stroke-linejoin="round"/>
<path d="M35 13.5H37C41.714 13.5 44.0711 13.5 45.5355 14.9645C47 16.4289 47 18.786 47 23.5V29.5" stroke="#329141" stroke-width="1.5" stroke-linecap="round" stroke-linejoin="round"/>
<path d="M64.8828 29.6875C62.3516 29.6875 60.6797 28.4844 60.5391 26.5L60.5312 26.3828H62.2344L62.25 26.4844C62.4062 27.5234 63.4453 28.1719 64.9531 28.1719C66.4609 28.1719 67.4141 27.4922 67.4141 26.4375V26.4297C67.4141 25.5234 66.7969 25.0312 65.3047 24.7031L64.0781 24.4453C61.8672 23.9766 60.7969 22.9609 60.7969 21.2891V21.2812C60.8047 19.3594 62.5 18.0391 64.8828 18.0391C67.2344 18.0391 68.8438 19.3203 68.9609 21.2109L68.9688 21.3438H67.2656L67.2578 21.2344C67.1016 20.1875 66.1953 19.5547 64.8594 19.5547C63.4609 19.5625 62.5703 20.2266 62.5703 21.2109V21.2188C62.5703 22.0625 63.2109 22.5781 64.6172 22.8828L65.8516 23.1406C68.1797 23.6328 69.1797 24.5781 69.1797 26.3203V26.3281C69.1797 28.3828 67.5547 29.6875 64.8828 29.6875ZM73.1687 29.6484C71.5281 29.6484 70.4266 28.6406 70.4266 27.1641V27.1484C70.4266 25.7188 71.5359 24.8438 73.4812 24.7266L75.7156 24.5938V23.9766C75.7156 23.0703 75.1297 22.5234 74.0828 22.5234C73.1062 22.5234 72.5047 22.9844 72.3641 23.6406L72.3484 23.7109H70.7547L70.7625 23.625C70.8797 22.2109 72.1062 21.125 74.1297 21.125C76.1375 21.125 77.4109 22.1875 77.4109 23.8359V29.5H75.7156V28.2031H75.6844C75.2078 29.0859 74.2547 29.6484 73.1687 29.6484ZM72.1297 27.125C72.1297 27.8438 72.7234 28.2969 73.6297 28.2969C74.8172 28.2969 75.7156 27.4922 75.7156 26.4219V25.7812L73.7078 25.9062C72.6922 25.9688 72.1297 26.4141 72.1297 27.1094V27.125ZM81.4937 29.5L78.5328 21.2812H80.3297L82.3922 27.8516H82.4312L84.4937 21.2812H86.2516L83.3062 29.5H81.4937ZM90.6156 29.6641C88.2016 29.6641 86.7406 28.0156 86.7406 25.4219V25.4141C86.7406 22.8438 88.225 21.125 90.5297 21.125C92.8344 21.125 94.2484 22.7812 94.2484 25.25V25.8203H88.4281C88.4594 27.375 89.3109 28.2812 90.6547 28.2812C91.6547 28.2812 92.3188 27.7656 92.5297 27.1484L92.5531 27.0859H94.1547L94.1391 27.1719C93.8734 28.4766 92.6078 29.6641 90.6156 29.6641ZM90.5375 22.5078C89.4438 22.5078 88.6 23.25 88.4516 24.625H92.5766C92.4359 23.2031 91.6391 22.5078 90.5375 22.5078ZM102.094 29.6641C100.469 29.6641 99.6875 28.9766 99.6875 27.3359V22.625H98.5078V21.2812H99.6875V19.1406H101.414V21.2812H102.953V22.625H101.414V27.2344C101.414 28.0703 101.789 28.3203 102.5 28.3203C102.68 28.3203 102.828 28.3047 102.953 28.2891V29.5938C102.758 29.625 102.438 29.6641 102.094 29.6641ZM104.552 29.5V21.2812H106.239V22.6875H106.278C106.544 21.7266 107.231 21.125 108.169 21.125C108.411 21.125 108.622 21.1641 108.755 21.1875V22.7578C108.622 22.7031 108.325 22.6641 107.997 22.6641C106.911 22.6641 106.239 23.375 106.239 24.6016V29.5H104.552ZM112.244 29.6484C110.603 29.6484 109.502 28.6406 109.502 27.1641V27.1484C109.502 25.7188 110.611 24.8438 112.556 24.7266L114.791 24.5938V23.9766C114.791 23.0703 114.205 22.5234 113.158 22.5234C112.181 22.5234 111.58 22.9844 111.439 23.6406L111.423 23.7109H109.83L109.838 23.625C109.955 22.2109 111.181 21.125 113.205 21.125C115.213 21.125 116.486 22.1875 116.486 23.8359V29.5H114.791V28.2031H114.759C114.283 29.0859 113.33 29.6484 112.244 29.6484ZM111.205 27.125C111.205 27.8438 111.798 28.2969 112.705 28.2969C113.892 28.2969 114.791 27.4922 114.791 26.4219V25.7812L112.783 25.9062C111.767 25.9688 111.205 26.4141 111.205 27.1094V27.125ZM118.327 29.5V21.2812H120.014V22.5234H120.053C120.483 21.6875 121.327 21.125 122.569 21.125C124.373 21.125 125.412 22.2891 125.412 24.1797V29.5H123.717V24.5C123.717 23.2656 123.139 22.5703 121.967 22.5703C120.78 22.5703 120.014 23.4297 120.014 24.7109V29.5H118.327ZM130.323 29.6641C128.269 29.6641 127.066 28.6484 126.894 27.1484L126.886 27.0781H128.558L128.573 27.1562C128.73 27.9141 129.292 28.3594 130.331 28.3594C131.347 28.3594 131.956 27.9375 131.956 27.2734V27.2656C131.956 26.7344 131.659 26.4297 130.777 26.2188L129.433 25.9141C127.87 25.5547 127.097 24.8047 127.097 23.6094V23.6016C127.097 22.1328 128.378 21.125 130.269 21.125C132.214 21.125 133.386 22.2109 133.472 23.6094L133.48 23.7031H131.894L131.886 23.6484C131.784 22.9297 131.222 22.4297 130.269 22.4297C129.363 22.4297 128.792 22.8594 128.792 23.5156V23.5234C128.792 24.0312 129.128 24.375 130.011 24.5859L131.347 24.8906C133.027 25.2812 133.667 25.9453 133.667 27.125V27.1328C133.667 28.6328 132.261 29.6641 130.323 29.6641ZM137.594 29.6484C135.953 29.6484 134.852 28.6406 134.852 27.1641V27.1484C134.852 25.7188 135.961 24.8438 137.906 24.7266L140.141 24.5938V23.9766C140.141 23.0703 139.555 22.5234 138.508 22.5234C137.531 22.5234 136.93 22.9844 136.789 23.6406L136.773 23.7109H135.18L135.188 23.625C135.305 22.2109 136.531 21.125 138.555 21.125C140.562 21.125 141.836 22.1875 141.836 23.8359V29.5H140.141V28.2031H140.109C139.633 29.0859 138.68 29.6484 137.594 29.6484ZM136.555 27.125C136.555 27.8438 137.148 28.2969 138.055 28.2969C139.242 28.2969 140.141 27.4922 140.141 26.4219V25.7812L138.133 25.9062C137.117 25.9688 136.555 26.4141 136.555 27.1094V27.125ZM147.208 29.6641C144.809 29.6641 143.309 28.0156 143.309 25.3828V25.375C143.309 22.7734 144.841 21.125 147.184 21.125C149.302 21.125 150.583 22.4844 150.723 24.0312L150.731 24.0859H149.122L149.106 24.0234C148.927 23.2188 148.302 22.5391 147.2 22.5391C145.887 22.5391 145.036 23.6328 145.036 25.3906V25.3984C145.036 27.1953 145.903 28.25 147.208 28.25C148.247 28.25 148.911 27.6484 149.114 26.7578L149.122 26.6953H150.747L150.739 26.75C150.559 28.3984 149.184 29.6641 147.208 29.6641ZM155.025 29.6641C153.4 29.6641 152.619 28.9766 152.619 27.3359V22.625H151.439V21.2812H152.619V19.1406H154.345V21.2812H155.884V22.625H154.345V27.2344C154.345 28.0703 154.72 28.3203 155.431 28.3203C155.611 28.3203 155.759 28.3047 155.884 28.2891V29.5938C155.689 29.625 155.369 29.6641 155.025 29.6641ZM158.397 20.0156C157.85 20.0156 157.412 19.5781 157.412 19.0469C157.412 18.5078 157.85 18.0703 158.397 18.0703C158.952 18.0703 159.381 18.5078 159.381 19.0469C159.381 19.5781 158.952 20.0156 158.397 20.0156ZM157.553 29.5V21.2812H159.241V29.5H157.553ZM164.714 29.6641C162.355 29.6641 160.816 28.0312 160.816 25.3906V25.375C160.816 22.75 162.37 21.125 164.706 21.125C167.05 21.125 168.613 22.7422 168.613 25.375V25.3906C168.613 28.0391 167.066 29.6641 164.714 29.6641ZM164.722 28.25C166.042 28.25 166.886 27.2031 166.886 25.3906V25.375C166.886 23.5781 166.027 22.5391 164.706 22.5391C163.409 22.5391 162.542 23.5781 162.542 25.375V25.3906C162.542 27.2109 163.402 28.25 164.722 28.25ZM170.117 29.5V21.2812H171.805V22.5234H171.844C172.273 21.6875 173.117 21.125 174.359 21.125C176.164 21.125 177.203 22.2891 177.203 24.1797V29.5H175.508V24.5C175.508 23.2656 174.93 22.5703 173.758 22.5703C172.57 22.5703 171.805 23.4297 171.805 24.7109V29.5H170.117Z" fill="#329141"/>
</svg>
