<svg width="164" height="44" viewBox="0 0 164 44" fill="none" xmlns="http://www.w3.org/2000/svg">
<rect width="164" height="44" rx="10" fill="#40894B" fill-opacity="0.1"/>
<path d="M19.5 20.2653V16H34.5V20.2653C34.5 23.4401 34.5 25.0275 33.5237 26.0137C32.5474 27 30.976 27 27.8333 27H26.1667C23.024 27 21.4526 27 20.4763 26.0137C19.5 25.0275 19.5 23.4401 19.5 20.2653Z" stroke="#329141" stroke-width="2" stroke-linecap="round" stroke-linejoin="round"/>
<path d="M19.5 16L20.2211 14.4615C20.7804 13.2684 21.0601 12.6718 21.6269 12.3359C22.1938 12 22.9208 12 24.375 12H29.625C31.0792 12 31.8062 12 32.3731 12.3359C32.9399 12.6718 33.2196 13.2684 33.7788 14.4615L34.5 16" stroke="#329141" stroke-width="2" stroke-linecap="round"/>
<path d="M25.5 19H28.5" stroke="#329141" stroke-width="2" stroke-linecap="round"/>
<path d="M19 32H27M27 32H35M27 32V29.5" stroke="#329141" stroke-width="2" stroke-linecap="round" stroke-linejoin="round"/>
<path d="M56.0391 24.5469C56.0391 24.3281 56.0052 24.1328 55.9375 23.9609C55.875 23.7839 55.7578 23.625 55.5859 23.4844C55.4193 23.3385 55.1823 23.1979 54.875 23.0625C54.5729 22.9219 54.1823 22.776 53.7031 22.625C53.1719 22.4583 52.6771 22.2708 52.2188 22.0625C51.7604 21.8542 51.3568 21.612 51.0078 21.3359C50.6641 21.0599 50.3958 20.7422 50.2031 20.3828C50.0104 20.0182 49.9141 19.5964 49.9141 19.1172C49.9141 18.6484 50.013 18.2214 50.2109 17.8359C50.4141 17.4505 50.7005 17.1198 51.0703 16.8438C51.4401 16.5625 51.875 16.3464 52.375 16.1953C52.8802 16.0443 53.4375 15.9688 54.0469 15.9688C54.8906 15.9688 55.6198 16.1224 56.2344 16.4297C56.8542 16.737 57.3333 17.1536 57.6719 17.6797C58.0104 18.2057 58.1797 18.7969 58.1797 19.4531H56.0391C56.0391 19.099 55.9635 18.7865 55.8125 18.5156C55.6667 18.2448 55.4427 18.0312 55.1406 17.875C54.8438 17.7188 54.4688 17.6406 54.0156 17.6406C53.5781 17.6406 53.2135 17.7057 52.9219 17.8359C52.6354 17.9661 52.4193 18.1432 52.2734 18.3672C52.1328 18.5911 52.0625 18.8411 52.0625 19.1172C52.0625 19.3255 52.112 19.513 52.2109 19.6797C52.3099 19.8411 52.4583 19.9948 52.6562 20.1406C52.8542 20.2812 53.099 20.4141 53.3906 20.5391C53.6875 20.6589 54.0312 20.7786 54.4219 20.8984C55.0469 21.0859 55.5938 21.2943 56.0625 21.5234C56.5365 21.7526 56.9297 22.013 57.2422 22.3047C57.5599 22.5964 57.7969 22.9245 57.9531 23.2891C58.1146 23.6536 58.1953 24.0677 58.1953 24.5312C58.1953 25.0208 58.099 25.4583 57.9062 25.8438C57.7135 26.2292 57.4375 26.5573 57.0781 26.8281C56.7188 27.099 56.2865 27.3047 55.7812 27.4453C55.2812 27.5859 54.7214 27.6562 54.1016 27.6562C53.5495 27.6562 53.0026 27.5833 52.4609 27.4375C51.9245 27.2865 51.4375 27.0625 51 26.7656C50.5625 26.4635 50.2135 26.0833 49.9531 25.625C49.6927 25.1615 49.5625 24.6198 49.5625 24H51.7188C51.7188 24.3594 51.776 24.6667 51.8906 24.9219C52.0104 25.1719 52.1771 25.3776 52.3906 25.5391C52.6094 25.6953 52.8646 25.8099 53.1562 25.8828C53.4479 25.9557 53.763 25.9922 54.1016 25.9922C54.5391 25.9922 54.8984 25.9323 55.1797 25.8125C55.4661 25.6875 55.6797 25.5156 55.8203 25.2969C55.9661 25.0781 56.0391 24.8281 56.0391 24.5469ZM64.7266 25.4922V19.0469H66.8047V27.5H64.8516L64.7266 25.4922ZM64.9922 23.7422L65.6328 23.7266C65.6328 24.2943 65.5703 24.8177 65.4453 25.2969C65.3203 25.776 65.125 26.1927 64.8594 26.5469C64.599 26.8958 64.2682 27.1693 63.8672 27.3672C63.4661 27.5599 62.9922 27.6562 62.4453 27.6562C62.0286 27.6562 61.6484 27.599 61.3047 27.4844C60.9609 27.3646 60.6641 27.1797 60.4141 26.9297C60.1693 26.6745 59.9792 26.349 59.8438 25.9531C59.7083 25.5521 59.6406 25.0703 59.6406 24.5078V19.0469H61.7031V24.5234C61.7031 24.8047 61.7344 25.0391 61.7969 25.2266C61.8646 25.4141 61.9557 25.5677 62.0703 25.6875C62.1901 25.8021 62.3281 25.8854 62.4844 25.9375C62.6458 25.9844 62.8177 26.0078 63 26.0078C63.5 26.0078 63.8932 25.9089 64.1797 25.7109C64.4714 25.5078 64.6797 25.237 64.8047 24.8984C64.9297 24.5547 64.9922 24.1693 64.9922 23.7422ZM70.6953 20.6719V30.75H68.625V19.0469H70.5391L70.6953 20.6719ZM76.125 23.1875V23.3516C76.125 23.9661 76.0521 24.5365 75.9062 25.0625C75.7656 25.5833 75.5573 26.0391 75.2812 26.4297C75.0052 26.8151 74.6615 27.1172 74.25 27.3359C73.8438 27.5495 73.375 27.6562 72.8438 27.6562C72.3229 27.6562 71.8698 27.5573 71.4844 27.3594C71.099 27.1562 70.7734 26.8698 70.5078 26.5C70.2422 26.1302 70.0286 25.7005 69.8672 25.2109C69.7109 24.7161 69.5938 24.1771 69.5156 23.5938V23.0703C69.5938 22.4505 69.7109 21.888 69.8672 21.3828C70.0286 20.8724 70.2422 20.4323 70.5078 20.0625C70.7734 19.6875 71.0964 19.3984 71.4766 19.1953C71.862 18.9922 72.3125 18.8906 72.8281 18.8906C73.3646 18.8906 73.8359 18.9922 74.2422 19.1953C74.6536 19.3984 75 19.6901 75.2812 20.0703C75.5625 20.4505 75.7734 20.9036 75.9141 21.4297C76.0547 21.9557 76.125 22.5417 76.125 23.1875ZM74.0547 23.3516V23.1875C74.0547 22.8125 74.0208 22.4661 73.9531 22.1484C73.8854 21.8255 73.7812 21.5443 73.6406 21.3047C73.5 21.0599 73.3177 20.8698 73.0938 20.7344C72.8698 20.599 72.599 20.5312 72.2812 20.5312C71.9635 20.5312 71.6901 20.5833 71.4609 20.6875C71.2318 20.7917 71.0443 20.9401 70.8984 21.1328C70.7526 21.3255 70.638 21.5547 70.5547 21.8203C70.4766 22.0807 70.4245 22.3698 70.3984 22.6875V23.9844C70.4453 24.3698 70.5365 24.7161 70.6719 25.0234C70.8073 25.3307 71.0052 25.5755 71.2656 25.7578C71.5312 25.9401 71.875 26.0312 72.2969 26.0312C72.6146 26.0312 72.8854 25.9609 73.1094 25.8203C73.3333 25.6797 73.5156 25.487 73.6562 25.2422C73.7969 24.9922 73.8984 24.7057 73.9609 24.3828C74.0234 24.0599 74.0547 23.7161 74.0547 23.3516ZM79.6953 20.6719V30.75H77.625V19.0469H79.5391L79.6953 20.6719ZM85.125 23.1875V23.3516C85.125 23.9661 85.0521 24.5365 84.9062 25.0625C84.7656 25.5833 84.5573 26.0391 84.2812 26.4297C84.0052 26.8151 83.6615 27.1172 83.25 27.3359C82.8438 27.5495 82.375 27.6562 81.8438 27.6562C81.3229 27.6562 80.8698 27.5573 80.4844 27.3594C80.099 27.1562 79.7734 26.8698 79.5078 26.5C79.2422 26.1302 79.0286 25.7005 78.8672 25.2109C78.7109 24.7161 78.5938 24.1771 78.5156 23.5938V23.0703C78.5938 22.4505 78.7109 21.888 78.8672 21.3828C79.0286 20.8724 79.2422 20.4323 79.5078 20.0625C79.7734 19.6875 80.0964 19.3984 80.4766 19.1953C80.862 18.9922 81.3125 18.8906 81.8281 18.8906C82.3646 18.8906 82.8359 18.9922 83.2422 19.1953C83.6536 19.3984 84 19.6901 84.2812 20.0703C84.5625 20.4505 84.7734 20.9036 84.9141 21.4297C85.0547 21.9557 85.125 22.5417 85.125 23.1875ZM83.0547 23.3516V23.1875C83.0547 22.8125 83.0208 22.4661 82.9531 22.1484C82.8854 21.8255 82.7812 21.5443 82.6406 21.3047C82.5 21.0599 82.3177 20.8698 82.0938 20.7344C81.8698 20.599 81.599 20.5312 81.2812 20.5312C80.9635 20.5312 80.6901 20.5833 80.4609 20.6875C80.2318 20.7917 80.0443 20.9401 79.8984 21.1328C79.7526 21.3255 79.638 21.5547 79.5547 21.8203C79.4766 22.0807 79.4245 22.3698 79.3984 22.6875V23.9844C79.4453 24.3698 79.5365 24.7161 79.6719 25.0234C79.8073 25.3307 80.0052 25.5755 80.2656 25.7578C80.5312 25.9401 80.875 26.0312 81.2969 26.0312C81.6146 26.0312 81.8854 25.9609 82.1094 25.8203C82.3333 25.6797 82.5156 25.487 82.6562 25.2422C82.7969 24.9922 82.8984 24.7057 82.9609 24.3828C83.0234 24.0599 83.0547 23.7161 83.0547 23.3516ZM88.8203 15.5V27.5H86.75V15.5H88.8203ZM92.9766 19.0469V27.5H90.9062V19.0469H92.9766ZM90.7656 16.8359C90.7656 16.5286 90.8698 16.2734 91.0781 16.0703C91.2917 15.8672 91.5781 15.7656 91.9375 15.7656C92.2969 15.7656 92.5807 15.8672 92.7891 16.0703C93.0026 16.2734 93.1094 16.5286 93.1094 16.8359C93.1094 17.138 93.0026 17.3906 92.7891 17.5938C92.5807 17.7969 92.2969 17.8984 91.9375 17.8984C91.5781 17.8984 91.2917 17.7969 91.0781 17.5938C90.8698 17.3906 90.7656 17.138 90.7656 16.8359ZM98.7422 27.6562C98.1016 27.6562 97.526 27.5521 97.0156 27.3438C96.5052 27.1354 96.0703 26.8464 95.7109 26.4766C95.3568 26.1016 95.0833 25.6667 94.8906 25.1719C94.7031 24.6719 94.6094 24.1354 94.6094 23.5625V23.25C94.6094 22.599 94.7031 22.0078 94.8906 21.4766C95.0781 20.9401 95.3438 20.4792 95.6875 20.0938C96.0312 19.7083 96.4427 19.4115 96.9219 19.2031C97.401 18.9948 97.9297 18.8906 98.5078 18.8906C99.1068 18.8906 99.6354 18.9922 100.094 19.1953C100.552 19.3932 100.935 19.6745 101.242 20.0391C101.549 20.4036 101.781 20.8411 101.938 21.3516C102.094 21.8568 102.172 22.4167 102.172 23.0312V23.8984H95.5469V22.4766H100.141V22.3203C100.13 21.9922 100.068 21.6927 99.9531 21.4219C99.8385 21.1458 99.6615 20.9271 99.4219 20.7656C99.1823 20.599 98.8724 20.5156 98.4922 20.5156C98.1849 20.5156 97.9167 20.5833 97.6875 20.7188C97.4635 20.849 97.276 21.0365 97.125 21.2812C96.9792 21.5208 96.8698 21.8073 96.7969 22.1406C96.724 22.474 96.6875 22.8438 96.6875 23.25V23.5625C96.6875 23.9167 96.7344 24.2448 96.8281 24.5469C96.9271 24.849 97.0703 25.112 97.2578 25.3359C97.4505 25.5547 97.6797 25.7266 97.9453 25.8516C98.2161 25.9714 98.5234 26.0312 98.8672 26.0312C99.2995 26.0312 99.6901 25.9479 100.039 25.7812C100.393 25.6094 100.701 25.3568 100.961 25.0234L102 26.1016C101.823 26.362 101.583 26.612 101.281 26.8516C100.984 27.0911 100.625 27.2865 100.203 27.4375C99.7812 27.5833 99.2943 27.6562 98.7422 27.6562ZM105.617 20.7734V27.5H103.555V19.0469H105.508L105.617 20.7734ZM108.188 18.9922L108.156 20.9141C108.042 20.8932 107.911 20.8776 107.766 20.8672C107.625 20.8568 107.492 20.8516 107.367 20.8516C107.049 20.8516 106.771 20.8958 106.531 20.9844C106.292 21.0677 106.091 21.1901 105.93 21.3516C105.773 21.513 105.654 21.7109 105.57 21.9453C105.487 22.1745 105.44 22.4349 105.43 22.7266L104.984 22.6719C104.984 22.1354 105.039 21.638 105.148 21.1797C105.258 20.7214 105.417 20.3203 105.625 19.9766C105.833 19.6328 106.094 19.3672 106.406 19.1797C106.724 18.987 107.089 18.8906 107.5 18.8906C107.615 18.8906 107.737 18.901 107.867 18.9219C108.003 18.9375 108.109 18.9609 108.188 18.9922ZM113.969 25.1875C113.969 25.0104 113.922 24.8516 113.828 24.7109C113.734 24.5703 113.557 24.4427 113.297 24.3281C113.042 24.2083 112.667 24.0964 112.172 23.9922C111.734 23.8984 111.331 23.7812 110.961 23.6406C110.591 23.5 110.273 23.3307 110.008 23.1328C109.742 22.9297 109.534 22.6927 109.383 22.4219C109.237 22.1458 109.164 21.8281 109.164 21.4688C109.164 21.1198 109.24 20.7917 109.391 20.4844C109.542 20.1719 109.76 19.8984 110.047 19.6641C110.333 19.4245 110.682 19.237 111.094 19.1016C111.505 18.9609 111.969 18.8906 112.484 18.8906C113.203 18.8906 113.82 19.0078 114.336 19.2422C114.857 19.4766 115.255 19.7995 115.531 20.2109C115.807 20.6172 115.945 21.0755 115.945 21.5859H113.883C113.883 21.362 113.831 21.1589 113.727 20.9766C113.628 20.7943 113.474 20.6484 113.266 20.5391C113.057 20.4245 112.794 20.3672 112.477 20.3672C112.19 20.3672 111.948 20.4141 111.75 20.5078C111.557 20.6016 111.411 20.724 111.312 20.875C111.214 21.026 111.164 21.1927 111.164 21.375C111.164 21.5104 111.19 21.6328 111.242 21.7422C111.299 21.8464 111.391 21.9427 111.516 22.0312C111.641 22.1198 111.81 22.2005 112.023 22.2734C112.242 22.3464 112.51 22.4167 112.828 22.4844C113.458 22.6094 114.008 22.776 114.477 22.9844C114.951 23.1875 115.32 23.4583 115.586 23.7969C115.852 24.1354 115.984 24.5677 115.984 25.0938C115.984 25.4688 115.904 25.8125 115.742 26.125C115.581 26.4323 115.346 26.7005 115.039 26.9297C114.732 27.1589 114.365 27.3385 113.938 27.4688C113.51 27.5938 113.029 27.6562 112.492 27.6562C111.716 27.6562 111.06 27.5182 110.523 27.2422C109.987 26.9609 109.581 26.6068 109.305 26.1797C109.029 25.7474 108.891 25.2995 108.891 24.8359H110.867C110.883 25.1641 110.971 25.4271 111.133 25.625C111.294 25.8229 111.497 25.9661 111.742 26.0547C111.992 26.138 112.255 26.1797 112.531 26.1797C112.844 26.1797 113.107 26.138 113.32 26.0547C113.534 25.9661 113.695 25.849 113.805 25.7031C113.914 25.5521 113.969 25.3802 113.969 25.1875ZM123.984 16.125V27.5H121.836V16.125H123.984ZM128.172 20.8516V27.5H126.109V19.0469H128.047L128.172 20.8516ZM127.844 22.9688H127.234C127.24 22.3542 127.323 21.7969 127.484 21.2969C127.646 20.7969 127.872 20.3672 128.164 20.0078C128.461 19.6484 128.812 19.3724 129.219 19.1797C129.625 18.987 130.078 18.8906 130.578 18.8906C130.984 18.8906 131.352 18.9479 131.68 19.0625C132.008 19.1771 132.289 19.3594 132.523 19.6094C132.763 19.8594 132.945 20.1875 133.07 20.5938C133.201 20.9948 133.266 21.4896 133.266 22.0781V27.5H131.188V22.0625C131.188 21.6771 131.13 21.3724 131.016 21.1484C130.906 20.9245 130.745 20.7656 130.531 20.6719C130.323 20.5781 130.065 20.5312 129.758 20.5312C129.44 20.5312 129.161 20.5964 128.922 20.7266C128.688 20.8516 128.49 21.026 128.328 21.25C128.172 21.474 128.052 21.7318 127.969 22.0234C127.885 22.3151 127.844 22.6302 127.844 22.9688ZM137.789 27.5H135.711V18.2656C135.711 17.6302 135.833 17.0964 136.078 16.6641C136.323 16.2266 136.672 15.8958 137.125 15.6719C137.578 15.4479 138.112 15.3359 138.727 15.3359C138.93 15.3359 139.122 15.349 139.305 15.375C139.492 15.401 139.677 15.4375 139.859 15.4844L139.82 17.0547C139.721 17.0286 139.612 17.0104 139.492 17C139.378 16.9896 139.25 16.9844 139.109 16.9844C138.828 16.9844 138.589 17.0339 138.391 17.1328C138.193 17.2318 138.042 17.3776 137.938 17.5703C137.839 17.7578 137.789 17.9896 137.789 18.2656V27.5ZM139.5 19.0469V20.5312H134.438V19.0469H139.5ZM140.406 23.3594V23.1953C140.406 22.5755 140.495 22.0052 140.672 21.4844C140.849 20.9583 141.107 20.5026 141.445 20.1172C141.784 19.7318 142.198 19.4323 142.688 19.2188C143.177 19 143.734 18.8906 144.359 18.8906C144.995 18.8906 145.557 19 146.047 19.2188C146.542 19.4323 146.958 19.7318 147.297 20.1172C147.635 20.5026 147.893 20.9583 148.07 21.4844C148.247 22.0052 148.336 22.5755 148.336 23.1953V23.3594C148.336 23.974 148.247 24.5443 148.07 25.0703C147.893 25.5911 147.635 26.0469 147.297 26.4375C146.958 26.8229 146.544 27.1224 146.055 27.3359C145.565 27.5495 145.005 27.6562 144.375 27.6562C143.75 27.6562 143.19 27.5495 142.695 27.3359C142.201 27.1224 141.784 26.8229 141.445 26.4375C141.107 26.0469 140.849 25.5911 140.672 25.0703C140.495 24.5443 140.406 23.974 140.406 23.3594ZM142.469 23.1953V23.3594C142.469 23.7292 142.505 24.0755 142.578 24.3984C142.651 24.7214 142.763 25.0052 142.914 25.25C143.065 25.4948 143.26 25.6875 143.5 25.8281C143.745 25.9635 144.036 26.0312 144.375 26.0312C144.708 26.0312 144.995 25.9635 145.234 25.8281C145.474 25.6875 145.669 25.4948 145.82 25.25C145.977 25.0052 146.091 24.7214 146.164 24.3984C146.237 24.0755 146.273 23.7292 146.273 23.3594V23.1953C146.273 22.8307 146.237 22.4896 146.164 22.1719C146.091 21.849 145.977 21.5651 145.82 21.3203C145.669 21.0703 145.471 20.875 145.227 20.7344C144.987 20.5885 144.698 20.5156 144.359 20.5156C144.026 20.5156 143.74 20.5885 143.5 20.7344C143.26 20.875 143.065 21.0703 142.914 21.3203C142.763 21.5651 142.651 21.849 142.578 22.1719C142.505 22.4896 142.469 22.8307 142.469 23.1953Z" fill="#329141"/>
</svg>
