<svg width="100" height="38" viewBox="0 0 100 38" fill="none" xmlns="http://www.w3.org/2000/svg">
<rect width="100" height="38" rx="10" fill="#329141"/>
<path d="M21.0239 14.2578H22.7695V20.396C22.7695 21.1027 22.6172 21.6973 22.3125 22.1797C22.0078 22.6579 21.5931 23.0197 21.0684 23.2651C20.5436 23.5063 19.9469 23.627 19.2783 23.627C18.6012 23.627 17.9982 23.5063 17.4692 23.2651C16.9403 23.0197 16.5256 22.6579 16.2251 22.1797C15.9246 21.6973 15.7744 21.1027 15.7744 20.396V14.2578H17.52V20.396C17.52 20.8276 17.592 21.181 17.7358 21.4561C17.8797 21.7269 18.0828 21.9279 18.3452 22.0591C18.6076 22.1903 18.9186 22.2559 19.2783 22.2559C19.6423 22.2559 19.9533 22.1903 20.2114 22.0591C20.4738 21.9279 20.6748 21.7269 20.8145 21.4561C20.9541 21.181 21.0239 20.8276 21.0239 20.396V14.2578ZM25.9751 17.9521V26.1406H24.293V16.6318H25.8481L25.9751 17.9521ZM30.3867 19.9961V20.1294C30.3867 20.6287 30.3275 21.0921 30.209 21.5195C30.0947 21.9427 29.9255 22.313 29.7012 22.6304C29.4769 22.9435 29.1976 23.189 28.8633 23.3667C28.5332 23.5402 28.1523 23.627 27.7207 23.627C27.2975 23.627 26.9294 23.5465 26.6162 23.3857C26.3031 23.2207 26.0386 22.988 25.8228 22.6875C25.6069 22.387 25.4334 22.0379 25.3022 21.6401C25.1753 21.2381 25.0801 20.8001 25.0166 20.3262V19.9009C25.0801 19.3973 25.1753 18.9403 25.3022 18.5298C25.4334 18.1151 25.6069 17.7575 25.8228 17.457C26.0386 17.1523 26.3009 16.9175 26.6099 16.7524C26.923 16.5874 27.2891 16.5049 27.708 16.5049C28.1439 16.5049 28.5269 16.5874 28.8569 16.7524C29.1912 16.9175 29.4727 17.1545 29.7012 17.4634C29.9297 17.7723 30.1011 18.1405 30.2153 18.5679C30.3296 18.9953 30.3867 19.4714 30.3867 19.9961ZM28.7046 20.1294V19.9961C28.7046 19.6914 28.6771 19.41 28.6221 19.1519C28.5671 18.8895 28.4824 18.661 28.3682 18.4663C28.2539 18.2674 28.1058 18.113 27.9238 18.0029C27.7419 17.8929 27.5218 17.8379 27.2637 17.8379C27.0055 17.8379 26.7834 17.8802 26.5972 17.9648C26.411 18.0495 26.2586 18.1701 26.1401 18.3267C26.0216 18.4832 25.9285 18.6694 25.8608 18.8853C25.7974 19.0968 25.755 19.3317 25.7339 19.5898V20.6436C25.772 20.9567 25.846 21.2381 25.9561 21.4878C26.0661 21.7375 26.2269 21.9364 26.4385 22.0845C26.6543 22.2326 26.9336 22.3066 27.2764 22.3066C27.5345 22.3066 27.7546 22.2495 27.9365 22.1353C28.1185 22.021 28.2666 21.8644 28.3809 21.6655C28.4951 21.4624 28.5776 21.2297 28.6284 20.9673C28.6792 20.7049 28.7046 20.4256 28.7046 20.1294ZM35.7314 22.04V13.75H37.4199V23.5H35.8965L35.7314 22.04ZM31.3198 20.1484V20.0151C31.3198 19.4904 31.3791 19.0143 31.4976 18.5869C31.6203 18.1553 31.798 17.785 32.0308 17.4761C32.2635 17.1672 32.5449 16.9281 32.875 16.7588C33.2093 16.5895 33.5881 16.5049 34.0112 16.5049C34.4217 16.5049 34.7793 16.5874 35.084 16.7524C35.3929 16.9175 35.6553 17.1523 35.8711 17.457C36.0911 17.7617 36.2668 18.1235 36.3979 18.5425C36.5291 18.9572 36.6243 19.4142 36.6836 19.9136V20.2754C36.6243 20.762 36.5291 21.2085 36.3979 21.6147C36.2668 22.021 36.0911 22.3765 35.8711 22.6812C35.6553 22.9816 35.3929 23.2144 35.084 23.3794C34.7751 23.5444 34.4132 23.627 33.9985 23.627C33.5796 23.627 33.203 23.5402 32.8687 23.3667C32.5386 23.1932 32.2572 22.9499 32.0244 22.6367C31.7959 22.3236 31.6203 21.9554 31.4976 21.5322C31.3791 21.109 31.3198 20.6478 31.3198 20.1484ZM33.002 20.0151V20.1484C33.002 20.4447 33.0273 20.7218 33.0781 20.98C33.1289 21.2381 33.2114 21.4666 33.3257 21.6655C33.4399 21.8602 33.5859 22.0125 33.7637 22.1226C33.9456 22.2326 34.1657 22.2876 34.4238 22.2876C34.7539 22.2876 35.0247 22.2157 35.2363 22.0718C35.4521 21.9237 35.6193 21.7227 35.7378 21.4688C35.8563 21.2106 35.9325 20.9207 35.9663 20.5991V19.6025C35.9494 19.3486 35.9049 19.1138 35.833 18.8979C35.7653 18.6821 35.668 18.4959 35.541 18.3394C35.4183 18.1828 35.266 18.0601 35.084 17.9712C34.902 17.8823 34.6862 17.8379 34.4365 17.8379C34.1784 17.8379 33.9583 17.895 33.7764 18.0093C33.5944 18.1193 33.4463 18.2738 33.332 18.4727C33.2178 18.6715 33.1331 18.9022 33.0781 19.1646C33.0273 19.4269 33.002 19.7104 33.002 20.0151ZM42.7202 22.04V18.8726C42.7202 18.6398 42.68 18.4388 42.5996 18.2695C42.5192 18.1003 42.3965 17.9691 42.2314 17.876C42.0664 17.7829 41.8569 17.7363 41.603 17.7363C41.3787 17.7363 41.182 17.7744 41.0127 17.8506C40.8477 17.9268 40.7207 18.0347 40.6318 18.1743C40.543 18.3097 40.4985 18.4663 40.4985 18.644H38.8164C38.8164 18.3605 38.8841 18.0918 39.0195 17.8379C39.1549 17.5798 39.3475 17.3512 39.5972 17.1523C39.8511 16.9492 40.1536 16.7905 40.5049 16.6763C40.8604 16.562 41.2581 16.5049 41.6982 16.5049C42.2188 16.5049 42.6821 16.5938 43.0884 16.7715C43.4989 16.945 43.8205 17.2074 44.0532 17.5586C44.2902 17.9098 44.4087 18.3521 44.4087 18.8853V21.8813C44.4087 22.2241 44.4299 22.5182 44.4722 22.7637C44.5187 23.0049 44.5864 23.2144 44.6753 23.3921V23.5H42.9678C42.8874 23.3265 42.826 23.1064 42.7837 22.8398C42.7414 22.569 42.7202 22.3024 42.7202 22.04ZM42.9551 19.3169L42.9678 20.3135H41.9077C41.6453 20.3135 41.4147 20.341 41.2158 20.396C41.0169 20.4468 40.854 20.5229 40.7271 20.6245C40.6001 20.7218 40.5049 20.8403 40.4414 20.98C40.3779 21.1154 40.3462 21.2699 40.3462 21.4434C40.3462 21.6126 40.3843 21.765 40.4604 21.9004C40.5409 22.0358 40.6551 22.1437 40.8032 22.2241C40.9556 22.3003 41.1333 22.3384 41.3364 22.3384C41.6326 22.3384 41.8908 22.2791 42.1108 22.1606C42.3309 22.0379 42.5023 21.8898 42.625 21.7163C42.7477 21.5428 42.8133 21.3778 42.8218 21.2212L43.3042 21.9448C43.245 22.1183 43.1561 22.3024 43.0376 22.4971C42.9191 22.6917 42.7668 22.8737 42.5806 23.043C42.3944 23.2122 42.1701 23.3519 41.9077 23.4619C41.6453 23.5719 41.3407 23.627 40.9937 23.627C40.5493 23.627 40.1515 23.5381 39.8003 23.3604C39.4491 23.1826 39.1719 22.9393 38.9688 22.6304C38.7656 22.3215 38.6641 21.9702 38.6641 21.5767C38.6641 21.2127 38.7318 20.8911 38.8672 20.6118C39.0026 20.3325 39.2036 20.0977 39.4702 19.9072C39.7368 19.7126 40.0669 19.5666 40.4604 19.4692C40.8582 19.3677 41.3132 19.3169 41.8252 19.3169H42.9551ZM49.1694 16.6318V17.8379H45.2339V16.6318H49.1694ZM46.2876 14.9434H47.9697V21.5195C47.9697 21.7227 47.9972 21.8792 48.0522 21.9893C48.1073 22.0993 48.1898 22.1733 48.2998 22.2114C48.4098 22.2495 48.541 22.2686 48.6934 22.2686C48.8034 22.2686 48.9049 22.2622 48.998 22.2495C49.0911 22.2368 49.1694 22.2241 49.2329 22.2114L49.2393 23.4683C49.0996 23.5148 48.9409 23.5529 48.7632 23.5825C48.5897 23.6121 48.3929 23.627 48.1729 23.627C47.7962 23.627 47.4661 23.5635 47.1826 23.4365C46.8991 23.3053 46.679 23.0959 46.5225 22.8081C46.3659 22.5161 46.2876 22.131 46.2876 21.6528V14.9434ZM53.3716 23.627C52.8511 23.627 52.3835 23.5423 51.9688 23.373C51.554 23.2038 51.2007 22.9689 50.9087 22.6685C50.6209 22.3638 50.3988 22.0104 50.2422 21.6084C50.0898 21.2021 50.0137 20.7663 50.0137 20.3008V20.0469C50.0137 19.5179 50.0898 19.0376 50.2422 18.606C50.3945 18.1701 50.6104 17.7956 50.8896 17.4824C51.1689 17.1693 51.5033 16.9281 51.8926 16.7588C52.2819 16.5895 52.7114 16.5049 53.1812 16.5049C53.6678 16.5049 54.0973 16.5874 54.4697 16.7524C54.8421 16.9132 55.1532 17.1418 55.4028 17.438C55.6525 17.7342 55.8408 18.0897 55.9678 18.5044C56.0947 18.9149 56.1582 19.3698 56.1582 19.8691V20.5737H50.7754V19.4185H54.5078V19.2915C54.4993 19.0249 54.4486 18.7816 54.3555 18.5615C54.2624 18.3372 54.1185 18.1595 53.9238 18.0283C53.7292 17.8929 53.4774 17.8252 53.1685 17.8252C52.9188 17.8252 52.7008 17.8802 52.5146 17.9902C52.3327 18.096 52.1803 18.2484 52.0576 18.4473C51.9391 18.6419 51.8503 18.8747 51.791 19.1455C51.7318 19.4163 51.7021 19.7168 51.7021 20.0469V20.3008C51.7021 20.5885 51.7402 20.8551 51.8164 21.1006C51.8968 21.346 52.0132 21.5597 52.1655 21.7417C52.3221 21.9194 52.5083 22.0591 52.7241 22.1606C52.9442 22.258 53.1938 22.3066 53.4731 22.3066C53.8244 22.3066 54.1418 22.2389 54.4253 22.1035C54.7131 21.9639 54.9627 21.7586 55.1743 21.4878L56.0186 22.3638C55.8747 22.5754 55.68 22.7785 55.4346 22.9731C55.1934 23.1678 54.9014 23.3265 54.5586 23.4492C54.2158 23.5677 53.8201 23.627 53.3716 23.627Z" fill="white"/>
<path d="M70.8688 18.6183C70.8137 19.6653 70.877 20.7798 69.9416 21.4813C69.5062 21.8079 69.25 22.3203 69.25 22.8645C69.25 23.6131 69.8364 24.25 70.6 24.25H81.4C82.1637 24.25 82.75 23.6131 82.75 22.8645C82.75 22.3203 82.4938 21.8079 82.0584 21.4813C81.1229 20.7798 81.1863 19.6653 81.1312 18.6183C80.9876 15.8892 78.7329 13.75 76 13.75C73.2671 13.75 71.0124 15.8892 70.8688 18.6183Z" stroke="white" stroke-width="2" stroke-linecap="round" stroke-linejoin="round"/>
<path d="M74.875 12.3438C74.875 12.9651 75.3787 13.75 76 13.75C76.6213 13.75 77.125 12.9651 77.125 12.3438C77.125 11.7224 76.6213 11.5 76 11.5C75.3787 11.5 74.875 11.7224 74.875 12.3438Z" stroke="white" stroke-width="2"/>
<path d="M78.25 24.25C78.25 25.4927 77.2427 26.5 76 26.5C74.7573 26.5 73.75 25.4927 73.75 24.25" stroke="white" stroke-width="2" stroke-linecap="round" stroke-linejoin="round"/>
</svg>
