<svg width="24" height="25" viewBox="0 0 24 25" fill="none" xmlns="http://www.w3.org/2000/svg">
<path d="M2.5 12.5C2.5 8.02166 2.5 5.78249 3.89124 4.39124C5.28249 3 7.52166 3 12 3C16.4783 3 18.7175 3 20.1088 4.39124C21.5 5.78249 21.5 8.02166 21.5 12.5C21.5 16.9783 21.5 19.2175 20.1088 20.6088C18.7175 22 16.4783 22 12 22C7.52166 22 5.28249 22 3.89124 20.6088C2.5 19.2175 2.5 16.9783 2.5 12.5Z" stroke="#141B34" stroke-width="1.5"/>
<path d="M11.9702 17.5386V10.4882M11.9702 10.4882C11.6441 10.4839 11.3224 10.708 11.085 10.9816L9.49553 12.7643M11.9702 10.4882C12.2847 10.4924 12.6034 10.7154 12.8553 10.9816L14.454 12.7643M15.9863 7.53857H7.98633" stroke="#141B34" stroke-width="1.5" stroke-linecap="round"/>
</svg>
