<svg width="24" height="24" viewBox="0 0 24 24" fill="none" xmlns="http://www.w3.org/2000/svg">
<path d="M14.6858 11.5125L6.384 10.05V20.8567C6.3839 20.9742 6.40699 21.0905 6.45194 21.199C6.49689 21.3076 6.56282 21.4061 6.64594 21.4891C6.72906 21.5721 6.82775 21.6379 6.93634 21.6826C7.04494 21.7274 7.1613 21.7503 7.27875 21.75H21.6038C21.7213 21.7505 21.8379 21.7277 21.9466 21.6831C22.0554 21.6384 22.1543 21.5727 22.2375 21.4896C22.3208 21.4066 22.3869 21.308 22.4319 21.1994C22.477 21.0908 22.5001 20.9743 22.5 20.8567V16.875L14.6858 11.5125Z" fill="#185C37"/>
<path d="M14.6858 2.25H7.27875C7.1613 2.24971 7.04494 2.2726 6.93634 2.31736C6.82775 2.36213 6.72906 2.42789 6.64594 2.51088C6.56282 2.59386 6.49689 2.69244 6.45194 2.80096C6.40699 2.90947 6.3839 3.0258 6.384 3.14325V7.125L14.6858 12L19.0815 13.4625L22.5 12V7.125L14.6858 2.25Z" fill="#21A366"/>
<path d="M6.384 7.125H14.6858V12H6.384V7.125Z" fill="#107C41"/>
<path opacity="0.1" d="M12.3255 6.14999H6.384V18.3375H12.3255C12.5623 18.3363 12.789 18.2419 12.9566 18.0747C13.1242 17.9075 13.2192 17.681 13.221 17.4442V7.04324C13.2192 6.8065 13.1242 6.57999 12.9566 6.41279C12.789 6.24559 12.5623 6.15117 12.3255 6.14999Z" fill="black"/>
<path opacity="0.2" d="M11.8373 6.63751H6.384V18.825H11.8373C12.074 18.8238 12.3008 18.7294 12.4684 18.5622C12.636 18.395 12.731 18.1685 12.7328 17.9318V7.53076C12.731 7.29402 12.636 7.0675 12.4684 6.90031C12.3008 6.73311 12.074 6.63869 11.8373 6.63751Z" fill="black"/>
<path opacity="0.2" d="M11.8373 6.63751H6.384V17.85H11.8373C12.074 17.8488 12.3008 17.7544 12.4684 17.5872C12.636 17.42 12.731 17.1935 12.7328 16.9568V7.53076C12.731 7.29402 12.636 7.0675 12.4684 6.90031C12.3008 6.73311 12.074 6.63869 11.8373 6.63751Z" fill="black"/>
<path opacity="0.2" d="M11.349 6.63751H6.384V17.85H11.349C11.5858 17.8488 11.8125 17.7544 11.9801 17.5872C12.1477 17.42 12.2427 17.1935 12.2445 16.9568V7.53076C12.2427 7.29402 12.1477 7.0675 11.9801 6.90031C11.8125 6.73311 11.5858 6.63869 11.349 6.63751Z" fill="black"/>
<path d="M2.3955 6.63749H11.349C11.5862 6.63729 11.8137 6.73126 11.9816 6.89876C12.1496 7.06625 12.2441 7.29356 12.2445 7.53074V16.4692C12.2441 16.7064 12.1496 16.9337 11.9816 17.1012C11.8137 17.2687 11.5862 17.3627 11.349 17.3625H2.3955C2.27798 17.3629 2.16154 17.3401 2.05286 17.2953C1.94418 17.2506 1.84541 17.1849 1.7622 17.1019C1.679 17.0189 1.613 16.9203 1.56801 16.8117C1.52301 16.7031 1.4999 16.5868 1.5 16.4692V7.53074C1.4999 7.41322 1.52301 7.29683 1.56801 7.18827C1.613 7.0797 1.679 6.98109 1.7622 6.8981C1.84541 6.8151 1.94418 6.74935 2.05286 6.70463C2.16154 6.65991 2.27798 6.63709 2.3955 6.63749Z" fill="url(#paint0_linear_1_170)"/>
<path d="M4.27499 14.9047L6.15824 11.9917L4.43324 9.09525H5.81849L6.75974 10.95C6.84674 11.1255 6.90974 11.256 6.93824 11.343H6.95099C7.01249 11.2025 7.07749 11.066 7.14599 10.9335L8.15249 9.09825H9.42749L7.65824 11.9782L9.47249 14.907H8.11574L7.02824 12.8737C6.97789 12.7863 6.93499 12.6947 6.89999 12.6H6.88199C6.85021 12.6923 6.80793 12.7806 6.75599 12.8632L5.63624 14.9047H4.27499Z" fill="white"/>
<path d="M21.6045 2.25001H14.6858V7.125H22.5V3.14325C22.5001 3.02573 22.477 2.90935 22.432 2.80079C22.387 2.69222 22.321 2.59361 22.2378 2.51061C22.1546 2.42762 22.0558 2.36187 21.9472 2.31715C21.8385 2.27243 21.722 2.24961 21.6045 2.25001Z" fill="#33C481"/>
<path d="M14.6858 12H22.5V16.875H14.6858V12Z" fill="#107C41"/>
<defs>
<linearGradient id="paint0_linear_1_170" x1="3.3705" y1="5.93549" x2="10.374" y2="18.0645" gradientUnits="userSpaceOnUse">
<stop stop-color="#18884F"/>
<stop offset="0.5" stop-color="#117E43"/>
<stop offset="1" stop-color="#0B6631"/>
</linearGradient>
</defs>
</svg>
